<svg width="750" height="557" viewBox="0 0 750 557" fill="none" xmlns="http://www.w3.org/2000/svg">
<path opacity="0.1" d="M749.869 137.45C749.817 138.615 749.746 139.795 749.656 140.921C748.892 151.048 746.853 160.974 743.61 170.354C732.726 201.631 711.003 225.426 687.794 244.537L686.328 245.733C682.13 249.15 677.86 252.45 673.564 255.679L673.222 255.937L672.964 256.133L672.182 256.711C671.568 257.181 670.948 257.634 670.335 258.095L669.308 258.877L664.592 262.349L660.439 265.375C657.816 267.289 655.192 269.204 652.565 271.123C643.806 277.503 635.092 283.978 626.663 290.961L625.371 292.055C624.725 292.564 624.15 293.08 623.549 293.619C620.384 296.309 617.271 299.09 614.209 301.962C613.609 302.518 613.008 303.088 612.414 303.675C606.335 309.571 600.47 316.28 596.065 323.912C592.325 330.41 589.651 337.572 588.85 345.485C587.558 357.997 591.111 370.062 596.065 381.846C599.256 389.423 603.041 396.89 606.51 404.319C607.64 406.751 608.738 409.175 609.739 411.599C611.605 415.873 613.218 420.302 614.565 424.853C617.329 434.557 618.137 444.284 614.959 454.199C611.477 465.076 604.43 472.043 596.033 477.657C591.511 480.668 586.647 483.279 581.712 485.907C574.659 489.644 567.501 493.413 561.255 498.332C560.859 498.634 560.472 498.947 560.093 499.27C559.279 499.932 558.482 500.623 557.703 501.342C556.411 502.531 555.171 503.798 553.969 505.111C553.259 505.898 552.561 506.706 551.876 507.535C551.334 508.176 550.791 508.841 550.261 509.521C549.241 510.812 548.246 512.141 547.271 513.486L546.502 514.565C545.787 515.608 545.077 516.634 544.37 517.646C543.453 518.991 542.555 520.351 541.658 521.72C540.366 523.675 539.074 525.629 537.821 527.584C537.446 528.147 537.078 528.702 536.716 529.265C534.61 532.393 532.498 535.521 530.257 538.414L529.992 538.758C524.682 545.639 518.811 551.457 511.408 554.569C493.561 562.076 475.882 550.878 458.732 538.93L458.254 538.586L458.041 538.438L456.568 537.406L455.877 536.921C454.127 535.685 452.376 534.45 450.632 533.246L450.212 532.948C447.751 531.252 445.31 529.602 442.881 528.046C441.417 527.107 439.937 526.211 438.443 525.356C433.506 522.488 428.418 520.017 423.212 517.959C416.415 515.249 409.445 513.217 402.374 511.883C399.498 511.325 396.606 510.89 393.699 510.577C391.826 510.374 389.94 510.21 388.054 510.1C372.758 509.155 357.443 511.409 342.78 516.762C340.784 517.497 338.794 518.326 336.831 519.155C336.463 519.304 336.101 519.468 335.746 519.624C333.924 520.406 332.122 521.29 330.339 522.205L329.693 522.525C329.664 522.552 329.631 522.573 329.596 522.588C320.398 527.373 311.51 533.48 302.344 538.266C301.53 538.688 300.716 539.102 299.89 539.509C294.189 542.424 288.201 544.437 282.075 545.499C275.754 546.406 269.359 546.212 263.084 544.92C257.425 543.772 251.832 542.184 246.341 540.166H246.283L245.934 540.033C245.424 539.853 244.907 539.673 244.397 539.478L243.712 539.235L242.815 538.899C229.896 534.114 216.945 528.437 203.626 526.881C202.98 526.81 202.334 526.74 201.688 526.685C197.559 526.346 193.416 526.383 189.292 526.795C176.916 527.952 164.605 532.002 152.358 536.264L151.595 536.522C150.949 536.757 150.265 536.983 149.599 537.226L148.159 537.726L145.362 538.696L144.716 538.915C124.524 545.952 104.539 551.965 84.8054 544.998C76.1563 541.941 68.3921 536.608 61.2804 529.985C56.1895 525.178 51.4047 519.913 46.9664 514.237C42.8001 508.99 38.8276 503.493 34.9778 498.011C22.1495 479.745 9.47618 460.361 3.88883 437.364C1.99133 429.221 0.819804 420.856 0.394305 412.412C0.0971739 407.282 -0.0061765 402.122 0.00028287 396.953C0.00028287 393.518 0.0411926 390.09 0.123011 386.67C0.168227 384.176 0.23928 381.689 0.297415 379.203C0.297415 378.812 0.297415 378.421 0.297415 378.006C0.336171 376.849 0.362008 375.661 0.387846 374.535C0.943352 352.948 1.49455 331.358 2.04145 309.766C2.40963 295.379 2.80365 280.764 6.47258 267.072C6.89243 265.508 7.36397 263.944 7.86134 262.381C8.24244 261.208 8.64939 260.035 9.06279 258.909C17.2274 236.694 32.9625 218.435 46.9405 199.763C52.0672 193.067 56.8476 185.996 61.2545 178.588C67.9271 167.046 72.7522 154.801 73.818 140.968C73.9084 139.819 73.973 138.669 74.0053 137.496C74.0376 136.324 74.0441 135.151 74.0053 133.907C73.663 113.874 64.8524 94.6616 61.2351 75.3867C59.6074 66.7853 59.0196 58.1214 60.7055 49.3871C60.8605 48.5504 61.0414 47.7372 61.2351 46.9318C67.533 20.94 92.0851 7.30293 114.493 2.88495C137.746 -1.68941 161.433 -0.367929 184.654 3.6669C186.187 3.93276 187.716 4.21947 189.241 4.52704C194.046 5.47319 198.813 6.59136 203.561 7.79555C215.078 10.7122 226.485 14.1449 238.054 16.9834C252.878 20.6272 266.294 17.1476 281.08 14.6376C288.637 13.3552 296.229 12.4638 303.856 11.9633C310.203 11.5411 316.557 11.3899 322.917 11.5098C348.529 11.953 373.956 16.8404 398.421 26.0226C414.86 32.2235 431.047 40.4104 447.758 44.8753C453.469 46.4485 459.275 47.4657 465.12 47.917C465.579 47.964 466.044 47.9952 466.509 48.0187C506.066 50.1456 542.42 21.5421 581.693 16.178L583.017 16.006C587.334 15.4655 591.673 15.2045 596.013 15.224C632.625 15.4195 668.126 34.4833 701.753 53.289C711.998 59.0128 722.423 64.9008 730.749 74.1121C745.063 89.9465 750.98 113.796 749.869 137.45Z" fill="#4338EA"/>
<path d="M570.725 82.8145H90.7098V460.002H570.725V82.8145Z" fill="#190334"/>
<path opacity="0.8" d="M181.819 301.531H155.677L144.332 282.322H134.442V142.623H181.819V301.531Z" fill="url(#paint0_linear)"/>
<path opacity="0.3" d="M321.345 318.12H197.522L177.449 298.912H159.952V159.212H243.773L321.345 318.12Z" fill="url(#paint1_linear)"/>
<path opacity="0.4" d="M153.185 278.922C153.185 279.353 152.768 279.703 152.253 279.703H131.729C131.214 279.703 130.797 279.353 130.797 278.922V272.189C130.797 271.758 131.214 271.408 131.729 271.408H152.253C152.768 271.408 153.185 271.758 153.185 272.189V278.922Z" fill="#39335D"/>
<path d="M165.68 268.445C165.68 268.876 165.263 269.226 164.749 269.226H144.224C143.71 269.226 143.293 268.876 143.293 268.445V261.712C143.293 261.281 143.71 260.931 144.224 260.931H164.749C165.263 260.931 165.68 261.281 165.68 261.712V268.445Z" fill="#34285E"/>
<path opacity="0.7" d="M179.216 278.922C179.216 279.353 178.799 279.703 178.285 279.703H157.76C157.246 279.703 156.829 279.353 156.829 278.922V272.189C156.829 271.758 157.246 271.408 157.76 271.408H178.285C178.799 271.408 179.216 271.758 179.216 272.189V278.922Z" fill="#39335D"/>
<path d="M224.51 291.583C224.51 292.014 224.093 292.363 223.578 292.363H203.054C202.54 292.363 202.122 292.014 202.122 291.583V284.849C202.122 284.418 202.54 284.069 203.054 284.069H223.578C224.093 284.069 224.51 284.418 224.51 284.849V291.583Z" fill="#34285E"/>
<path opacity="0.7" d="M237.005 281.105C237.005 281.536 236.588 281.886 236.074 281.886H215.549C215.035 281.886 214.618 281.536 214.618 281.105V274.372C214.618 273.941 215.035 273.591 215.549 273.591H236.074C236.588 273.591 237.005 273.941 237.005 274.372V281.105Z" fill="#39335D"/>
<path opacity="0.4" d="M250.541 291.583C250.541 292.014 250.124 292.363 249.61 292.363H229.086C228.571 292.363 228.154 292.014 228.154 291.583V284.849C228.154 284.418 228.571 284.069 229.086 284.069H249.61C250.124 284.069 250.541 284.418 250.541 284.849V291.583Z" fill="#39335D"/>
<path opacity="0.4" d="M277.093 259.714C277.093 260.145 276.676 260.494 276.162 260.494H255.637C255.123 260.494 254.706 260.145 254.706 259.714V252.98C254.706 252.549 255.123 252.2 255.637 252.2H276.162C276.676 252.2 277.093 252.549 277.093 252.98V259.714Z" fill="#39335D"/>
<path opacity="0.7" d="M303.124 259.714C303.124 260.145 302.707 260.494 302.192 260.494H281.668C281.153 260.494 280.736 260.145 280.736 259.714V252.98C280.736 252.549 281.153 252.2 281.668 252.2H302.192C302.707 252.2 303.124 252.549 303.124 252.98V259.714Z" fill="#39335D"/>
<path d="M567.601 74.0833H447.337V331.654H567.601V74.0833Z" fill="#39335D"/>
<path d="M567.601 74.0833H447.337V331.654H567.601V74.0833Z" fill="url(#paint2_linear)"/>
<path d="M520.107 333.185L447.337 331.654V74.0833L464.704 72.3868L520.107 333.185Z" fill="url(#paint3_linear)"/>
<path d="M505.126 177.111L470.765 159.212V74.0833H505.126V177.111Z" fill="url(#paint4_linear)"/>
<path d="M516.059 234.301L481.698 216.402V131.273H516.059V234.301Z" fill="url(#paint5_linear)"/>
<path d="M128.271 328.853C128.271 328.853 164.973 313.792 185.276 312.483C205.58 311.173 246.967 283.671 294.602 282.362C342.237 281.052 450 308.554 450 308.554C450 308.554 287.574 358.319 275.86 359.629C264.147 360.938 128.271 328.853 128.271 328.853Z" fill="#39486C"/>
<path opacity="0.5" d="M104.461 322.041V466.105H570.418V309.38C570.418 309.38 473.641 297.632 424.445 302.216C375.248 306.799 328.395 329.062 291.693 328.407C254.99 327.753 143.689 311.09 104.461 322.041Z" fill="url(#paint6_linear)"/>
<path d="M104.461 322.032V466.097H570.418V309.372C570.418 309.372 473.641 297.624 424.445 302.207C375.248 306.79 330.567 328.29 293.968 330.685C246.07 333.819 147.673 305.09 104.461 322.032Z" fill="#34285E"/>
<path d="M104.461 327.716V471.781H570.418V315.056C570.418 315.056 473.641 303.307 424.445 307.891C375.248 312.474 330.567 333.974 293.968 336.369C246.07 339.503 147.673 310.773 104.461 327.716Z" fill="url(#paint7_linear)"/>
<path d="M104.675 327.753V471.818H570.632V315.093C570.632 315.093 473.855 303.344 424.658 307.928C375.462 312.511 328.609 334.774 291.906 334.12C255.204 333.465 143.903 316.802 104.675 327.753Z" fill="url(#paint8_linear)"/>
<path opacity="0.7" d="M422.856 354.429L350.506 368.776L305.659 390.261L262.515 401.94L262.75 407.615L185.006 404.923L196.053 426.419L272.511 445.634L334.622 422.749L357.784 429.693L426.312 394.852L422.856 354.429Z" fill="#190334"/>
<path d="M243.773 82.8145H90.7098V247.834H243.773V82.8145Z" fill="#6373A4"/>
<path d="M362.996 78.8854H268.763V247.834H362.996V78.8854Z" fill="#6373A4"/>
<path d="M107.37 182.787H95.916V247.834H237.64L238.046 221.64H215.659V201.559H202.123V217.275L197.958 213.844V197.63H187.546V205.051H179.216V169.69H166.721V212.909H153.705V194.137L137.915 181.04H127.674V199.813L121.947 194.792V183.223H117.262V199.813H107.37V182.787Z" fill="#516493"/>
<path d="M314.578 152.227H311.454V157.03H307.289V176.238H295.315V182.787H290.108V163.141H280.737V173.182H268.763V247.834H362.475V197.63H352.583V157.903H333.841V184.969H323.428V156.593H318.222V152.664H316.14" fill="#516493"/>
<path opacity="0.7" d="M232.32 197.193H243.774V247.834H102.05L101.644 227.316H124.03V211.6H137.567V223.948L141.732 221.266V208.544H152.144V214.219H160.474V186.716H172.969V220.331H185.985V205.863L201.775 195.447H212.016V210.299L217.743 206.375V197.193H222.428V210.29H232.32V197.193Z" fill="url(#paint9_linear)"/>
<path opacity="0.7" d="M362.475 189.335V247.834H268.763V208.544H278.655V177.548H297.397V198.503H307.81V176.675H313.016V173.619H315.098V149.608H316.66V173.182H319.784V176.675H323.949V191.954H335.923V197.193H341.129V181.477H350.501V189.335H362.475Z" fill="url(#paint10_linear)"/>
<path d="M432.759 74.0833H377.573V247.834H432.759V74.0833Z" fill="#39335D"/>
<path d="M432.759 85.8704H377.573V91.5457H432.759V85.8704Z" fill="#6373A4"/>
<path d="M377.573 89.7994H429.689L432.759 85.8704H377.573V89.7994Z" fill="#190334"/>
<path d="M432.759 91.1091H377.573V96.7844H432.759V91.1091Z" fill="#6373A4"/>
<path d="M377.573 95.0382H429.689L432.759 91.1091H377.573V95.0382Z" fill="#190334"/>
<path d="M432.759 96.3479H377.573V102.023H432.759V96.3479Z" fill="#6373A4"/>
<path d="M377.573 100.277H429.689L432.759 96.3479H377.573V100.277Z" fill="#190334"/>
<path d="M432.759 101.587H377.573V107.262H432.759V101.587Z" fill="#6373A4"/>
<path d="M377.573 105.516H429.689L432.759 101.587H377.573V105.516Z" fill="#190334"/>
<path d="M432.759 106.825H377.573V112.501H432.759V106.825Z" fill="#6373A4"/>
<path d="M377.573 110.754H429.689L432.759 106.825H377.573V110.754Z" fill="#190334"/>
<path d="M432.759 112.064H377.573V117.739H432.759V112.064Z" fill="#6373A4"/>
<path d="M377.573 115.993H429.689L432.759 112.064H377.573V115.993Z" fill="#190334"/>
<path d="M432.759 117.303H377.573V122.978H432.759V117.303Z" fill="#6373A4"/>
<path d="M377.573 121.232H429.689L432.759 117.303H377.573V121.232Z" fill="#190334"/>
<path d="M432.759 122.541H377.573V128.217H432.759V122.541Z" fill="#6373A4"/>
<path d="M377.573 126.47H429.689L432.759 122.541H377.573V126.47Z" fill="#190334"/>
<path d="M432.759 127.78H377.573V133.455H432.759V127.78Z" fill="#6373A4"/>
<path d="M377.573 131.709H429.689L432.759 127.78H377.573V131.709Z" fill="#190334"/>
<path d="M432.759 133.019H377.573V138.694H432.759V133.019Z" fill="#6373A4"/>
<path d="M377.573 136.948H429.689L432.759 133.019H377.573V136.948Z" fill="#190334"/>
<path d="M432.759 138.258H377.573V143.933H432.759V138.258Z" fill="#6373A4"/>
<path d="M377.573 142.187H429.689L432.759 138.258H377.573V142.187Z" fill="#190334"/>
<path d="M432.759 143.496H377.573V149.172H432.759V143.496Z" fill="#6373A4"/>
<path d="M377.573 147.425H429.689L432.759 143.496H377.573V147.425Z" fill="#190334"/>
<path d="M432.759 148.735H377.573V154.41H432.759V148.735Z" fill="#6373A4"/>
<path d="M377.573 152.664H429.689L432.759 148.735H377.573V152.664Z" fill="#190334"/>
<path d="M432.759 153.974H377.573V159.649H432.759V153.974Z" fill="#6373A4"/>
<path d="M377.573 157.903H429.689L432.759 153.974H377.573V157.903Z" fill="#190334"/>
<path d="M432.759 159.212H377.573V164.888H432.759V159.212Z" fill="#6373A4"/>
<path d="M377.573 163.142H429.689L432.759 159.212H377.573V163.142Z" fill="#190334"/>
<path d="M432.759 164.451H377.573V170.126H432.759V164.451Z" fill="#6373A4"/>
<path d="M377.573 168.38H429.689L432.759 164.451H377.573V168.38Z" fill="#190334"/>
<path d="M432.759 169.69H377.573V175.365H432.759V169.69Z" fill="#6373A4"/>
<path d="M377.573 173.619H429.689L432.759 169.69H377.573V173.619Z" fill="#190334"/>
<path d="M432.759 174.929H377.573V180.604H432.759V174.929Z" fill="#6373A4"/>
<path d="M377.573 178.858H429.689L432.759 174.929H377.573V178.858Z" fill="#190334"/>
<path d="M432.759 180.167H377.573V185.843H432.759V180.167Z" fill="#6373A4"/>
<path d="M377.573 184.096H429.689L432.759 180.167H377.573V184.096Z" fill="#190334"/>
<path d="M432.759 185.406H377.573V191.081H432.759V185.406Z" fill="#6373A4"/>
<path d="M377.573 189.335H429.689L432.759 185.406H377.573V189.335Z" fill="#190334"/>
<path d="M432.759 190.645H377.573V196.32H432.759V190.645Z" fill="#6373A4"/>
<path d="M377.573 194.574H429.689L432.759 190.645H377.573V194.574Z" fill="#190334"/>
<path d="M432.759 195.883H377.573V201.559H432.759V195.883Z" fill="#6373A4"/>
<path d="M377.573 199.813H429.689L432.759 195.883H377.573V199.813Z" fill="#190334"/>
<path d="M432.759 201.122H377.573V206.797H432.759V201.122Z" fill="#6373A4"/>
<path d="M377.573 205.051H429.689L432.759 201.122H377.573V205.051Z" fill="#190334"/>
<path d="M432.759 206.361H377.573V212.036H432.759V206.361Z" fill="#6373A4"/>
<path d="M377.573 210.29H429.689L432.759 206.361H377.573V210.29Z" fill="#190334"/>
<path d="M432.759 211.6H377.573V217.275H432.759V211.6Z" fill="#6373A4"/>
<path d="M377.573 215.529H429.689L432.759 211.6H377.573V215.529Z" fill="#190334"/>
<path d="M432.759 216.838H377.573V222.514H432.759V216.838Z" fill="#6373A4"/>
<path d="M377.573 220.767H429.689L432.759 216.838H377.573V220.767Z" fill="#190334"/>
<path d="M432.759 222.077H377.573V227.752H432.759V222.077Z" fill="#6373A4"/>
<path d="M377.573 226.006H429.689L432.759 222.077H377.573V226.006Z" fill="#190334"/>
<path d="M432.759 227.316H377.573V232.991H432.759V227.316Z" fill="#6373A4"/>
<path d="M377.573 231.245H429.689L432.759 227.316H377.573V231.245Z" fill="#190334"/>
<path d="M432.759 232.555H377.573V238.23H432.759V232.555Z" fill="#6373A4"/>
<path d="M377.573 236.484H429.689L432.759 232.555H377.573V236.484Z" fill="#190334"/>
<path d="M432.759 237.793H377.573V243.469H432.759V237.793Z" fill="#6373A4"/>
<path d="M377.573 241.722H429.689L432.759 237.793H377.573V241.722Z" fill="#190334"/>
<path d="M432.759 243.032H377.573V248.707H432.759V243.032Z" fill="#6373A4"/>
<path d="M377.573 246.961H429.689L432.759 243.032H377.573V246.961Z" fill="#190334"/>
<path d="M175.051 226.265C175.051 226.265 202.384 240.413 214.618 247.834" stroke="#342E4F" stroke-width="2" stroke-miterlimit="10"/>
<path d="M219.923 248.024C219.923 248.024 207.946 233.408 199.286 227.316" stroke="#342E4F" stroke-width="2" stroke-miterlimit="10"/>
<path d="M216.44 224.042C216.44 224.042 219.437 240.48 224.383 247.902" stroke="#342E4F" stroke-width="2" stroke-miterlimit="10"/>
<path d="M199.728 228.975C199.249 229.333 198.713 229.56 198.13 229.643C191.883 230.516 183.209 215.965 180.085 211.019C176.961 206.068 170.714 200.249 168.632 188.025C166.549 175.802 168.632 163.36 168.632 163.36C168.803 163.395 168.965 163.451 169.126 163.53C171.911 164.848 173.328 172.078 176.613 178.129C180.085 184.533 191.539 188.899 198.13 199.957C204.107 209.984 204.383 225.504 199.728 228.975Z" fill="#C1CFCA"/>
<path d="M218.268 227.634C215.253 229.713 210.578 229.162 208.199 224.989C204.378 218.292 208.891 207.815 210.281 203.449C211.666 199.083 212.015 191.225 213.749 191.225C213.749 191.225 213.79 191.404 213.869 191.719C214.301 193.421 215.816 199.14 217.57 202.576C219.653 206.653 220.345 213.346 221.037 221.204C221.298 224.164 220.085 226.377 218.268 227.634Z" fill="#C1CFCA"/>
<path d="M195.006 237.213C195.006 237.213 194.933 237.313 194.761 237.475C194.116 238.108 192.059 239.718 187.374 240.413C181.47 241.286 159.604 232.555 155.788 229.682C151.971 226.809 147.109 227.316 143.641 222.37C140.544 217.956 142.97 215.629 143.532 215.175C143.6 215.118 143.641 215.092 143.641 215.092C143.641 215.092 149.54 215.965 152.315 217.131C155.095 218.292 166.549 218.585 175.222 221.785C183.901 224.989 195.006 237.213 195.006 237.213Z" fill="#C1CFCA"/>
<path opacity="0.6" d="M194.761 237.475C194.116 238.108 192.059 239.718 187.374 240.413C181.47 241.286 159.604 232.555 155.788 229.682C151.971 226.809 147.109 227.316 143.641 222.37C140.544 217.956 142.97 215.629 143.532 215.175C145.443 216.336 158.344 224.09 168.283 227.316C177.664 230.363 191.398 236.06 194.761 237.475Z" fill="url(#paint11_linear)"/>
<path opacity="0.7" d="M199.728 228.975C199.249 229.333 198.713 229.56 198.13 229.643C191.883 230.516 183.209 215.965 180.085 211.019C176.961 206.068 170.714 200.249 168.632 188.025C166.549 175.802 168.632 163.36 168.632 163.36C168.803 163.395 168.965 163.451 169.126 163.53C170.141 168.481 172.495 178.46 176.092 184.97C180.663 193.238 196.339 214.734 199.728 228.975Z" fill="url(#paint12_linear)"/>
<path opacity="0.7" d="M218.268 227.634C215.253 229.713 210.578 229.162 208.199 224.989C204.378 218.292 208.891 207.815 210.281 203.449C211.666 199.083 212.015 191.225 213.749 191.225C213.749 191.225 213.79 191.404 213.869 191.719C213.869 197.446 214.061 210.246 215.659 214.341C217.294 218.523 220.048 223.186 218.268 227.634Z" fill="url(#paint13_linear)"/>
<path d="M161.775 228.812C161.775 228.812 182.974 237.811 194.761 237.475" stroke="#EAE7C5" stroke-width="2" stroke-miterlimit="10"/>
<path d="M175.051 192.609C175.051 192.609 189.972 224.985 198.13 229.643" stroke="#EAE7C5" stroke-width="2" stroke-miterlimit="10"/>
<path d="M212.772 205.051C212.772 205.051 211.851 222.617 213.885 228.786" stroke="#EAE7C5" stroke-width="2" stroke-miterlimit="10"/>
<path d="M250.542 91.5456H243.774V247.834H250.542V91.5456Z" fill="#F2EED0"/>
<path d="M365.599 81.5048H358.831V247.834H365.599V81.5048Z" fill="#F2EED0"/>
<path opacity="0.7" d="M250.542 91.5456H243.774V247.834H250.542V91.5456Z" fill="url(#paint14_linear)"/>
<path opacity="0.7" d="M365.599 81.5048H358.831V247.834H365.599V81.5048Z" fill="url(#paint15_linear)"/>
<path d="M432.76 88.4898H377.573V250.017H432.76V88.4898Z" fill="url(#paint16_linear)"/>
<path d="M347.897 81.0683H268.763V240.413H347.897V81.0683Z" fill="url(#paint17_linear)"/>
<path d="M331.612 81.0683L268.763 175.474V135.59L305.061 81.0683H331.612Z" fill="url(#paint18_linear)"/>
<path d="M347.897 81.0683V108.196L268.763 224.893V185.738L339.739 81.0683H347.897Z" fill="url(#paint19_linear)"/>
<path d="M233.881 81.0683H107.89V240.413H233.881V81.0683Z" fill="url(#paint20_linear)"/>
<path d="M188.587 115.993L116.22 224.697H107.89V197.324L162.035 115.993H188.587Z" fill="url(#paint21_linear)"/>
<path d="M233.881 95.9113V100.517L139.013 240.413H112.462L210.453 95.9113H233.881Z" fill="url(#paint22_linear)"/>
<path d="M487.425 202.868C487.425 202.868 467.12 196.612 456.708 191.227C446.295 185.843 412.455 176.238 406.207 189.772C399.96 203.305 404.125 218.585 418.702 221.641C433.28 224.696 455.146 232.991 461.393 225.57C467.641 218.148 471.285 214.219 479.095 215.092C486.904 215.965 487.425 202.868 487.425 202.868Z" fill="#ED7625"/>
<path d="M485.342 204.771C485.342 204.771 465.955 199.489 455.543 194.104C445.13 188.72 412.455 176.238 406.207 189.772C399.96 203.305 404.125 218.585 418.702 221.641C433.28 224.696 455.146 232.991 461.393 225.57C467.641 218.148 471.285 214.219 479.095 215.092C486.904 215.965 485.342 204.771 485.342 204.771Z" fill="url(#paint23_linear)"/>
<path d="M389.2 194.536C389.2 194.536 346.075 192.1 337.051 198.794C328.027 205.488 327.464 218.661 344.383 229.682C361.304 240.703 380.697 229.682 380.697 229.682L389.2 194.536Z" fill="#ED7625"/>
<path d="M388.588 198.939C388.588 198.939 348.631 195.302 339.607 201.995C330.583 208.689 327.464 218.661 344.384 229.682C361.304 240.703 380.697 229.682 380.697 229.682L388.588 198.939Z" fill="url(#paint24_linear)"/>
<path d="M470.541 197.106C470.416 199.957 462.784 198.795 460.003 200.83C457.228 202.868 452.715 201.995 450.981 202.868C449.247 203.742 452.715 200.358 450.981 196.521C449.247 192.683 441.974 189.147 439.527 194.534C439.527 194.534 443.692 199.376 443 201.122C442.302 202.868 435.013 197.337 433.8 201.122C432.587 204.907 426.684 211.892 419.051 212.765C411.414 213.638 382.608 208.4 380.697 202.868C378.786 197.337 383.992 196.757 385.731 191.225C386.976 187.266 389.11 178.666 393.03 173.043C394.582 170.816 396.409 169.061 398.57 168.236C406.208 165.324 413.148 168.236 413.148 168.236C413.148 168.236 415.23 164.307 423.909 163.36C432.187 162.456 442.99 169.83 449.69 178.342C450.014 178.753 450.331 179.172 450.633 179.587C457.228 188.606 460.352 190.645 464.517 191.225C468.682 191.81 470.666 194.251 470.541 197.106Z" fill="#190334"/>
<path d="M439.527 194.536C439.527 194.536 443.692 199.376 442.998 201.122C442.304 202.868 435.016 197.338 433.801 201.122C432.586 204.905 426.685 211.89 419.049 212.764C411.413 213.637 382.607 208.398 380.697 202.868C378.788 197.338 391.456 198.794 393.192 193.264C394.928 187.734 390.935 171.145 398.571 168.234C406.208 165.324 413.149 168.234 413.149 168.234C413.149 168.234 415.231 164.305 423.908 163.359C432.586 162.413 444.039 170.563 450.634 179.585C457.228 188.607 460.352 190.645 464.517 191.227C468.682 191.808 470.667 194.251 470.542 197.104C470.417 199.957 462.782 198.794 460.005 200.831C457.228 202.868 452.716 201.995 450.981 202.868C449.246 203.741 452.716 200.359 450.981 196.52C449.246 192.682 441.975 189.149 439.527 194.536Z" fill="url(#paint25_linear)"/>
<path d="M468.161 215.092C468.161 215.092 478.774 213.054 480.829 207.234C482.884 201.413 482.884 201.413 482.884 201.413L475.97 199.067C475.97 199.067 480.427 199.487 482.884 196.521C485.341 193.555 494.077 196.521 494.077 196.521C494.077 196.521 497.836 198.212 497.836 200.831C497.836 203.45 500.959 205.098 506.512 205.148C512.066 205.197 520.616 205.488 525.712 208.107C530.809 210.727 545.529 233.251 550.215 256.824C554.901 280.397 551.663 322.403 536.102 346.909C520.541 371.415 497.775 389.342 497.775 389.342L433.8 339.329L411.216 312.482L429.176 264.027L468.161 215.092Z" fill="#B0B100"/>
<path d="M468.161 215.092C468.161 215.092 478.774 213.054 480.829 207.234C482.884 201.413 482.884 201.413 482.884 201.413L475.97 199.067C475.97 199.067 480.427 199.487 482.884 196.521C485.341 193.555 494.077 196.521 494.077 196.521C494.077 196.521 497.836 198.212 497.836 200.831C497.836 203.45 500.959 205.098 506.512 205.148C512.066 205.197 520.616 205.488 525.712 208.107C530.809 210.727 545.529 233.251 550.215 256.824C554.901 280.397 551.663 322.403 536.102 346.909C520.541 371.415 497.775 389.342 497.775 389.342L433.8 339.329L411.216 312.482L429.176 264.027L468.161 215.092Z" fill="url(#paint26_linear)"/>
<path d="M525.95 234.925C530.636 258.499 522.244 290.809 506.682 315.318C491.12 339.822 497.774 389.341 497.774 389.341L453.662 354.857L433.8 339.328L411.215 312.48L429.177 264.026L440.802 249.436L468.161 215.092C468.161 215.092 478.772 213.053 480.828 207.234C482.884 201.415 482.884 201.415 482.884 201.415L475.971 199.066C475.971 199.066 480.428 199.485 482.884 196.521C484.457 194.626 488.59 195.154 491.371 195.783C492.938 196.137 494.077 196.521 494.077 196.521C494.077 196.521 497.837 198.21 497.837 200.83C497.837 203.449 500.96 205.099 506.51 205.147C512.065 205.195 520.614 205.488 525.711 208.107C530.808 210.727 521.265 211.351 525.95 234.925Z" fill="url(#paint27_linear)"/>
<path d="M439.18 214.342C439.18 214.342 412.732 207.987 403.396 205.719C394.06 203.451 372.713 197.8 363.256 205.719C353.798 213.637 349.549 223.139 354.145 228.812C358.742 234.485 393.642 238.958 403.396 242.159C413.149 245.36 431.891 250.89 431.891 250.89L440.569 247.834L439.18 214.342Z" fill="#ED7625"/>
<path d="M436.924 221.641C436.924 221.641 411.378 210.374 402.042 208.106C392.706 205.838 372.713 197.801 363.256 205.719C353.798 213.638 349.549 223.14 354.145 228.812C358.742 234.485 393.642 238.958 403.396 242.159C413.149 245.36 431.891 250.89 431.891 250.89L440.569 247.834L436.924 221.641Z" fill="url(#paint28_linear)"/>
<path d="M200.423 374.565C200.423 374.565 191.066 386.71 182.322 391.452C173.579 396.193 155.256 396.875 149.773 400.056C144.291 403.237 145.636 406.816 145.636 406.816C145.636 406.816 162.18 407.781 176.202 408.599C190.225 409.417 204.266 410.026 207.089 407.451C209.912 404.877 209.77 396.991 211.807 392.953C213.846 388.914 219.092 382.281 219.092 382.281L200.423 374.565Z" fill="#ED7625"/>
<path d="M200.423 374.565C200.423 374.565 191.066 386.71 182.322 391.452C173.579 396.193 155.256 396.875 149.773 400.056C144.291 403.237 145.636 406.816 145.636 406.816C145.636 406.816 162.18 407.781 176.202 408.599C190.225 409.417 204.266 410.026 207.089 407.451C209.912 404.877 209.77 396.991 211.807 392.953C213.846 388.914 219.092 382.281 219.092 382.281L200.423 374.565Z" fill="url(#paint29_linear)"/>
<path d="M423.562 228.812C423.562 228.812 420.438 242.159 423.562 250.89C426.686 259.621 429.115 258.748 429.115 258.748C429.115 258.748 439.181 257.923 448.552 258.773C457.923 259.622 476.665 261.95 487.425 261.077C498.185 260.204 506.862 252.346 506.862 242.45C506.862 232.555 506.285 225.279 494.078 220.331C481.872 215.383 466.947 216.793 460.006 214.342C453.064 211.891 423.033 209.994 422.174 210.019C421.315 210.044 424.635 222.058 423.562 228.812Z" fill="#B0B100"/>
<path d="M506.859 242.451C506.859 252.344 498.186 260.202 487.425 261.075C476.663 261.948 457.921 259.621 448.55 258.774C439.179 257.923 429.115 258.748 429.115 258.748C429.115 258.748 426.684 259.621 423.56 250.89C420.436 242.159 423.56 228.813 423.56 228.813C424.117 225.316 423.497 220.414 422.888 216.493C422.815 216.031 422.743 215.577 422.675 215.145C422.196 212.167 421.811 210.032 422.175 210.019C423.034 209.993 453.064 211.892 460.004 214.341C460.16 214.398 460.321 214.45 460.488 214.503C464.877 215.878 472.066 215.935 479.73 216.904C484.52 217.511 489.492 218.475 494.078 220.331C506.287 225.277 506.859 232.555 506.859 242.451Z" fill="url(#paint30_linear)"/>
<path d="M406.208 389.342C406.208 389.342 362.475 350.862 348.419 333.836C334.362 316.811 315.619 301.094 315.619 301.094L212.536 382.731C212.536 382.731 190.149 373.563 189.108 366.578C188.067 359.593 198.479 356.101 202.124 349.989C205.768 343.877 226.072 320.808 229.196 315.753C232.32 310.699 246.786 292.272 246.786 292.272C246.786 292.272 273.449 264.423 278.655 257.438C283.861 250.453 300.001 234.632 305.207 228.573C310.413 222.514 314.058 214.219 317.702 215.093C321.346 215.966 325.511 214.737 344.514 226.265C363.517 237.793 406.728 377.181 406.208 389.342Z" fill="#6BA6C6"/>
<path opacity="0.5" d="M406.208 389.342C406.208 389.342 362.475 350.862 348.419 333.836C334.362 316.811 315.619 301.094 315.619 301.094L212.536 382.731C212.536 382.731 190.149 373.563 189.108 366.578C188.067 359.593 198.479 356.101 202.124 349.989C205.768 343.877 226.072 320.808 229.196 315.753C232.32 310.699 246.786 292.272 246.786 292.272C246.786 292.272 273.449 264.423 278.655 257.438C283.861 250.453 300.001 234.632 305.207 228.573C310.413 222.514 314.058 214.219 317.702 215.093C321.346 215.966 325.511 214.737 344.514 226.265C363.517 237.793 406.728 377.181 406.208 389.342Z" fill="url(#paint31_linear)"/>
<path d="M406.207 389.341C406.207 389.341 364.563 345.392 350.506 328.366C336.449 311.341 315.619 301.094 315.619 301.094L285.522 324.931L212.536 382.731C212.536 382.731 190.149 373.563 189.108 366.578C188.066 359.593 201.603 359.157 205.247 353.045C206.752 350.522 210.563 344.589 214.743 338.132C220.683 328.956 227.363 318.723 229.196 315.754C232.319 310.699 246.788 292.272 246.788 292.272C246.788 292.272 275.531 266.698 280.737 259.713C285.944 252.728 304.946 242.543 310.153 236.484C315.359 230.424 317.181 220.767 320.825 221.641C324.47 222.514 325.511 214.739 344.514 226.264C363.516 237.793 406.728 377.182 406.207 389.341Z" fill="url(#paint32_linear)"/>
<path d="M285.522 324.931L212.536 382.731C212.536 382.731 190.149 373.563 189.108 366.578C188.066 359.593 201.603 359.157 205.247 353.045C206.752 350.522 210.563 344.589 214.743 338.132C216.253 343.205 220.564 347.051 231.799 342.053C245.356 336.019 267.206 329.497 285.522 324.931Z" fill="url(#paint33_linear)"/>
<path opacity="0.5" d="M449.69 178.342C445.26 182.101 432.645 170.209 428.594 173.182C424.429 176.238 417.661 177.984 410.893 173.182C404.833 168.882 395.025 172.279 393.03 173.043C394.582 170.816 396.409 169.061 398.57 168.236C406.208 165.324 413.148 168.236 413.148 168.236C413.148 168.236 415.23 164.307 423.909 163.36C432.187 162.456 442.99 169.83 449.69 178.342Z" fill="url(#paint34_linear)"/>
<path d="M486.904 231.681C477.533 231.681 471.806 218.585 464.704 221.741C457.604 224.902 479.615 243.032 470.993 242.595C462.367 242.159 452.022 229.062 439.788 219.458C433.691 214.673 427.532 214.979 422.888 216.493C422.321 212.835 421.758 210.032 422.175 210.019C423.034 209.993 453.064 211.892 460.003 214.341C464.34 215.874 471.78 215.9 479.73 216.904C480.713 222.453 494.188 231.681 486.904 231.681Z" fill="url(#paint35_linear)"/>
<path opacity="0.5" d="M460.488 214.503C458.317 215.276 455.646 215.856 452.803 215.633C445.775 215.083 439.267 215.31 430.698 215.603C427.204 215.721 424.569 215.476 422.675 215.145C422.196 212.167 421.811 210.032 422.175 210.019C423.034 209.993 453.064 211.892 460.004 214.341C460.16 214.398 460.321 214.45 460.488 214.503Z" fill="url(#paint36_linear)"/>
<path d="M492.11 205.719C492.11 210.888 482.967 214.236 482.682 214.337C482.744 214.241 484.863 211.093 487.424 206.797C490.028 202.432 486.123 200.031 482.884 196.521C484.457 194.626 488.591 195.154 491.371 195.783C491.022 198.084 492.11 201.655 492.11 205.719Z" fill="url(#paint37_linear)"/>
<path d="M453.662 354.857L433.8 339.328L411.215 312.48L429.177 264.026L440.802 249.436C446.238 253.003 457.827 261.752 460.487 273.011C463.996 287.854 465.292 306.691 470.546 315.318C475.116 322.818 458.842 347.588 453.662 354.857Z" fill="url(#paint38_linear)"/>
<path d="M268.763 181.04L259.913 166.634V88.4898H268.763V181.04Z" fill="url(#paint39_linear)"/>
<path d="M231.799 389.264C231.799 389.264 230.268 391.564 228.638 394.275C227.42 396.31 226.145 398.616 225.416 400.393C225.364 400.52 225.312 400.665 225.265 400.796C223.76 405.03 224.432 412.496 221.907 415.146C219.304 417.879 205.247 418.093 191.19 418.093C177.133 418.093 160.551 418.093 160.551 418.093C160.551 418.093 158.911 414.6 164.118 411.108C169.324 407.615 187.546 405.869 195.876 400.63C199.572 398.304 203.274 394.514 206.241 391.022C206.699 390.48 207.142 389.948 207.564 389.428C207.892 389.027 208.204 388.634 208.506 388.25C210.963 385.12 212.536 382.656 212.536 382.656L226.978 387.533H226.983L231.799 389.264Z" fill="#ED7625"/>
<path d="M231.799 389.264C231.799 389.264 230.268 391.564 228.638 394.275C227.42 396.31 224.024 394.488 223.295 396.265C223.243 396.392 220.912 400.242 220.865 400.374C219.361 404.608 217.034 410.641 214.509 413.291C211.906 416.024 205.247 418.093 191.19 418.093C177.133 418.093 160.551 418.093 160.551 418.093C160.551 418.093 158.911 414.6 164.118 411.108C169.324 407.615 187.546 405.869 195.876 400.63C199.572 398.304 203.274 394.514 206.241 391.022C206.699 390.48 207.142 389.948 207.564 389.428C207.892 389.027 208.204 388.634 208.506 388.25C210.963 385.12 212.536 382.656 212.536 382.656L226.978 387.533H226.983L231.799 389.264Z" fill="url(#paint40_linear)"/>
<path d="M498.888 387.097C484.92 397.164 471.983 401.94 459.587 403.433C452.699 404.262 445.983 404.079 439.345 403.228C432.035 402.293 424.83 400.543 417.609 398.447C392.041 391.021 386.424 345.187 383.082 335.583C381.009 329.61 371.737 308.455 365.022 293.302C360.928 284.077 357.789 277.079 357.789 277.079C357.789 277.079 343.732 301.967 334.361 311.572C324.99 321.176 271.886 363.959 264.598 373.127C257.309 382.294 250.02 394.082 246.787 395.828C244.746 396.928 236.224 395.775 228.638 394.313C224.182 393.457 220.053 392.497 217.742 391.82C215.867 391.27 213.717 390.511 211.619 389.642C210.552 389.201 209.5 388.729 208.506 388.249C204.934 386.512 202.123 384.604 202.123 383.168C202.123 380.548 217.742 361.776 225.416 354.429C233.084 347.082 271.366 302.404 291.149 280.139C308.601 260.499 336.397 221.671 360.012 208.701C363.646 206.706 372.732 210.019 380.281 214.341C387.85 218.676 396.186 225.971 404.724 234.925C433.212 264.807 463.955 313.178 475.97 331.654C491.589 355.664 498.888 387.097 498.888 387.097Z" fill="#6BA6C6"/>
<path d="M498.888 387.097C486.831 395.789 475.538 400.534 464.704 402.629C462.987 402.961 461.284 403.228 459.587 403.433C452.699 404.262 445.983 404.079 439.345 403.228C432.035 402.293 424.83 400.543 417.609 398.447C392.041 391.021 386.424 345.187 383.082 335.583C381.009 329.61 371.737 308.455 365.022 293.302C360.928 284.077 357.789 277.079 357.789 277.079C357.789 277.079 343.732 301.967 334.361 311.572C324.99 321.176 271.886 363.959 264.598 373.127C257.309 382.294 250.02 394.082 246.787 395.828C244.746 396.928 236.224 395.775 228.638 394.313C224.182 393.457 220.053 392.497 217.742 391.82C216.727 391.523 215.633 391.165 214.509 390.759C213.556 390.414 212.582 390.039 211.619 389.641C211.562 389.615 211.499 389.593 211.442 389.567C210.437 389.148 209.443 388.703 208.506 388.248C204.934 386.512 202.123 384.604 202.123 383.168C202.123 380.548 217.742 361.776 225.416 354.429C233.084 347.082 271.366 302.404 291.149 280.139C308.054 261.114 334.668 224.081 357.784 209.993C357.789 209.989 357.789 209.989 357.789 209.989C358.534 209.535 359.278 209.107 360.012 208.701C363.646 206.706 372.732 210.019 380.281 214.341C387.85 218.676 396.186 225.971 404.724 234.925C433.212 264.807 463.955 313.178 475.97 331.654C491.589 355.664 498.888 387.097 498.888 387.097Z" fill="#6BA6C6"/>
<path opacity="0.3" d="M357.789 277.079C357.789 277.079 343.733 301.968 334.361 311.572C324.99 321.176 271.887 363.959 264.598 373.127C257.309 382.295 250.02 394.082 246.787 395.828C244.746 396.928 236.224 395.776 228.638 394.313C224.182 393.457 220.053 392.497 217.742 391.82C215.868 391.27 213.717 390.585 211.619 389.716C211.562 389.689 211.5 389.716 211.442 389.716H211.619C216.721 389.716 222.094 388.843 226.978 387.533H226.983C230.507 386.66 233.772 385.796 236.484 384.84C246.376 381.347 241.69 370.905 245.855 366.103C250.02 361.3 283.34 348.662 288.026 339.931C292.711 331.2 257.309 340.377 257.309 333.828C257.309 327.28 303.124 320.736 316.66 304.544C330.196 288.356 339.568 254.379 348.418 253.942C357.269 253.505 357.789 277.079 357.789 277.079Z" fill="url(#paint41_linear)"/>
<path d="M498.889 387.097C484.92 397.164 471.983 401.94 459.587 403.433C454.12 402.678 449.872 402.136 447.639 402.472C445.775 402.752 442.891 403.005 439.346 403.228C432.035 402.293 424.83 400.543 417.61 398.447C392.042 391.021 386.424 345.187 383.082 335.583C381.01 329.611 371.737 308.455 365.022 293.302C369.775 294.912 376.881 298.204 382.259 304.548C391.11 314.99 402.043 305.897 413.497 289.744C420.67 279.624 412.117 253.234 404.724 234.925C433.212 264.808 463.955 313.178 475.971 331.654C491.589 355.664 498.889 387.097 498.889 387.097Z" fill="url(#paint42_linear)"/>
<path opacity="0.3" d="M464.704 402.629C462.986 402.961 461.284 403.228 459.586 403.433C452.699 404.262 445.983 404.079 439.345 403.228C432.035 402.293 424.829 400.543 417.609 398.447C392.041 391.021 386.424 345.187 383.081 335.583C381.009 329.61 371.737 308.455 365.021 293.302C360.928 284.077 357.789 277.079 357.789 277.079C357.789 277.079 343.732 301.968 334.361 311.572C324.99 321.176 271.887 363.959 264.598 373.127C257.309 382.294 250.02 394.082 246.787 395.828C244.746 396.928 236.224 395.775 228.638 394.313C224.182 393.457 220.053 392.497 217.742 391.82C216.727 391.523 215.633 391.165 214.509 390.759C221.589 383.639 238.848 365.831 243.773 356.537C250.02 344.75 284.012 330.204 288.026 324.681C292.04 319.155 333.841 249.58 353.104 242.159C372.367 234.737 372.887 240.89 383.82 263.569C394.754 286.253 430.677 347.99 439.787 359.467C448.039 369.866 461.56 396.142 464.704 402.629Z" fill="url(#paint43_linear)"/>
<path d="M203.982 379.621C203.982 379.621 204.31 379.755 204.921 379.994" stroke="#342E4F" stroke-width="2" stroke-miterlimit="10"/>
<path d="M206.817 380.719C214.117 383.452 234.092 390.336 249.9 390.26" stroke="#342E4F" stroke-width="2" stroke-miterlimit="10" stroke-dasharray="4.01 4.01"/>
<path d="M250.949 390.243C251.298 390.235 251.644 390.223 251.989 390.208" stroke="#342E4F" stroke-width="2" stroke-miterlimit="10"/>
<path opacity="0.5" d="M357.784 209.993C357.618 210.255 351.125 220.388 345.987 224.696C340.781 229.062 296.356 277.376 289.067 287.854C281.778 298.331 237.083 352.32 225.416 354.429C233.084 347.082 271.366 302.404 291.15 280.14C308.054 261.114 334.668 224.081 357.784 209.993Z" fill="url(#paint44_linear)"/>
<path opacity="0.7" d="M422.867 328.365C422.867 328.365 435.362 310.622 456.707 304.548L474.929 321.571L422.867 328.365Z" fill="#190334"/>
<path d="M336.704 421.585C337.157 423.1 328.285 422.864 320.726 422.393C315.223 422.052 310.412 421.585 310.412 421.585L285.943 419.839L257.309 417.656L310.412 387.097C310.412 387.097 321.507 389.118 330.238 390.41C334.329 391.017 337.906 391.462 339.567 391.462C344.773 391.462 362.995 396.264 362.995 396.264C362.995 396.264 335.923 418.966 336.704 421.585Z" fill="#A3D4E5"/>
<path d="M500.286 324.681C500.286 324.681 514.115 325.454 520.106 333.185C526.099 340.915 521.489 369.517 523.333 377.633C525.177 385.75 533.474 412.805 530.708 421.309C527.942 429.812 509.044 437.156 485.536 433.677C462.028 430.199 473.091 382.902 474.935 381.814C476.779 380.725 500.286 324.681 500.286 324.681Z" fill="#39335D"/>
<path d="M518.662 356.974C518.662 356.974 514.115 325.454 520.107 333.185C526.099 340.915 521.49 369.517 523.334 377.633C525.177 385.75 533.474 412.805 530.708 421.309C527.943 429.812 509.045 437.156 485.536 433.677C462.029 430.199 511.612 383.744 513.455 382.655C515.299 381.566 518.662 356.974 518.662 356.974Z" fill="url(#paint45_linear)"/>
<path d="M334.621 385.35L315.879 398.011L302.603 407.615H283.6L262.515 401.94L268.763 398.447C268.763 398.447 281.778 393.209 286.985 389.716C289.994 387.699 294.247 384.765 297.298 382.657C299.526 381.111 301.114 380.007 301.114 380.007L334.621 385.35Z" fill="#EFF0CD"/>
<path d="M485.537 433.677C493.374 430.199 506.741 426.72 506.279 401.983C505.819 377.247 503.053 361.4 504.436 351.737C505.819 342.074 510.428 331.638 500.287 324.68C490.146 317.723 448.662 308.833 429.764 322.362C410.866 335.889 403.952 351.023 402.108 369.159C400.264 387.295 397.038 410.486 391.507 419.376C385.975 428.265 385.975 435.995 412.71 436.382C439.444 436.769 485.537 433.677 485.537 433.677Z" fill="#6171A2"/>
<path opacity="0.5" d="M498.889 335.562C498.889 335.562 482.739 348.046 482.218 375.866C481.698 403.686 482.218 418.59 482.218 418.59C482.218 418.59 486.683 415.763 490.438 412.126C494.193 408.488 496.637 397.858 495.936 382.654C495.235 367.451 493.098 345.848 498.889 335.562Z" fill="url(#paint46_linear)"/>
<path d="M491.069 346.353C489.684 356.014 485.399 375.637 485.863 400.373C486.321 425.112 493.376 430.198 485.535 433.678C485.535 433.678 439.444 436.769 412.71 436.384C385.976 435.995 385.976 428.264 391.505 419.376C393.822 415.656 395.733 409.427 397.31 402.114C399.496 391.955 401.033 379.706 402.105 369.158C403.953 351.024 410.867 335.888 429.766 322.364C440.184 314.903 457.474 314.261 472.587 316.352C484.884 318.05 495.74 321.56 500.289 324.682C510.426 331.636 492.449 336.687 491.069 346.353Z" fill="url(#paint47_linear)"/>
<path d="M472.587 316.352C472.53 316.597 472.472 316.841 472.41 317.09C468.209 334.534 458.202 369.18 440.944 390.41C430.344 403.45 413.179 404.856 397.31 402.114C399.496 391.955 401.033 379.706 402.105 369.159C402.912 361.239 404.682 353.892 407.998 347.003C412.278 338.11 419.118 329.982 429.766 322.364C440.183 314.903 457.474 314.261 472.587 316.352Z" fill="url(#paint48_linear)"/>
<path opacity="0.8" d="M472.587 316.352C472.53 316.597 472.472 316.841 472.41 317.09C464.637 321.988 449.669 332.614 443.224 345.318C434.321 362.868 422.857 366.142 422.857 366.142H410.893C410.893 366.142 412.538 355.682 415.62 350.762C417.499 347.758 412.32 347.078 407.998 347.003C412.278 338.111 419.118 329.982 429.766 322.364C440.183 314.903 457.474 314.261 472.587 316.352Z" fill="url(#paint49_linear)"/>
<path d="M470.057 394.85C468.515 400.888 465.465 406.982 464.106 413.578C462.029 423.628 458.332 430.958 439.902 433.678C436.789 434.136 433.447 434.551 430 434.904C413.074 436.642 393.634 436.886 385.976 433.678C376.755 429.814 371.227 420.663 377.219 409.2C382.498 399.094 387.189 390.384 388.324 383.696C388.48 382.797 388.569 381.937 388.589 381.112C388.74 374.153 391.047 369.578 399.804 369.163C408.56 368.744 440.157 370.739 447.633 369.163C455.114 367.583 457.421 371.355 457.421 371.355C462.95 373.381 469.406 376.087 470.785 385.364C471.259 388.551 470.863 391.694 470.057 394.85Z" fill="#6171A2"/>
<path d="M470.057 394.85C466.939 393.113 463.153 390.694 459.265 387.892C457.541 386.652 455.579 385.835 453.356 385.337C444.869 383.43 432.546 386.154 415.012 387.682C407.338 388.354 400.277 387.35 394.275 385.674C392.151 385.084 390.162 384.411 388.324 383.696C388.481 382.797 388.569 381.937 388.59 381.111C388.741 374.153 391.047 369.578 399.804 369.163C406.744 368.831 428.042 370.014 440.294 369.735C443.495 369.661 446.082 369.486 447.634 369.163C455.115 367.583 457.422 371.355 457.422 371.355C462.951 373.38 469.407 376.087 470.787 385.364C471.259 388.55 470.863 391.694 470.057 394.85Z" fill="#39335D"/>
<path d="M495.927 322.368C495.776 328.423 493.37 328.79 491.486 328.126C490.247 327.689 489.226 326.807 489.226 326.807C489.226 326.807 491.069 313.086 485.306 311.344C479.543 309.607 467.563 307.869 464.793 309.218C462.029 310.572 458.343 314.265 458.343 315.317C458.343 316.369 450.044 316.95 450.044 316.95C450.044 316.95 455.579 304.971 461.108 304.582C464.569 304.337 471.379 305.464 477.288 306.333C480.813 306.857 484.02 307.289 485.998 307.289C491.298 307.289 496.177 312.327 495.927 322.368Z" fill="#D9E3C2"/>
<path d="M456.707 345.554V359.467C456.707 359.467 446.415 357.105 439.959 356.669C438.365 356.559 437.007 356.569 436.096 356.76C435.846 356.813 435.581 356.861 435.31 356.896C433.373 357.188 430.937 357.189 428.734 357.079C427.016 357 425.444 356.857 424.361 356.743C423.434 356.647 422.867 356.569 422.867 356.569V342.655C422.867 342.655 427.766 342.179 433.243 342.074C435.836 342.026 438.553 342.057 440.943 342.262C442.021 342.358 443.031 342.485 443.931 342.655C444.218 342.712 444.505 342.764 444.79 342.821C447.144 343.279 449.314 343.751 451.136 344.17C454.516 344.951 456.707 345.554 456.707 345.554Z" fill="#D9E3C2"/>
<path opacity="0.4" d="M302.603 407.615L332.279 390.706L327.7 390.026L302.603 407.615Z" fill="#190334"/>
<path opacity="0.3" d="M334.622 385.35L315.88 398.011L302.604 407.615H292.712C300.349 404.559 305.556 396.557 305.035 390.882C304.514 385.206 297.298 382.657 297.298 382.657C299.527 381.111 301.115 380.007 301.115 380.007L334.622 385.35Z" fill="url(#paint50_linear)"/>
<path opacity="0.3" d="M336.704 421.585C337.157 423.1 328.286 422.864 320.727 422.393C324.803 418.494 331.436 411.392 333.32 404.921C336.095 395.391 323.205 393.065 323.205 393.065L330.238 390.41C334.33 391.018 337.907 391.462 339.568 391.462C344.774 391.462 362.996 396.265 362.996 396.265C362.996 396.265 335.924 418.966 336.704 421.585Z" fill="url(#paint51_linear)"/>
<path d="M287.158 410.38L330.37 413.872" stroke="#342E4F" stroke-width="2" stroke-miterlimit="10"/>
<path d="M308.764 408.779L332.279 410.38" stroke="#342E4F" stroke-width="2" stroke-miterlimit="10"/>
<path d="M313.667 404.923L335.229 408.779" stroke="#342E4F" stroke-width="2" stroke-miterlimit="10"/>
<path d="M318.396 400.373L337.485 405.723" stroke="#342E4F" stroke-width="2" stroke-miterlimit="10"/>
<path d="M324.448 397.428L339.606 402.471" stroke="#342E4F" stroke-width="2" stroke-miterlimit="10"/>
<path d="M330.37 394.852L345.989 398.821" stroke="#342E4F" stroke-width="2" stroke-miterlimit="10"/>
<path d="M278.308 398.821L284.616 401.212L292.712 396.265L285.51 394.372L278.308 398.821Z" fill="#6BA6C6"/>
<path d="M297.571 397.792L304.165 398.821L317.441 390.41L310.152 388.115L297.571 397.792Z" fill="url(#paint52_linear)"/>
<path d="M280.418 415.955C281.683 415.091 282.452 413.841 283.708 412.965C284.321 412.537 283.443 411.81 282.836 412.233C281.579 413.109 280.81 414.359 279.544 415.223C278.927 415.644 279.806 416.372 280.418 415.955Z" fill="#ED7625"/>
<path d="M275.836 415.743C277.091 416.059 278.421 416.001 279.675 416.317C280.44 416.509 280.763 415.511 280.003 415.319C278.748 415.002 277.418 415.061 276.164 414.745C275.4 414.552 275.076 415.551 275.836 415.743Z" fill="#ED7625"/>
<path d="M278.034 414.247C278.951 414.476 279.828 414.808 280.777 414.937C281.555 415.043 281.889 414.046 281.105 413.939C280.156 413.81 279.279 413.478 278.362 413.249C277.597 413.059 277.273 414.058 278.034 414.247Z" fill="#ED7625"/>
<path d="M283.447 410.312C280.917 409.173 278.081 409.832 276.325 411.686C274.803 413.292 274.642 415.71 276.72 417.043C279.103 418.571 282.518 418.725 284.618 416.774C286.762 414.782 285.837 411.949 283.708 410.278C283.128 409.823 282.254 410.553 282.836 411.01C284.456 412.282 285.19 414.049 284.005 415.739C282.691 417.613 279.867 417.398 277.909 416.485C275.893 415.544 276.121 413.555 277.384 412.221C278.715 410.816 280.93 410.354 282.824 411.206C283.525 411.521 284.148 410.628 283.447 410.312Z" fill="#ED7625"/>
<path d="M470.057 394.85C468.516 400.888 465.465 406.982 464.106 413.578C462.029 423.628 458.332 430.958 439.903 433.678C436.79 434.136 433.447 434.551 430 434.904C448.107 423.881 453.449 395.282 452.564 391.755C452.184 390.236 452.611 387.952 453.356 385.337C454.61 380.928 456.755 375.572 457.422 371.355C462.951 373.38 469.407 376.087 470.786 385.364C471.259 388.55 470.863 391.694 470.057 394.85Z" fill="url(#paint53_linear)"/>
<g opacity="0.3">
<path opacity="0.3" d="M440.944 342.262C437.054 346.134 432.27 353.338 428.735 357.079C427.017 357 425.445 356.856 424.362 356.742C425.508 353.302 429.86 347.531 431.958 344.894C432.739 343.916 433.114 342.96 433.244 342.074C435.836 342.026 438.554 342.057 440.944 342.262Z" fill="url(#paint54_linear)"/>
<path opacity="0.3" d="M439.96 356.669C443.157 352.792 447.087 347.239 451.138 344.17C449.316 343.751 447.145 343.279 444.791 342.821C442.667 346.567 437.685 352.805 435.311 356.896L439.96 356.669Z" fill="url(#paint55_linear)"/>
</g>
<path d="M495.926 322.368C495.775 328.423 493.37 328.79 491.485 328.126C493.427 321.232 490.35 312.27 488.294 309.681C487.503 308.686 482.807 307.463 477.288 306.333C480.813 306.857 484.02 307.289 485.998 307.289C491.297 307.289 496.177 312.327 495.926 322.368Z" fill="url(#paint56_linear)"/>
<path d="M393.19 393.811C393.19 393.811 391.275 400.339 388.588 404.923C385.902 409.507 380.001 419.984 389.719 421.44C399.438 422.895 423.423 427.552 429.999 422.75C436.575 417.947 438.487 408.617 439.787 403.969C441.088 399.32 440.943 394.372 440.943 394.372C440.943 394.372 407.768 398.488 393.19 393.811Z" fill="url(#paint57_linear)"/>
<path d="M393.191 393.811L391.451 398.821C391.451 398.821 399.179 399.681 407.248 400.374C415.318 401.067 420.524 401.427 425.991 400.374C431.457 399.321 438.746 400.374 438.746 400.374L439.787 393.468C439.787 393.468 428.073 394.968 421.566 394.853C415.058 394.737 393.191 393.811 393.191 393.811Z" fill="url(#paint58_linear)"/>
<path d="M433.788 399.949L432.653 409.34C432.653 409.34 431.978 409.361 430 408.779C428.022 408.196 431.955 399.906 431.955 399.906" fill="#D9E3C2"/>
<path d="M499.658 324.459C499.658 324.459 504.973 330.417 503.341 339.148C501.71 347.879 500.609 374.51 501.688 379.803C502.767 385.096 501.704 388.406 501.704 388.406H505.646" stroke="#D9E3C2" stroke-width="2" stroke-miterlimit="10" stroke-dasharray="4 4"/>
<path d="M440.293 369.735C440.293 369.735 414.995 377.732 407.998 375.864C401.001 374 394.842 382.941 394.275 385.674C392.151 385.084 390.162 384.411 388.324 383.696C388.48 382.797 388.569 381.937 388.589 381.111C388.74 374.153 391.047 369.578 399.804 369.163C406.743 368.831 428.042 370.014 440.293 369.735Z" fill="url(#paint59_linear)"/>
<path d="M298.438 93.7285V106.825H307.81L298.438 93.7285Z" fill="url(#paint60_linear)"/>
<path d="M323.6 108.716L317.53 108.816L305.899 109.008C300.693 104.935 298.61 93.5844 298.61 93.5844L304.405 93.4927L317.181 93.2919C317.009 98.5307 323.6 108.716 323.6 108.716Z" fill="#E0E4CE"/>
<path d="M307.981 129.09L305.425 129.186L302.489 129.295L300 129.391L296.356 129.526V116.43L303.702 117.403L306.247 117.739L307.981 129.09Z" fill="#858A00"/>
<path d="M335.408 137.821L315.619 138.258L315.442 136.511L313.885 120.939L329.155 121.162L334.012 121.232L335.408 137.821Z" fill="#AF4F55"/>
<path d="M302.234 124.943L302.489 129.295L300.001 129.391V124.724L302.234 124.943Z" fill="#AF4F55"/>
<path d="M307.982 129.09L305.425 129.186L303.702 117.403L306.248 117.739L307.982 129.09Z" fill="#AF4F55"/>
<path d="M307.981 129.09L305.425 129.186L302.489 129.295L300 129.391L296.356 129.526V116.43L303.702 117.403L306.247 117.739L307.981 129.09Z" fill="url(#paint61_linear)"/>
<path d="M317.53 108.815L305.899 109.007C300.693 104.934 298.61 93.5832 298.61 93.5832L304.405 93.4915C305.373 97.4511 308.476 105.92 317.53 108.815Z" fill="url(#paint62_linear)"/>
<path d="M335.408 137.821L315.619 138.258L315.442 136.511H327.983L328.114 134.765H321.346V132.582H329.155V121.162L334.012 121.232L335.408 137.821Z" fill="url(#paint63_linear)"/>
<path d="M326.162 123.524C322.53 123.299 318.777 124.773 318.315 128.105C317.846 131.49 320.722 134.135 324.523 134.851C328.067 135.518 331.794 133.939 332.191 130.741C332.516 128.122 330.197 123.742 326.552 123.742C325.511 123.742 325.511 125.051 326.552 125.051C329.156 125.051 330.758 128.618 330.67 130.411C330.522 133.43 326.84 134.069 323.967 133.372C321.344 132.735 319.712 130.652 319.849 128.421C320.022 125.635 323.344 124.658 326.17 124.833C327.176 124.896 327.16 123.586 326.162 123.524Z" fill="#B0C8BE"/>
<path d="M321.346 127.78C321.346 127.78 321.346 127.78 321.346 128.217C321.346 129.09 322.908 129.09 322.908 128.217C322.908 127.78 322.908 127.78 322.908 127.78C322.908 126.907 321.346 126.907 321.346 127.78C321.346 126.907 321.346 127.78 321.346 127.78Z" fill="#B0C8BE"/>
<path d="M327.069 128.018C327.251 128.101 327.34 128.177 327.439 128.328C327.643 128.641 328.149 128.74 328.508 128.564C328.883 128.38 328.992 127.981 328.788 127.668C328.577 127.343 328.245 127.064 327.857 126.887C327.483 126.716 327.008 126.808 326.789 127.122C326.579 127.423 326.696 127.847 327.069 128.018Z" fill="#B0C8BE"/>
<path d="M323.981 132.063C325.107 131.186 326.857 130.897 328.241 131.511C329.13 131.906 329.92 130.775 329.029 130.38C327.01 129.484 324.532 129.848 322.877 131.137C322.137 131.713 323.244 132.637 323.981 132.063Z" fill="#B0C8BE"/>
<path d="M303.79 98.0941L304.686 100.277H315.619L313.885 97.0424L303.79 98.0941Z" stroke="#342E4F" stroke-width="2" stroke-miterlimit="10"/>
<path opacity="0.5" d="M305.927 102.896L307.981 106.825H317.701L315.619 102.46L305.927 102.896Z" fill="url(#paint64_linear)"/>
<path opacity="0.7" d="M329.507 118.321L338.18 126.907L336.965 125.597L337.139 127.125L335.408 126.802L336.618 128.651L326.686 119.777L328.89 119.922L329.507 118.321Z" fill="url(#paint65_linear)"/>
<path d="M104.752 275.239C124.806 275.239 141.063 261.607 141.063 244.791C141.063 227.975 124.806 214.343 104.752 214.343C84.6975 214.343 68.4403 227.975 68.4403 244.791C68.4403 261.607 84.6975 275.239 104.752 275.239Z" fill="#EF703F"/>
<path d="M141.063 244.791C141.063 259.124 129.251 271.141 113.35 274.377C110.939 274.869 108.441 275.161 105.867 275.225C105.497 275.234 105.123 275.239 104.752 275.239C84.6968 275.239 68.4403 261.608 68.4403 244.791C68.4403 227.974 84.6968 214.343 104.752 214.343C114.274 214.343 122.936 217.416 129.414 222.44C134.853 226.664 138.75 232.271 140.308 238.59C140.802 240.592 141.063 242.667 141.063 244.791Z" fill="url(#paint66_linear)"/>
<path d="M141.064 244.791C141.064 259.124 131.14 271.141 117.785 274.377C115.76 274.869 113.662 275.161 111.499 275.225C111.187 275.234 110.874 275.239 110.561 275.239C93.7165 275.239 80.0601 261.608 80.0601 244.791C80.0601 227.974 93.716 214.343 110.561 214.343C118.56 214.343 125.836 217.416 131.278 222.44C135.845 226.664 139.12 232.271 140.429 238.59C140.844 240.592 141.064 242.667 141.064 244.791Z" fill="url(#paint67_linear)"/>
<path opacity="0.2" d="M141.063 244.791C141.063 259.124 129.25 271.141 113.35 274.376C112.857 272.375 112.594 270.299 112.594 268.175C112.594 253.842 124.401 241.824 140.307 238.59C140.802 240.592 141.063 242.667 141.063 244.791Z" fill="url(#paint68_linear)"/>
<defs>
<linearGradient id="paint0_linear" x1="183.742" y1="284.878" x2="157.487" y2="179.316" gradientUnits="userSpaceOnUse">
<stop stop-color="#EE782C" stop-opacity="0"/>
<stop offset="1" stop-color="#EE782C"/>
</linearGradient>
<linearGradient id="paint1_linear" x1="204.103" y1="259.472" x2="304.258" y2="178.383" gradientUnits="userSpaceOnUse">
<stop stop-color="#F2F2F2" stop-opacity="0"/>
<stop offset="1" stop-color="#F2F2F2"/>
</linearGradient>
<linearGradient id="paint2_linear" x1="473.03" y1="136.227" x2="502.99" y2="218.677" gradientUnits="userSpaceOnUse">
<stop stop-color="#575581" stop-opacity="0"/>
<stop offset="1" stop-color="#130030"/>
</linearGradient>
<linearGradient id="paint3_linear" x1="500.608" y1="169.432" x2="456.409" y2="296.756" gradientUnits="userSpaceOnUse">
<stop stop-color="#F2F2F2" stop-opacity="0"/>
<stop offset="1" stop-color="#F2F2F2"/>
</linearGradient>
<linearGradient id="paint4_linear" x1="487.955" y1="124.997" x2="486.491" y2="264.703" gradientUnits="userSpaceOnUse">
<stop stop-color="#EE782C" stop-opacity="0"/>
<stop offset="1" stop-color="#EE782C"/>
</linearGradient>
<linearGradient id="paint5_linear" x1="506.677" y1="181.507" x2="438.905" y2="86.7155" gradientUnits="userSpaceOnUse">
<stop stop-color="#F2F2F2" stop-opacity="0"/>
<stop offset="1" stop-color="#F2F2F2"/>
</linearGradient>
<linearGradient id="paint6_linear" x1="283.796" y1="409.656" x2="144.331" y2="467.274" gradientUnits="userSpaceOnUse">
<stop stop-color="#F2F2F2" stop-opacity="0"/>
<stop offset="1" stop-color="#F2F2F2"/>
</linearGradient>
<linearGradient id="paint7_linear" x1="336.735" y1="400.495" x2="465.704" y2="206.269" gradientUnits="userSpaceOnUse">
<stop stop-color="#F2F2F2" stop-opacity="0"/>
<stop offset="1" stop-color="#F2F2F2"/>
</linearGradient>
<linearGradient id="paint8_linear" x1="265.709" y1="417.002" x2="414.038" y2="366.461" gradientUnits="userSpaceOnUse">
<stop stop-color="#575581" stop-opacity="0"/>
<stop offset="1" stop-color="#130030"/>
</linearGradient>
<linearGradient id="paint9_linear" x1="172.709" y1="263.372" x2="172.709" y2="130.905" gradientUnits="userSpaceOnUse">
<stop stop-color="#575581" stop-opacity="0"/>
<stop offset="1" stop-color="#130030"/>
</linearGradient>
<linearGradient id="paint10_linear" x1="315.619" y1="263.372" x2="315.619" y2="130.905" gradientUnits="userSpaceOnUse">
<stop stop-color="#575581" stop-opacity="0"/>
<stop offset="1" stop-color="#130030"/>
</linearGradient>
<linearGradient id="paint11_linear" x1="142.097" y1="227.824" x2="194.761" y2="227.824" gradientUnits="userSpaceOnUse">
<stop stop-color="#575581" stop-opacity="0"/>
<stop offset="1" stop-color="#130030"/>
</linearGradient>
<linearGradient id="paint12_linear" x1="167.706" y1="196.52" x2="199.728" y2="196.52" gradientUnits="userSpaceOnUse">
<stop stop-color="#575581" stop-opacity="0"/>
<stop offset="1" stop-color="#130030"/>
</linearGradient>
<linearGradient id="paint13_linear" x1="215.821" y1="186.905" x2="213.804" y2="219.263" gradientUnits="userSpaceOnUse">
<stop stop-color="#575581" stop-opacity="0"/>
<stop offset="1" stop-color="#130030"/>
</linearGradient>
<linearGradient id="paint14_linear" x1="247.158" y1="152.71" x2="247.158" y2="265.999" gradientUnits="userSpaceOnUse">
<stop stop-color="#575581" stop-opacity="0"/>
<stop offset="1" stop-color="#130030"/>
</linearGradient>
<linearGradient id="paint15_linear" x1="362.215" y1="152.71" x2="362.215" y2="265.999" gradientUnits="userSpaceOnUse">
<stop stop-color="#575581" stop-opacity="0"/>
<stop offset="1" stop-color="#130030"/>
</linearGradient>
<linearGradient id="paint16_linear" x1="384.914" y1="125.993" x2="453.076" y2="333.061" gradientUnits="userSpaceOnUse">
<stop stop-color="#EE782C" stop-opacity="0"/>
<stop offset="1" stop-color="#EE782C"/>
</linearGradient>
<linearGradient id="paint17_linear" x1="312.794" y1="164.987" x2="453.723" y2="355.629" gradientUnits="userSpaceOnUse">
<stop stop-color="#F2F2F2" stop-opacity="0"/>
<stop offset="1" stop-color="#F2F2F2"/>
</linearGradient>
<linearGradient id="paint18_linear" x1="295.766" y1="124.066" x2="339.481" y2="183.202" gradientUnits="userSpaceOnUse">
<stop stop-color="#F2F2F2" stop-opacity="0"/>
<stop offset="1" stop-color="#F2F2F2"/>
</linearGradient>
<linearGradient id="paint19_linear" x1="308.418" y1="153.065" x2="367.52" y2="233.014" gradientUnits="userSpaceOnUse">
<stop stop-color="#F2F2F2" stop-opacity="0"/>
<stop offset="1" stop-color="#F2F2F2"/>
</linearGradient>
<linearGradient id="paint20_linear" x1="176.908" y1="169.36" x2="268.807" y2="356.427" gradientUnits="userSpaceOnUse">
<stop stop-color="#F2F2F2" stop-opacity="0"/>
<stop offset="1" stop-color="#F2F2F2"/>
</linearGradient>
<linearGradient id="paint21_linear" x1="145.788" y1="168.014" x2="194.201" y2="233.505" gradientUnits="userSpaceOnUse">
<stop stop-color="#F2F2F2" stop-opacity="0"/>
<stop offset="1" stop-color="#F2F2F2"/>
</linearGradient>
<linearGradient id="paint22_linear" x1="175.733" y1="170.599" x2="235.051" y2="250.841" gradientUnits="userSpaceOnUse">
<stop stop-color="#F2F2F2" stop-opacity="0"/>
<stop offset="1" stop-color="#F2F2F2"/>
</linearGradient>
<linearGradient id="paint23_linear" x1="447.152" y1="211.709" x2="452.872" y2="228.08" gradientUnits="userSpaceOnUse">
<stop stop-color="#575581" stop-opacity="0"/>
<stop offset="1" stop-color="#130030"/>
</linearGradient>
<linearGradient id="paint24_linear" x1="332.256" y1="216.267" x2="388.588" y2="216.267" gradientUnits="userSpaceOnUse">
<stop stop-color="#575581" stop-opacity="0"/>
<stop offset="1" stop-color="#130030"/>
</linearGradient>
<linearGradient id="paint25_linear" x1="426.455" y1="195.205" x2="410.499" y2="233.262" gradientUnits="userSpaceOnUse">
<stop stop-color="#EE782C" stop-opacity="0"/>
<stop offset="1" stop-color="#EE782C"/>
</linearGradient>
<linearGradient id="paint26_linear" x1="484.323" y1="280.194" x2="477.345" y2="359.903" gradientUnits="userSpaceOnUse">
<stop stop-color="#575581" stop-opacity="0"/>
<stop offset="1" stop-color="#130030"/>
</linearGradient>
<linearGradient id="paint27_linear" x1="463.345" y1="231.795" x2="484.384" y2="380.571" gradientUnits="userSpaceOnUse">
<stop stop-color="#575581" stop-opacity="0"/>
<stop offset="1" stop-color="#130030"/>
</linearGradient>
<linearGradient id="paint28_linear" x1="387.112" y1="217.428" x2="414.565" y2="253.694" gradientUnits="userSpaceOnUse">
<stop stop-color="#575581" stop-opacity="0"/>
<stop offset="1" stop-color="#130030"/>
</linearGradient>
<linearGradient id="paint29_linear" x1="179.382" y1="390.136" x2="189.442" y2="411.308" gradientUnits="userSpaceOnUse">
<stop stop-color="#575581" stop-opacity="0"/>
<stop offset="1" stop-color="#130030"/>
</linearGradient>
<linearGradient id="paint30_linear" x1="453.583" y1="221.828" x2="489.22" y2="310.983" gradientUnits="userSpaceOnUse">
<stop stop-color="#575581" stop-opacity="0"/>
<stop offset="1" stop-color="#130030"/>
</linearGradient>
<linearGradient id="paint31_linear" x1="249.277" y1="197.102" x2="284.938" y2="384.492" gradientUnits="userSpaceOnUse">
<stop stop-color="#575581" stop-opacity="0"/>
<stop offset="1" stop-color="#130030"/>
</linearGradient>
<linearGradient id="paint32_linear" x1="189.051" y1="304.61" x2="406.212" y2="304.61" gradientUnits="userSpaceOnUse">
<stop stop-color="#575581" stop-opacity="0"/>
<stop offset="1" stop-color="#130030"/>
</linearGradient>
<linearGradient id="paint33_linear" x1="189.051" y1="353.831" x2="285.522" y2="353.831" gradientUnits="userSpaceOnUse">
<stop stop-color="#575581" stop-opacity="0"/>
<stop offset="1" stop-color="#130030"/>
</linearGradient>
<linearGradient id="paint34_linear" x1="460.03" y1="177.461" x2="363.02" y2="151.887" gradientUnits="userSpaceOnUse">
<stop stop-color="#F2F2F2" stop-opacity="0"/>
<stop offset="1" stop-color="#F2F2F2"/>
</linearGradient>
<linearGradient id="paint35_linear" x1="451.137" y1="214.77" x2="475.023" y2="274.526" gradientUnits="userSpaceOnUse">
<stop stop-color="#575581" stop-opacity="0"/>
<stop offset="1" stop-color="#130030"/>
</linearGradient>
<linearGradient id="paint36_linear" x1="462.704" y1="209.224" x2="425.713" y2="217.189" gradientUnits="userSpaceOnUse">
<stop stop-color="#F2F2F2" stop-opacity="0"/>
<stop offset="1" stop-color="#F2F2F2"/>
</linearGradient>
<linearGradient id="paint37_linear" x1="491.353" y1="212.089" x2="478.858" y2="183.22" gradientUnits="userSpaceOnUse">
<stop stop-color="#F2F2F2" stop-opacity="0"/>
<stop offset="1" stop-color="#F2F2F2"/>
</linearGradient>
<linearGradient id="paint38_linear" x1="431.993" y1="268.96" x2="443.517" y2="350.452" gradientUnits="userSpaceOnUse">
<stop stop-color="#575581" stop-opacity="0"/>
<stop offset="1" stop-color="#130030"/>
</linearGradient>
<linearGradient id="paint39_linear" x1="270.041" y1="139.909" x2="311.931" y2="268.886" gradientUnits="userSpaceOnUse">
<stop stop-color="#EE782C" stop-opacity="0"/>
<stop offset="1" stop-color="#EE782C"/>
</linearGradient>
<linearGradient id="paint40_linear" x1="198.422" y1="404.16" x2="244.569" y2="379.25" gradientUnits="userSpaceOnUse">
<stop stop-color="#575581" stop-opacity="0"/>
<stop offset="1" stop-color="#130030"/>
</linearGradient>
<linearGradient id="paint41_linear" x1="211.442" y1="325.1" x2="357.789" y2="325.1" gradientUnits="userSpaceOnUse">
<stop stop-color="#575581" stop-opacity="0"/>
<stop offset="1" stop-color="#130030"/>
</linearGradient>
<linearGradient id="paint42_linear" x1="365.021" y1="319.179" x2="498.888" y2="319.179" gradientUnits="userSpaceOnUse">
<stop stop-color="#575581" stop-opacity="0"/>
<stop offset="1" stop-color="#130030"/>
</linearGradient>
<linearGradient id="paint43_linear" x1="214.509" y1="321.571" x2="464.704" y2="321.571" gradientUnits="userSpaceOnUse">
<stop stop-color="#575581" stop-opacity="0"/>
<stop offset="1" stop-color="#130030"/>
</linearGradient>
<linearGradient id="paint44_linear" x1="225.416" y1="282.211" x2="357.784" y2="282.211" gradientUnits="userSpaceOnUse">
<stop stop-color="#F2F2F2" stop-opacity="0"/>
<stop offset="1" stop-color="#F2F2F2"/>
</linearGradient>
<linearGradient id="paint45_linear" x1="551.268" y1="435.042" x2="494.853" y2="351.932" gradientUnits="userSpaceOnUse">
<stop stop-color="#575581" stop-opacity="0"/>
<stop offset="1" stop-color="#130030"/>
</linearGradient>
<linearGradient id="paint46_linear" x1="482.633" y1="342.314" x2="500.02" y2="450.843" gradientUnits="userSpaceOnUse">
<stop stop-color="#F2F2F2" stop-opacity="0"/>
<stop offset="1" stop-color="#F2F2F2"/>
</linearGradient>
<linearGradient id="paint47_linear" x1="448.503" y1="347.979" x2="442.638" y2="447.369" gradientUnits="userSpaceOnUse">
<stop stop-color="#575581" stop-opacity="0"/>
<stop offset="1" stop-color="#130030"/>
</linearGradient>
<linearGradient id="paint48_linear" x1="436.697" y1="338.408" x2="432.39" y2="411.388" gradientUnits="userSpaceOnUse">
<stop stop-color="#575581" stop-opacity="0"/>
<stop offset="1" stop-color="#130030"/>
</linearGradient>
<linearGradient id="paint49_linear" x1="429.383" y1="342.415" x2="520.261" y2="307.484" gradientUnits="userSpaceOnUse">
<stop stop-color="#EE782C" stop-opacity="0"/>
<stop offset="1" stop-color="#EE782C"/>
</linearGradient>
<linearGradient id="paint50_linear" x1="318.933" y1="367.777" x2="313.773" y2="407.779" gradientUnits="userSpaceOnUse">
<stop stop-color="#575581" stop-opacity="0"/>
<stop offset="1" stop-color="#130030"/>
</linearGradient>
<linearGradient id="paint51_linear" x1="346.651" y1="375.308" x2="340.63" y2="421.982" gradientUnits="userSpaceOnUse">
<stop stop-color="#575581" stop-opacity="0"/>
<stop offset="1" stop-color="#130030"/>
</linearGradient>
<linearGradient id="paint52_linear" x1="297.571" y1="393.468" x2="317.441" y2="393.468" gradientUnits="userSpaceOnUse">
<stop stop-color="#575581" stop-opacity="0"/>
<stop offset="1" stop-color="#130030"/>
</linearGradient>
<linearGradient id="paint53_linear" x1="472.566" y1="430.838" x2="441.195" y2="384.625" gradientUnits="userSpaceOnUse">
<stop stop-color="#575581" stop-opacity="0"/>
<stop offset="1" stop-color="#130030"/>
</linearGradient>
<linearGradient id="paint54_linear" x1="437.254" y1="354.269" x2="430.547" y2="344.388" gradientUnits="userSpaceOnUse">
<stop stop-color="#575581" stop-opacity="0"/>
<stop offset="1" stop-color="#130030"/>
</linearGradient>
<linearGradient id="paint55_linear" x1="447.045" y1="354.49" x2="441.11" y2="345.747" gradientUnits="userSpaceOnUse">
<stop stop-color="#575581" stop-opacity="0"/>
<stop offset="1" stop-color="#130030"/>
</linearGradient>
<linearGradient id="paint56_linear" x1="486.774" y1="312.581" x2="485.775" y2="329.508" gradientUnits="userSpaceOnUse">
<stop stop-color="#575581" stop-opacity="0"/>
<stop offset="1" stop-color="#130030"/>
</linearGradient>
<linearGradient id="paint57_linear" x1="413.041" y1="401.315" x2="411.533" y2="426.877" gradientUnits="userSpaceOnUse">
<stop stop-color="#575581" stop-opacity="0"/>
<stop offset="1" stop-color="#130030"/>
</linearGradient>
<linearGradient id="paint58_linear" x1="415.761" y1="394.458" x2="415.338" y2="401.624" gradientUnits="userSpaceOnUse">
<stop stop-color="#575581" stop-opacity="0"/>
<stop offset="1" stop-color="#130030"/>
</linearGradient>
<linearGradient id="paint59_linear" x1="404.613" y1="375.122" x2="469.074" y2="350.345" gradientUnits="userSpaceOnUse">
<stop stop-color="#EE782C" stop-opacity="0"/>
<stop offset="1" stop-color="#EE782C"/>
</linearGradient>
<linearGradient id="paint60_linear" x1="304.4" y1="96.8002" x2="299.891" y2="114.275" gradientUnits="userSpaceOnUse">
<stop stop-color="#575581" stop-opacity="0"/>
<stop offset="1" stop-color="#130030"/>
</linearGradient>
<linearGradient id="paint61_linear" x1="302.168" y1="112.064" x2="302.168" y2="160.086" gradientUnits="userSpaceOnUse">
<stop stop-color="#575581" stop-opacity="0"/>
<stop offset="1" stop-color="#130030"/>
</linearGradient>
<linearGradient id="paint62_linear" x1="313.799" y1="108.387" x2="295.693" y2="87.1376" gradientUnits="userSpaceOnUse">
<stop stop-color="#575581" stop-opacity="0"/>
<stop offset="1" stop-color="#130030"/>
</linearGradient>
<linearGradient id="paint63_linear" x1="322.511" y1="125.672" x2="335.095" y2="157.301" gradientUnits="userSpaceOnUse">
<stop stop-color="#575581" stop-opacity="0"/>
<stop offset="1" stop-color="#130030"/>
</linearGradient>
<linearGradient id="paint64_linear" x1="305.927" y1="104.642" x2="317.701" y2="104.642" gradientUnits="userSpaceOnUse">
<stop stop-color="#F2F2F2" stop-opacity="0"/>
<stop offset="1" stop-color="#F2F2F2"/>
</linearGradient>
<linearGradient id="paint65_linear" x1="331.87" y1="111.775" x2="332.358" y2="126.043" gradientUnits="userSpaceOnUse">
<stop stop-color="#F2F2F2" stop-opacity="0"/>
<stop offset="1" stop-color="#F2F2F2"/>
</linearGradient>
<linearGradient id="paint66_linear" x1="68.4401" y1="244.791" x2="141.063" y2="244.791" gradientUnits="userSpaceOnUse">
<stop stop-color="#575581" stop-opacity="0"/>
<stop offset="1" stop-color="#575581"/>
</linearGradient>
<linearGradient id="paint67_linear" x1="127.627" y1="192.224" x2="86.7561" y2="371.274" gradientUnits="userSpaceOnUse">
<stop stop-color="#575581" stop-opacity="0"/>
<stop offset="1" stop-color="#575581"/>
</linearGradient>
<linearGradient id="paint68_linear" x1="159.504" y1="178.85" x2="98.6788" y2="384.373" gradientUnits="userSpaceOnUse">
<stop stop-color="#F2F2F2" stop-opacity="0"/>
<stop offset="1" stop-color="#F2F2F2"/>
</linearGradient>
</defs>
</svg>
