<?xml version="1.0" encoding="iso-8859-1"?>
<!-- Generator: Adobe Illustrator 19.0.0, SVG Export Plug-In . SVG Version: 6.00 Build 0)  -->
<svg version="1.1" id="Layer_1" xmlns="http://www.w3.org/2000/svg" xmlns:xlink="http://www.w3.org/1999/xlink" x="0px" y="0px"
	 viewBox="0 0 460 460" style="enable-background:new 0 0 460 460;" xml:space="preserve">
<g>
	<path style="fill:#096C80;" d="M230,0C102.975,0,0,102.974,0,230c0,98.324,61.697,182.237,148.489,215.139l299.127-289.785
		C416.619,64.969,330.897,0,230,0z"/>
	<path style="fill:#064855;" d="M460,230c0-26.129-4.366-51.236-12.393-74.643L346,53.75l-107.025,70.6l-49.663-49.663
		L88.688,385.313l59.811,59.811C173.834,454.728,201.299,460,230,460C357.025,460,460,357.025,460,230z"/>
	<path style="fill:#4DE1FF;" d="M124,60h15l45,170l-45,170h-15c-27.5,0-50-22.5-50-50V110C74,82.5,96.5,60,124,60z"/>
	<path style="fill:#2DB8D4;" d="M154,60h-15v340h15c27.5,0,50-22.5,50-50V110C204,82.5,181.5,60,154,60z"/>
	<path style="fill:#FFFFFF;" d="M104,170c0,11.046,8.954,20,20,20h15l10-20l-10-20h-15C112.954,150,104,158.954,104,170z"/>
	<path style="fill:#FF1909;" d="M154,150h-15v40h15c11.046,0,20-8.954,20-20S165.046,150,154,150z"/>
	<path style="fill:#FFFFFF;" d="M104,230c0,11.046,8.954,20,20,20h15l10-20l-10-20h-15C112.954,210,104,218.954,104,230z"/>
	<path style="fill:#FF1909;" d="M154,210h-15v40h15c11.046,0,20-8.954,20-20S165.046,210,154,210z"/>
	<path style="fill:#FFFFFF;" d="M104,290c0,11.046,8.954,20,20,20h15l10-20l-10-20h-15C112.954,270,104,278.954,104,290z"/>
	<path style="fill:#FF1909;" d="M154,270h-15v40h15c11.046,0,20-8.954,20-20S165.046,270,154,270z"/>
	<path style="fill:#FFFFFF;" d="M104,350c0,11.046,8.954,20,20,20h15l10-20l-10-20h-15C112.954,330,104,338.954,104,350z"/>
	<path style="fill:#FF1909;" d="M154,330h-15v40h15c11.046,0,20-8.954,20-20S165.046,330,154,330z"/>
	<path style="fill:#FFFFFF;" d="M104,110c0,11.046,8.954,20,20,20h15l10-20l-10-20h-15C112.954,90,104,98.954,104,110z"/>
	<path style="fill:#FF1909;" d="M154,90h-15v40h15c11.046,0,20-8.954,20-20S165.046,90,154,90z"/>
	<rect x="244" y="130" style="fill:#AA1106;" width="92" height="27"/>
	<path style="fill:#FF1909;" d="M386,190v15l-20,65l20,65v15c0,27.5-22.5,50-50,50h-46l-30-135l30-125h46
		C363.5,140,386,162.5,386,190z"/>
	<path style="fill:#FF6E36;" d="M290,140v260h-46c-27.5,0-50-22.5-50-50V190c0-27.5,22.5-50,50-50H290z"/>
	<polygon style="fill:#C4F5FF;" points="346,53.75 346,130 318,130 308,86.875 318,53.75 	"/>
	<polygon style="fill:#FFFFFF;" points="318,53.75 318,130 290,130 280,86.875 290,53.75 	"/>
	<polygon style="fill:#C4F5FF;" points="290,53.75 290,130 262,130 252,86.875 262,53.75 	"/>
	<rect x="234" y="53.75" style="fill:#FFFFFF;" width="28" height="76.25"/>
	<path style="fill:#AA1106;" d="M366,220v130c0,16.54-13.46,30-30,30h-46l-10-170L366,220z"/>
	<path style="fill:#550803;" d="M366,190v30h-76l-20-30l20-30h46C352.54,160,366,173.46,366,190z"/>
	<path style="fill:#FF1909;" d="M300,220l-10,115v45h-46c-16.54,0-30-13.46-30-30V220H300z"/>
	<path style="fill:#AA1106;" d="M290,160v45l10,15h-86v-30c0-16.54,13.46-30,30-30H290z"/>
	<rect x="290" y="205" style="fill:#C4F5FF;" width="96" height="130"/>
</g>
<g>
</g>
<g>
</g>
<g>
</g>
<g>
</g>
<g>
</g>
<g>
</g>
<g>
</g>
<g>
</g>
<g>
</g>
<g>
</g>
<g>
</g>
<g>
</g>
<g>
</g>
<g>
</g>
<g>
</g>
</svg>
