<svg width="429" height="378" viewBox="0 0 429 378" fill="none" xmlns="http://www.w3.org/2000/svg">
<g style="mix-blend-mode:luminosity">
<path d="M102.849 37.4508V211.209L36.0872 325.742H0V47.9024L102.849 37.4508Z" fill="#130030"/>
<path opacity="0.3" d="M67.6969 41.6396L71.0801 214.078L50.7819 210.197L0 325.742V47.9024L67.6969 41.6396Z" fill="url(#paint0_linear)"/>
<path d="M426.731 8.70886H102.849V215.129H426.731V8.70886Z" fill="#342E4F"/>
<path d="M426.731 8.70886H102.849V215.129H426.731V8.70886Z" fill="url(#paint1_linear)"/>
<path d="M113.675 8.70886H102.849V215.129H113.675V8.70886Z" fill="url(#paint2_linear)"/>
<path d="M181.368 152.894L124.05 215.129V8.70886L179.062 9.04636L181.368 152.894Z" fill="url(#paint3_linear)"/>
<path opacity="0.6" d="M295.035 72.3349L158.962 110.22L156.614 8.70886H426.731L295.035 72.3349Z" fill="url(#paint4_linear)"/>
<path opacity="0.6" d="M332.249 82.1329L286.24 99.1159L286.917 8.70886H426.731L332.249 82.1329Z" fill="url(#paint5_linear)"/>
<path d="M384.476 70.454L102.397 195.096L33.3807 312.677L35.6361 366.242H424.927V70.5476L384.476 70.454Z" fill="#474473"/>
<path d="M384.927 76.9863L102.849 201.629L36.0872 325.742V372.774H425.378V77.08L384.927 76.9863Z" fill="#42395D"/>
<path d="M384.927 76.9863L102.849 201.629L36.0872 325.742V372.774H425.378V77.08L384.927 76.9863Z" fill="url(#paint6_linear)"/>
<path d="M101.052 293.186L102.849 201.629L36.0872 325.742V372.774H425.378V77.0798L101.052 293.186Z" fill="#342E4F"/>
<path d="M92.7314 292.331L89.6938 226.084L36.0872 325.742V372.774L336.308 354.515L259.377 138.483L92.7314 292.331Z" fill="url(#paint7_linear)"/>
<path d="M426.731 79.6929V378H98.1437L73.0766 331.403V292.867L106.457 256.935H165.099V205.113H165.203L165.212 205.221L243.11 206.854H243.138V171.158L313.508 167.225V125.898L313.634 125.867L372.149 111.919V81.8703L426.731 79.6929Z" fill="#474473"/>
<path d="M426.731 79.6929V378H98.1437L73.0766 331.403V292.867L106.457 256.935H165.099V205.113H165.203L165.212 205.221L243.11 206.854H243.138V171.158L313.508 167.225V125.898L313.634 125.867L372.149 111.919V81.8703L426.731 79.6929Z" fill="url(#paint8_linear)"/>
<path d="M426.731 287.023V330.584L73.0766 292.867L106.457 256.935H165.099L426.731 287.023Z" fill="#6470A1"/>
<path d="M426.731 287.023V330.584L73.0766 292.867L106.457 256.935H165.099L426.731 287.023Z" fill="url(#paint9_linear)"/>
<path opacity="0.5" d="M214.582 309.13L262.534 332.323V313.916L214.582 309.13Z" fill="#150031"/>
<path d="M312.056 295.51L246.082 320.344L241.458 318.714L202.199 304.859L253.218 284.361L258.188 282.363C258.188 282.363 258.188 282.363 265.148 283.531C272.109 284.7 312.056 295.51 312.056 295.51Z" fill="#C8D5C2"/>
<path opacity="0.2" d="M312.056 295.51L246.082 320.344L241.458 318.714C256.601 309.914 263.634 297.362 263.634 297.362C266.661 287.037 253.217 284.361 253.217 284.361L258.187 282.363C258.187 282.363 258.187 282.363 265.147 283.531C272.109 284.7 312.056 295.51 312.056 295.51Z" fill="url(#paint10_linear)"/>
<path d="M277.859 293.756L259.095 304.274C259.095 304.274 280.582 306.904 285.727 309.241C290.872 311.579 300.859 313.332 300.859 313.332L307.517 315.085L319.973 304.421L277.859 293.756Z" fill="#F2EDD7"/>
<path d="M274.328 299.503L270.697 301.353L299.548 309.242L301.363 306.71L274.328 299.503Z" fill="#6470A1"/>
<path d="M293.293 299.503L291.074 302.229L305.803 306.125L307.82 304.421L293.293 299.503Z" fill="#6470A1"/>
<path d="M259.095 304.275L272.896 310.251L279.943 307.598L259.095 304.275Z" fill="#4A4F28"/>
<path d="M248.973 291.847C243.148 289.997 232.877 291.776 230.331 297.891C229.214 300.573 231.402 303.488 233.322 305.169C235.663 307.22 238.652 307.915 241.725 307.851C247.177 307.739 256.142 306.786 258.635 301.287C261.335 295.328 252.61 291.813 248.099 291.813C246.295 291.813 246.295 293.763 248.099 293.763C252.61 293.763 261.231 298.136 255.088 302.677C251.803 305.105 246.465 305.617 242.487 305.872C238.281 306.143 231.104 303.708 232.314 298.408C232.911 295.791 237.303 294.459 239.538 293.782C242.443 292.901 245.55 292.809 248.445 293.727C249.686 294.121 250.204 292.238 248.973 291.847Z" fill="#F2EDD7"/>
<path d="M240.877 296.095C243.72 299.83 248.201 301.352 252.787 299.793C254.007 299.378 253.482 297.494 252.251 297.913C248.579 299.161 244.946 298.167 242.619 295.111C241.858 294.109 240.103 295.08 240.877 296.095Z" fill="#F2EDD7"/>
<path d="M237.724 301.127C237.724 301.127 238.175 299.178 237.724 299.178C235.92 299.178 235.92 301.127 237.724 301.127C237.724 301.127 235.92 301.127 237.724 301.127Z" fill="#F2EDD7"/>
<path d="M243.137 303.294C243.137 303.294 244.942 301.344 243.137 301.344C242.235 301.344 242.235 303.294 243.137 303.294C243.137 303.294 242.235 303.294 243.137 303.294Z" fill="#F2EDD7"/>
<path d="M426.731 247.359V260.88L165.16 205.321L165.099 205.317V205.112L165.16 205.221L243.111 206.854L426.731 247.359Z" fill="#6470A1"/>
<path d="M73.0766 331.403L426.731 345.095V378H98.1437L73.0766 331.403Z" fill="#6470A1"/>
<path d="M73.0766 331.403L426.731 345.095V378L95.5937 349.291L73.0766 331.403Z" fill="url(#paint11_linear)"/>
<path d="M241.089 344.512L352.547 353.207L426.731 378L95.5936 349.29L241.089 344.512Z" fill="url(#paint12_linear)"/>
<path opacity="0.5" d="M289.394 231.709L286.893 270.941L172.181 303.394L159.223 334.738L124.22 358.403L74.4299 348.387L73.0766 292.867L86.0364 278.863L103.565 260.048L261.693 176.576L290.116 184.874L296.817 217.47L289.394 231.709Z" fill="#150031"/>
<path d="M289.394 231.709L286.893 270.941L172.181 303.394L159.223 334.738L124.22 358.403L74.4299 348.387L73.0766 292.867L86.0364 278.863L103.565 260.048L261.693 176.576L290.116 184.874L296.817 217.47L289.394 231.709Z" fill="url(#paint13_linear)"/>
<path d="M426.731 211.362V224.762L243.137 171.158L313.507 167.225L426.731 211.362Z" fill="#6470A1"/>
<path d="M362.784 186.434L328.189 180.471L243.137 171.158L313.507 167.225L362.784 186.434Z" fill="url(#paint14_linear)"/>
<path d="M426.731 130.096V178.282L313.638 125.893L313.634 125.867L372.149 111.919V109.554L372.253 109.55L426.731 130.096Z" fill="#6470A1"/>
<path d="M426.731 130.096L421.56 142.416L313.638 125.893L313.634 125.867L372.149 111.919V109.554L372.253 109.55L426.731 130.096Z" fill="url(#paint15_linear)"/>
<path d="M380.72 339.677C380.611 339.808 380.494 339.934 380.372 340.052C372.852 347.385 343.301 325.363 335.309 319.937C327.189 314.419 325.989 317.032 315.461 314.127C304.937 311.227 294.71 300.484 293.208 294.679C291.706 288.869 284.786 274.355 277.871 269.129C270.956 263.903 264.036 256.356 266.143 250.838C266.269 250.503 266.45 250.207 266.675 249.95C270.149 245.935 284.57 250.547 290.502 250.547C296.817 250.547 302.23 247.934 307.341 250.547C312.456 253.16 315.763 252.58 333.504 256.979C351.25 261.378 360.872 285.385 360.872 285.385C368.689 292.066 387.635 331.259 380.72 339.677Z" fill="#4A4F28"/>
<path d="M380.72 339.678C380.611 339.808 380.494 339.935 380.372 340.052C363.163 311.284 311.518 277.246 300.453 272.278C292.843 268.859 276.712 257.34 266.675 249.95C270.149 245.935 284.57 250.546 290.502 250.546C296.817 250.546 302.23 247.934 307.341 250.546C312.456 253.159 315.763 252.58 333.504 256.979C351.25 261.377 360.872 285.385 360.872 285.385C368.689 292.066 387.635 331.26 380.72 339.678Z" fill="#2F3025"/>
<path d="M380.72 339.678C380.611 339.808 380.494 339.935 380.372 340.052C363.163 311.284 311.518 277.246 300.453 272.278C292.843 268.859 276.712 257.34 266.675 249.95C270.149 245.935 284.57 250.546 290.502 250.546C296.817 250.546 302.23 247.934 307.341 250.546C312.456 253.159 315.763 252.58 333.504 256.979C351.25 261.377 360.872 285.385 360.872 285.385C368.689 292.066 387.635 331.26 380.72 339.678Z" fill="url(#paint16_linear)"/>
<path d="M380.594 283.161C374.659 284.94 368.763 285.655 365.982 286.123C365.982 286.123 366.663 274.625 363.024 268.75C359.384 262.877 349.308 239.996 356.421 231.341C363.536 222.688 372.635 219.108 373.549 210.447C374.463 201.785 370.906 190.84 381.373 184.399C391.84 177.955 398.142 175.196 399.635 169.867C400.914 165.289 401.675 161.546 404.13 161.193C404.535 161.139 404.98 161.171 405.484 161.307C409.059 162.274 414.003 172.659 411.139 184.84C408.275 197.021 408.347 209.223 411.075 216.12C413.803 223.017 416.021 237.132 410.072 246.467C404.124 255.801 401.313 264.601 395.365 273.939C392.402 278.587 386.481 281.396 380.594 283.161Z" fill="url(#paint17_linear)"/>
<path d="M383.396 182.62C383.396 182.62 376.079 231.894 383.396 259.15C383.396 259.15 382.99 224.451 391.109 201.629" stroke="#342E4F" stroke-width="2" stroke-miterlimit="10"/>
<path d="M386.981 293.011C382.556 299.83 377.206 305.535 374.801 308.357C374.801 308.357 365.08 296.09 356.059 293.185C347.037 290.285 316.065 275.517 315.461 260.711C314.861 245.904 320.874 234.582 313.958 225.001C307.043 215.42 293.511 207.29 298.324 191.904C303.132 176.514 307.043 168.388 303.737 161.708C300.89 155.972 298.275 151.522 300.453 149.092C300.814 148.695 301.296 148.351 301.932 148.064C306.443 146.03 320.878 152.419 328.998 167.225C337.117 182.032 348.241 194.382 357.263 199.094C366.285 203.806 381.324 216.291 383.729 230.806C386.133 245.321 391.244 256.643 393.653 271.162C394.848 278.392 391.37 286.248 386.981 293.011Z" fill="#69700A"/>
<path d="M386.981 293.011C381.058 283.5 373.895 272.887 368.107 266.986C355.928 254.579 336.982 236.942 326.156 201.629C319.376 179.519 308.009 160.34 300.453 149.092C300.814 148.695 301.296 148.351 301.932 148.064C306.443 146.03 320.878 152.419 328.998 167.225C337.117 182.032 348.241 194.382 357.263 199.094C366.285 203.806 381.324 216.291 383.729 230.806C386.133 245.321 391.244 256.643 393.653 271.162C394.848 278.391 391.37 286.248 386.981 293.011Z" fill="#A7A700"/>
<path d="M386.981 293.011C381.058 283.5 373.895 272.887 368.107 266.986C355.928 254.579 336.982 236.942 326.156 201.629C319.376 179.519 308.009 160.34 300.453 149.092C300.814 148.695 301.296 148.351 301.932 148.064C306.443 146.03 320.878 152.419 328.998 167.225C337.117 182.032 348.241 194.382 357.263 199.094C366.285 203.806 381.324 216.291 383.729 230.806C386.133 245.321 391.244 256.643 393.653 271.162C394.848 278.391 391.37 286.248 386.981 293.011Z" fill="#A7A700"/>
<path d="M386.981 293.011C381.058 283.5 373.895 272.887 368.107 266.986C355.928 254.579 336.982 236.942 326.156 201.628C325.335 198.959 324.451 196.329 323.513 193.755C322.087 189.844 320.544 186.051 318.929 182.406C317.238 178.574 315.465 174.907 313.679 171.445C312.015 168.218 310.336 165.17 308.694 162.322C305.74 157.196 302.898 152.732 300.452 149.092C300.814 148.695 301.296 148.351 301.932 148.064C305.893 146.278 317.513 150.99 325.781 162.2C326.927 163.75 328.009 165.427 328.997 167.225C330.189 169.394 331.438 171.51 332.741 173.553C335.213 177.442 337.862 181.082 340.572 184.357C346.184 191.142 352.071 196.381 357.263 199.094C358.097 199.529 358.981 200.03 359.902 200.596C361.327 201.472 362.847 202.491 364.399 203.649C367.25 205.766 370.214 208.331 372.947 211.24C374.711 213.117 376.38 215.133 377.864 217.271C380.498 221.06 382.546 225.206 383.489 229.552C383.579 229.97 383.66 230.388 383.728 230.806C384.224 233.785 384.829 236.629 385.505 239.39C386.38 242.983 387.368 246.436 388.37 249.881C389.258 252.946 390.156 256.004 390.995 259.135C391.604 261.425 392.182 263.751 392.696 266.155C393.048 267.788 393.368 269.451 393.652 271.163C394.848 278.391 391.37 286.248 386.981 293.011Z" fill="url(#paint18_linear)"/>
<path d="M332.742 173.553C329.693 173.157 326.652 172.795 323.63 172.456C320.441 172.098 317.094 171.781 313.679 171.445C312.015 168.218 310.336 165.17 308.694 162.322C314.491 161.965 320.323 161.982 325.782 162.2C326.927 163.75 328.01 165.427 328.998 167.225C330.189 169.394 331.438 171.511 332.742 173.553Z" fill="url(#paint19_linear)"/>
<path d="M364.399 203.649C354.868 201.276 345.336 198.889 335.822 196.412C331.758 195.349 327.644 194.491 323.512 193.755C322.087 189.844 320.544 186.051 318.929 182.406C319.502 182.463 320.075 182.52 320.648 182.576C327.266 183.234 333.915 183.813 340.573 184.357C346.184 191.142 352.071 196.381 357.263 199.094C358.098 199.53 358.982 200.03 359.902 200.597C361.327 201.472 362.848 202.491 364.399 203.649Z" fill="url(#paint20_linear)"/>
<path d="M429 220.612L428.328 225.184C428.332 223.578 428.179 221.945 427.899 220.294C428.265 220.398 428.635 220.503 429 220.612Z" fill="url(#paint21_linear)"/>
<path d="M320.066 208.048C320.066 208.048 339.823 262.563 383.396 298.089" stroke="#ECE8C8" stroke-width="2" stroke-miterlimit="10"/>
<path d="M305.857 293.011C305.857 293.011 355.352 294.209 386.762 326.322" stroke="#ECE8C8" stroke-width="2" stroke-miterlimit="10"/>
<path d="M347.858 209.837C343.054 208.183 345.792 205.979 348.914 204.385C352.306 202.652 356.023 201.446 359.902 200.596C363.957 203.074 368.725 206.75 372.947 211.24C364.607 211.632 355.242 212.385 347.858 209.837Z" fill="url(#paint22_linear)"/>
<path d="M350.316 226.451C351.737 223.028 356.614 221.408 359.907 220.071C365.672 217.728 371.761 217.436 377.865 217.271C380.499 221.06 382.547 225.205 383.49 229.552C379.683 229.569 375.831 229.795 372.249 229.643C367.395 229.434 353.839 230.897 350.316 226.451Z" fill="url(#paint23_linear)"/>
<path d="M384.802 249.741C378.835 249.523 372.903 249.837 367.007 249.162C364.819 248.914 361.837 248.988 359.938 247.707C355.919 245.003 361.373 243.1 364.192 242.159C370.954 239.899 378.366 239.777 385.506 239.39C386.381 242.982 387.37 246.436 388.371 249.88C386.395 249.785 385.046 249.75 384.802 249.741Z" fill="url(#paint24_linear)"/>
<path d="M392.696 266.154C386.138 265.627 377.418 264.517 379.209 261.935C380.716 259.766 386.607 259.305 390.996 259.134C391.605 261.425 392.182 263.75 392.696 266.154Z" fill="url(#paint25_linear)"/>
<path opacity="0.3" d="M179.712 103.002C179.712 103.002 186.15 90.4409 199.54 92.1097C212.93 93.7785 226.898 110.473 235.944 113.058C244.989 115.644 254.263 118.538 256.231 124.4C258.199 130.262 258.286 130.267 258.286 130.267L262.535 170.501L249.428 171.223L199.043 160.812L179.712 103.002Z" fill="#150031"/>
<path d="M250.166 64.7427C248.392 64.1718 240.495 64.1048 232.187 64.2054C221.537 64.3343 210.208 64.7427 210.208 64.7427V22.4507L216.469 22.1428L250.264 20.4971C250.264 20.4971 249.922 36.438 250.258 44.5707C250.595 52.7033 250.166 64.7427 250.166 64.7427Z" fill="#AF4F55"/>
<path d="M242.095 47.467H250.355V50.9348C250.355 50.9348 263.231 47.2035 265.55 47.5763C267.87 47.9495 276.337 47.5001 276.337 47.5001L263.565 42.5652L242.095 47.467Z" fill="#130030"/>
<path d="M276.518 1.62958V47.4979C276.518 47.4979 272.34 47.291 268.293 46.5464C267.268 46.3617 266.193 46.1379 265.236 45.8744C265.121 45.8409 264.972 45.813 264.844 45.7847C262.792 45.3649 258.864 45.5387 254.864 45.9023C248.707 46.4732 242.357 47.4975 242.357 47.4975C242.357 47.4975 242.946 39.0403 242.354 33.835C241.768 28.6292 241.645 0 241.645 0L254.851 0.621002L266.464 1.16405L268.293 1.2481L276.518 1.62958Z" fill="#AE5E6C"/>
<path d="M232.187 64.2052C221.537 64.3341 210.208 64.7426 210.208 64.7426V22.4505L216.469 22.1426C217.867 31.3779 222.585 57.2984 232.187 64.2052Z" fill="url(#paint26_linear)"/>
<path d="M266.471 1.16439L264.828 45.7846C262.776 45.3648 258.926 45.5386 254.866 45.9022V0.621338L266.471 1.16439Z" fill="url(#paint27_linear)"/>
<path d="M250.27 21.2695L251.339 30.7848L272.007 31.7642V19.0306L250.27 21.2695Z" fill="#A7A10F"/>
<path d="M276.518 1.62958V47.4979C276.518 47.4979 272.007 47.291 268.398 46.5464V1.24854L276.518 1.62958Z" fill="url(#paint28_linear)"/>
<path d="M215.17 27.4264V34.8379H232.762V26.8668L215.17 27.4264Z" fill="url(#paint29_linear)"/>
<path d="M248.551 10.8862V15.6766H258.909L258.184 10.8862H248.551Z" fill="url(#paint30_linear)"/>
<path d="M216.075 41.5558L217.745 38.7573H234.116" stroke="#ECE8C8" stroke-width="2" stroke-miterlimit="10"/>
<path d="M216.075 47.6526L217.745 44.8541H234.116" stroke="#ECE8C8" stroke-width="2" stroke-miterlimit="10"/>
<path d="M216.075 52.4433L217.745 49.6444H234.116" stroke="#ECE8C8" stroke-width="2" stroke-miterlimit="10"/>
<path d="M189.909 175.732C189.909 175.732 155.306 141.37 146.371 149.516C137.438 157.662 125.883 164.712 126.38 175.732C126.876 186.753 132.832 240.897 130.846 245.689C128.861 250.48 122.905 252.876 115.956 253.355C109.008 253.834 101.563 258.147 101.067 261.021C100.57 263.896 112.483 264.536 115.129 263.897C117.776 263.258 129.688 261.98 133.99 262.619C138.292 263.257 147.639 263.577 149.086 259.744C150.534 255.91 149.624 250.799 149.086 244.411C148.549 238.022 151.527 217.897 152.85 204.801C154.174 191.704 159.137 177.968 159.137 177.968L189.909 175.732Z" fill="#DE5E50"/>
<path d="M189.909 175.732C189.909 175.732 155.306 141.37 146.371 149.516C137.438 157.662 125.883 164.712 126.38 175.732C126.876 186.753 132.832 240.897 130.846 245.689C128.861 250.48 122.905 252.876 115.956 253.355C109.008 253.834 101.563 258.147 101.067 261.021C100.57 263.896 112.483 264.536 115.129 263.897C117.776 263.258 129.688 261.98 133.99 262.619C138.292 263.257 147.639 263.577 149.086 259.744C150.534 255.91 149.624 250.799 149.086 244.411C148.549 238.022 151.527 217.897 152.85 204.801C154.174 191.704 159.137 177.968 159.137 177.968L189.909 175.732Z" fill="url(#paint31_linear)"/>
<path d="M146.153 131.951C146.153 131.951 140.289 149.806 152.017 159.822C163.746 169.838 168.257 174.629 174.121 165.483C179.985 156.338 188.556 154.596 195.322 155.903C202.088 157.209 212.012 147.629 213.366 140.225C214.719 132.822 196.675 128.903 189.007 120.628C181.338 112.354 155.626 109.306 146.153 131.951Z" fill="#EB8300"/>
<path d="M146.153 131.951C146.153 131.951 140.289 149.806 152.017 159.822C163.746 169.838 168.257 174.629 174.121 165.483C179.985 156.338 188.556 154.596 195.322 155.903C202.088 157.209 212.012 147.629 213.366 140.225C214.719 132.822 196.675 128.903 189.007 120.628C181.338 112.354 155.626 109.306 146.153 131.951Z" fill="url(#paint32_linear)"/>
<path d="M184.449 192.023C184.449 192.023 139.78 148.9 130.846 157.045C121.912 165.191 120.423 181.003 120.92 192.023C121.416 203.044 127.372 257.188 125.386 261.98C123.402 266.772 117.445 269.167 110.497 269.646C103.548 270.126 96.1034 274.438 95.6067 277.313C95.1105 280.188 107.023 280.827 109.67 280.188C112.316 279.549 124.229 278.272 128.53 278.91C132.832 279.548 142.179 279.869 143.627 276.035C145.074 272.202 144.164 267.091 143.627 260.702C143.089 254.313 150.369 236.425 151.693 223.328C153.016 210.231 153.677 194.26 153.677 194.26L184.449 192.023Z" fill="#E46832"/>
<path d="M184.45 192.022L164.454 193.476L153.677 194.26C153.677 194.26 153.013 210.23 151.692 223.329C150.37 236.424 143.09 254.314 143.627 260.702C144.163 267.091 145.075 272.203 143.627 276.036C143.112 277.403 141.592 278.239 139.657 278.727C136.156 279.602 131.298 279.324 128.528 278.91C124.23 278.27 112.317 279.55 109.668 280.19C107.02 280.826 95.1111 280.186 95.6077 277.312C96.1039 274.438 103.547 270.126 110.498 269.647C117.445 269.168 123.399 266.773 125.384 261.978C127.373 257.188 121.415 203.044 120.918 192.022C120.422 181.004 121.911 165.192 130.847 157.044C139.779 148.9 184.45 192.022 184.45 192.022Z" fill="url(#paint33_linear)"/>
<path d="M164.454 193.476L153.677 194.26C153.677 194.26 153.014 210.229 151.693 223.329C150.37 236.424 143.09 254.314 143.627 260.702C144.163 267.091 145.075 272.203 143.627 276.036C143.112 277.403 141.592 278.239 139.657 278.727C143.406 273.27 137.749 258.629 140.023 252.001C142.608 244.45 141.642 194.225 141.642 194.225C148.86 186.387 163.304 189.265 164.197 192.501C164.264 192.749 164.35 193.075 164.454 193.476Z" fill="url(#paint34_linear)"/>
<path d="M268.398 206.998C268.398 227.901 259.679 260.127 254.266 265.645C248.853 271.163 231.711 276.676 221.787 277.259C211.863 277.838 189.007 280.743 180.585 277.259C172.167 273.775 176.976 279.289 161.341 275.226C150.041 272.29 150.362 261.325 151.408 253.164C151.81 250.028 152.319 247.307 152.319 245.613C152.319 239.516 147.506 236.032 141.408 230.514C139.224 228.542 138.079 226.342 137.52 223.817C136.509 219.283 137.389 213.687 137.583 206.419C137.867 195.688 139.234 185.476 136.559 181.231C136.415 180.995 136.252 180.778 136.08 180.582C133.202 177.298 129.873 168.754 128.858 161.464C128.7 160.366 128.601 159.295 128.561 158.276C128.258 150.485 136.378 148.356 146.37 149.514C156.365 150.677 162.243 160.837 165.248 166.934C168.257 173.03 182.994 193.354 179.065 187.458C175.131 181.557 174.121 165.483 174.888 164.355C175.654 163.228 178.483 157.645 186.751 146.322C195.02 134.999 203.536 130.187 211.561 128.032C211.561 128.032 222.69 126.869 242.686 146.322C262.683 165.775 268.398 186.095 268.398 206.998Z" fill="#6AA8C6"/>
<path d="M268.398 206.998C268.398 227.901 259.679 260.127 254.266 265.645C248.853 271.163 231.711 276.676 221.787 277.259C211.863 277.838 189.007 280.743 180.585 277.259C172.167 273.775 176.976 279.289 161.341 275.226C150.041 272.29 150.362 261.325 151.408 253.164C151.81 250.028 152.319 247.307 152.319 245.613C152.319 239.516 147.506 236.032 141.408 230.514C139.224 228.542 138.079 226.342 137.52 223.817C136.509 219.283 137.389 213.687 137.583 206.419C137.867 195.688 139.234 185.476 136.559 181.231C136.415 180.995 136.252 180.778 136.08 180.582C133.202 177.298 129.873 168.754 128.858 161.464C128.7 160.366 128.601 159.295 128.561 158.276C128.258 150.485 136.378 148.356 146.37 149.514C156.365 150.677 162.243 160.837 165.248 166.934C168.257 173.03 182.994 193.354 179.065 187.458C175.131 181.557 174.121 165.483 174.888 164.355C175.654 163.228 178.483 157.645 186.751 146.322C195.02 134.999 203.536 130.187 211.561 128.032C211.561 128.032 222.69 126.869 242.686 146.322C262.683 165.775 268.398 186.095 268.398 206.998Z" fill="url(#paint35_linear)"/>
<path d="M268.398 206.998C268.398 227.901 259.679 260.127 254.266 265.645C252.177 267.774 248.343 269.904 243.85 271.746C236.7 274.681 227.882 276.902 221.787 277.259C211.863 277.838 189.007 280.743 180.585 277.259C172.167 273.775 176.976 279.289 161.341 275.226C150.041 272.29 150.362 261.325 151.408 253.164C151.81 250.028 152.319 247.307 152.319 245.613C152.319 239.516 147.506 236.032 141.408 230.514C139.224 228.542 138.079 226.342 137.52 223.817C136.509 219.283 137.389 213.687 137.583 206.419C137.867 195.688 139.234 185.476 136.559 181.231C136.415 180.995 136.252 180.778 136.08 180.582C133.202 177.298 129.873 168.754 128.858 161.464C128.7 160.366 128.601 159.295 128.561 158.276C128.258 150.485 136.378 148.356 146.37 149.514C156.365 150.677 162.243 160.837 165.248 166.934C168.257 173.03 182.994 193.354 179.065 187.458C175.131 181.557 174.121 165.483 174.888 164.355C175.654 163.228 178.483 157.645 186.751 146.322C190.085 141.754 193.463 138.248 196.829 135.544C201.809 131.55 206.775 129.316 211.561 128.032C211.561 128.032 222.69 126.869 242.686 146.322C262.683 165.775 268.398 186.095 268.398 206.998Z" fill="url(#paint36_linear)"/>
<path d="M268.398 206.998C268.398 227.901 259.679 260.127 254.266 265.645C252.177 267.774 248.343 269.904 243.85 271.746C271.331 234.817 256.07 176.214 250.012 176.575C243.556 176.958 253.084 203.627 240.431 200.313C231.35 197.94 208.828 157.949 196.829 135.544C201.809 131.55 206.775 129.316 211.561 128.032C211.561 128.032 222.69 126.869 242.686 146.322C262.683 165.775 268.398 186.095 268.398 206.998Z" fill="url(#paint37_linear)"/>
<path d="M162.483 192.501C151.435 185.494 142.896 182.389 136.558 181.231C136.414 180.995 136.251 180.778 136.08 180.582C133.202 177.298 129.873 168.754 128.858 161.464C162.379 168.776 186.49 207.73 162.483 192.501Z" fill="#6AA8C6"/>
<path d="M218.066 256.535C189.16 263.92 164.878 258.128 151.408 253.164C151.81 250.028 152.32 247.307 152.32 245.613C152.32 239.516 147.507 236.032 141.408 230.514C139.225 228.542 138.079 226.342 137.52 223.817C170.945 245.539 218.066 256.535 218.066 256.535Z" fill="#6AA8C6"/>
<path d="M162.483 192.501C151.435 185.494 142.896 182.389 136.558 181.231C136.414 180.995 136.251 180.778 136.08 180.582C133.202 177.298 129.873 168.754 128.858 161.464C162.379 168.776 186.49 207.73 162.483 192.501Z" fill="url(#paint38_linear)"/>
<path d="M218.066 256.535C189.16 263.92 164.878 258.128 151.408 253.164C151.81 250.028 152.32 247.307 152.32 245.613C152.32 239.516 147.507 236.032 141.408 230.514C139.225 228.542 138.079 226.342 137.52 223.817C170.945 245.539 218.066 256.535 218.066 256.535Z" fill="url(#paint39_linear)"/>
<path d="M163.295 186.678C163.295 186.678 154.573 198.29 152.769 201.774C150.965 205.258 147.657 206.71 146.754 206.42C145.852 206.129 138.297 198.037 135.76 196.567C133.222 195.097 124.876 189 123.298 186.678C121.719 184.356 121.729 182.62 121.729 182.62C121.729 182.62 116.983 188.172 117.885 194.538C118.787 200.903 119.536 202.71 123.522 208.048C127.508 213.387 132.067 219.674 135.611 225.095C139.155 230.517 143.747 237.774 149.461 237.774C155.175 237.774 179.233 211.285 184.496 203.481C189.758 195.678 163.295 186.678 163.295 186.678Z" fill="#E46832"/>
<path d="M184.496 203.48C180.233 209.799 163.637 228.381 154.449 235.213C152.293 236.816 150.547 237.774 149.46 237.774C143.749 237.774 139.152 230.515 135.611 225.097C132.066 219.676 127.51 213.387 123.522 208.048C119.534 202.71 118.786 200.902 117.883 194.54C117.617 192.649 117.847 190.829 118.307 189.209C119.386 185.363 121.731 182.62 121.731 182.62C121.731 182.677 121.744 184.397 123.296 186.679C124.875 189 133.22 195.097 135.76 196.569C137.136 197.366 139.987 200.109 142.45 202.5C144.177 204.172 145.716 205.675 146.424 206.215C146.429 206.224 146.437 206.228 146.442 206.228C146.582 206.332 146.685 206.398 146.753 206.419C147.655 206.711 150.966 205.256 152.771 201.773C154.575 198.289 163.295 186.679 163.295 186.679C163.295 186.679 166.258 187.685 170.002 189.318C177.45 192.566 188.001 198.284 184.496 203.48Z" fill="url(#paint40_linear)"/>
<path d="M184.496 203.479C180.233 209.798 163.637 228.38 154.449 235.213C139.883 224.666 121.645 194.796 118.307 189.209C119.386 185.363 121.732 182.62 121.732 182.62C121.732 182.676 121.745 184.396 123.297 186.678C124.876 188.999 133.221 195.096 135.76 196.568C137.136 197.365 139.987 200.109 142.45 202.5C143.461 203.937 144.769 205.195 146.424 206.214C146.429 206.223 146.438 206.227 146.442 206.227C146.546 206.297 146.65 206.358 146.754 206.418C157.3 212.589 165.217 200.522 170.003 189.317C177.45 192.566 188.001 198.284 184.496 203.479Z" fill="url(#paint41_linear)"/>
<path d="M209.455 183.195C205.246 189 210.059 201.193 201.037 206.419C193.955 210.521 186.133 206.219 179.317 200.81C177.45 199.325 175.655 197.757 173.972 196.259C166.15 189.292 162.843 191.613 161.31 185.516C159.777 179.419 166.754 172.16 170.057 169.756C173.358 167.352 183.292 149.514 183.292 149.514C188.276 146.658 194.226 148.94 199.558 152.894C204.524 156.574 208.949 161.704 211.561 165.484C216.974 173.322 213.668 177.385 209.455 183.195Z" fill="#6AA8C6"/>
<path d="M209.455 183.195C205.246 189 210.059 201.193 201.037 206.419C193.955 210.521 186.133 206.219 179.317 200.81C181.04 196.173 184.212 191.761 189.909 189.257C201.312 184.249 200.785 164.007 199.558 152.894C204.524 156.574 208.949 161.704 211.561 165.484C216.974 173.322 213.668 177.385 209.455 183.195Z" fill="url(#paint42_linear)"/>
<path d="M261.483 154.535C256.368 170.3 232.009 167.517 221.183 168.096C210.357 168.675 204.646 177.385 196.224 176.514C187.802 175.643 186.751 172.451 174.653 166.359C162.839 160.414 157.101 134.79 156.84 133.593C157.729 138.518 156.812 144.589 152.315 148.064C147.805 151.548 134.876 153.869 128.552 138.192C126.883 134.05 126.811 129.626 127.713 125.21C130.23 112.899 140.344 100.627 144.688 94.6431C145.928 92.936 147.48 91.6339 149.153 90.654C155.428 86.9524 163.444 87.6753 163.444 87.6753C176.535 83.4642 193.135 95.9582 201.827 104.224C203.321 105.643 204.579 106.937 205.549 107.999C212.162 115.259 224.494 120.193 241.031 124.548C248.041 126.394 253.707 129.234 257.514 133.092C262.683 138.331 264.429 145.455 261.483 154.535Z" fill="#F0F0C8"/>
<path d="M157.67 114.588L161.308 116.579L158.039 138.484H156.979C156.979 138.484 155.806 120.014 157.67 114.588Z" fill="#646195"/>
<path d="M189.663 207.036C189.663 207.036 211.477 257.088 250.012 268.77C250.012 268.77 245.423 271.199 242.686 272.21C239.95 273.22 211.866 263.033 195.023 233.71C195.023 233.71 185.455 217.468 185.577 205.121C185.577 205.121 188.234 204.009 189.663 207.036Z" fill="#565A8B"/>
<path d="M189.663 207.036C189.663 207.036 211.477 257.088 250.012 268.77C250.012 268.77 245.423 271.199 242.686 272.21C239.95 273.22 211.866 263.033 195.023 233.71C195.023 233.71 185.455 217.468 185.577 205.121C185.577 205.121 188.234 204.009 189.663 207.036Z" fill="url(#paint43_linear)"/>
<path d="M122.084 206.704C122.084 206.704 118.036 212.806 119.84 216.29C121.645 219.774 119.447 220.918 122.084 224.129C124.721 227.339 126.456 228.483 128.261 228.193C130.065 227.903 128.261 224.709 128.261 224.709L129.062 220.645L128.014 214.776L122.084 206.704Z" fill="#E46832"/>
<path d="M122.084 206.704C122.084 206.704 118.036 212.806 119.84 216.29C121.645 219.774 119.447 220.918 122.084 224.129C124.721 227.339 126.456 228.483 128.261 228.193C130.065 227.903 128.261 224.709 128.261 224.709L129.062 220.645L128.014 214.776L122.084 206.704Z" fill="url(#paint44_linear)"/>
<path d="M217.696 295.254L165.92 294.823H165.771L160.768 293.081L166.43 289.814C166.43 289.814 214.069 290.631 216.726 291.175C219.378 291.724 217.696 295.254 217.696 295.254Z" fill="#150031"/>
<path opacity="0.2" d="M261.483 154.535C256.368 170.3 232.009 167.517 221.183 168.096C210.357 168.676 204.646 177.385 196.224 176.514C187.802 175.643 186.751 172.451 174.653 166.359C162.839 160.414 157.101 134.79 156.84 133.593C157.729 138.518 156.812 144.589 152.315 148.064C147.805 151.548 134.876 153.869 128.552 138.192C126.883 134.05 126.811 129.626 127.713 125.21C128.881 129.56 131.786 133.597 137.52 136.45C153.844 144.58 157.147 116.896 157.147 116.896L161.31 116.578C161.31 116.578 161.188 128.324 166.303 140.517C171.414 152.711 185.249 152.711 198.475 146.614C211.706 140.517 218.328 152.419 238.175 154.74C252.683 156.438 257.455 143.687 257.514 133.092C262.683 138.331 264.429 145.455 261.483 154.535Z" fill="url(#paint45_linear)"/>
<path d="M165.92 294.823H165.771L160.768 293.081L166.43 289.841C166.43 289.841 166.768 292.645 165.92 294.823Z" fill="#C8D5C2"/>
<path d="M207.162 290.715C207.162 290.715 208.174 293.223 207.162 295.166" stroke="#ECE8C8" stroke-width="2" stroke-miterlimit="10"/>
<path d="M185.574 108.261C176.255 101.075 170.539 102.382 156.614 101.728C148.562 101.35 148.107 95.5097 149.153 90.654C155.428 86.9524 163.444 87.6753 163.444 87.6753C176.535 83.4642 193.135 95.9582 201.827 104.224C206.13 113.517 193.63 114.471 185.574 108.261Z" fill="url(#paint46_linear)"/>
<path d="M227.952 136.619C225.771 140.055 217.929 139.247 210.437 134.814C202.945 130.38 198.64 124.001 200.821 120.565C203.003 117.128 210.845 117.937 218.337 122.37C225.829 126.803 230.134 133.183 227.952 136.619Z" fill="url(#paint47_linear)"/>
<path d="M419.978 244.306C420.655 251.962 403.522 272.996 383.336 278.81C383.336 278.81 383.309 278.043 383.295 276.701C383.228 269.516 383.643 245.812 391.564 234.769C400.965 221.66 409.152 220.032 412.535 216.731C415.539 213.796 418.007 210.595 421.362 212.328C421.787 212.546 422.229 212.846 422.685 213.234C426.744 216.692 419.301 236.65 419.978 244.306Z" fill="#B7B300"/>
<path d="M419.978 244.306C420.655 251.962 403.522 272.996 383.336 278.81C383.336 278.81 383.309 278.043 383.295 276.701C383.228 269.516 383.643 245.812 391.564 234.769C400.965 221.66 409.152 220.032 412.535 216.731C415.539 213.796 418.007 210.595 421.362 212.328C421.787 212.546 422.229 212.846 422.685 213.234C426.744 216.692 419.301 236.65 419.978 244.306Z" fill="url(#paint48_linear)"/>
<path d="M422.259 228.873C421.79 231.154 421.294 233.458 420.884 235.632C420.649 236.877 420.437 238.075 420.275 239.203C419.995 241.188 419.855 242.943 419.977 244.307C420.067 245.33 419.841 246.588 419.331 248.017C416.025 257.306 400.828 273.776 383.334 278.81C383.334 278.81 383.307 278.044 383.294 276.702C385.626 268.69 394.115 256.722 400.936 247.077C402.889 244.315 404.703 241.746 406.196 239.512C407.156 238.075 407.986 236.773 408.631 235.654C409.019 234.988 409.339 234.387 409.587 233.855C409.899 233.185 410.25 232.462 410.638 231.691C413.575 225.807 418.41 217.381 421.361 212.329C421.785 212.547 422.227 212.847 422.683 213.235C424.889 215.116 423.698 221.87 422.259 228.873Z" fill="url(#paint49_linear)"/>
<path d="M383.335 278.81C383.335 278.81 388.237 248.951 396.056 237.048" stroke="#ECE8C8" stroke-width="2" stroke-miterlimit="10"/>
<path d="M419.978 244.306C420.068 245.329 419.843 246.588 419.333 248.016C414.994 247.838 410.622 247.555 406.305 247.281C404.519 247.168 402.728 247.115 400.938 247.076C402.891 244.315 404.704 241.746 406.197 239.512C407.077 239.464 407.912 239.425 408.642 239.385C412.477 239.168 416.387 239.233 420.276 239.203C419.996 241.188 419.856 242.943 419.978 244.306Z" fill="url(#paint50_linear)"/>
<path d="M410.641 231.69C414.186 230.336 418.332 229.491 422.261 228.872C421.792 231.154 421.295 233.458 420.885 235.631C418.629 235.596 416.379 235.592 414.164 235.596C412.477 235.601 410.506 235.744 408.633 235.653L410.641 231.69Z" fill="url(#paint51_linear)"/>
<path d="M293.195 97.5643C303.91 97.5643 312.596 89.1787 312.596 78.8345C312.596 68.4903 303.91 60.1047 293.195 60.1047C282.481 60.1047 273.794 68.4903 273.794 78.8345C273.794 89.1787 282.481 97.5643 293.195 97.5643Z" fill="#EF703F"/>
<path d="M312.596 78.8345C312.596 87.6513 306.285 95.0437 297.789 97.0334C296.501 97.3365 295.166 97.5159 293.791 97.5551C293.593 97.5612 293.393 97.5643 293.195 97.5643C282.48 97.5643 273.794 89.1794 273.794 78.8345C273.794 68.4896 282.48 60.1047 293.195 60.1047C298.283 60.1047 302.911 61.9956 306.372 65.0858C309.278 67.6839 311.361 71.1334 312.193 75.0201C312.456 76.2512 312.596 77.5276 312.596 78.8345Z" fill="url(#paint52_linear)"/>
<path d="M312.596 78.8345C312.596 87.6513 307.294 95.0437 300.158 97.0334C299.077 97.3365 297.955 97.5159 296.8 97.5551C296.633 97.5612 296.466 97.5643 296.299 97.5643C287.299 97.5643 280.003 89.1794 280.003 78.8345C280.003 68.4896 287.299 60.1047 296.299 60.1047C300.573 60.1047 304.46 61.9956 307.368 65.0858C309.808 67.6839 311.558 71.1334 312.257 75.0201C312.479 76.2512 312.596 77.5276 312.596 78.8345Z" fill="url(#paint53_linear)"/>
<path opacity="0.2" d="M312.596 78.8345C312.596 87.6513 306.285 95.0437 297.789 97.0334C297.525 95.8018 297.385 94.5254 297.385 93.2185C297.385 84.4022 303.693 77.0094 312.192 75.0197C312.456 76.2512 312.596 77.5276 312.596 78.8345Z" fill="url(#paint54_linear)"/>
</g>
<defs>
<linearGradient id="paint0_linear" x1="77.3395" y1="61.3686" x2="-39.4433" y2="270.071" gradientUnits="userSpaceOnUse">
<stop stop-color="#EE782C" stop-opacity="0"/>
<stop offset="1" stop-color="#EE782C"/>
</linearGradient>
<linearGradient id="paint1_linear" x1="102.849" y1="111.919" x2="426.731" y2="111.919" gradientUnits="userSpaceOnUse">
<stop stop-color="#575581" stop-opacity="0"/>
<stop offset="1" stop-color="#130030"/>
</linearGradient>
<linearGradient id="paint2_linear" x1="89.011" y1="73.9907" x2="52.1753" y2="-3.87787" gradientUnits="userSpaceOnUse">
<stop stop-color="#F2F2F2" stop-opacity="0"/>
<stop offset="1" stop-color="#F2F2F2"/>
</linearGradient>
<linearGradient id="paint3_linear" x1="183.37" y1="141.802" x2="102.983" y2="61.2426" gradientUnits="userSpaceOnUse">
<stop stop-color="#575581" stop-opacity="0"/>
<stop offset="1" stop-color="#130030"/>
</linearGradient>
<linearGradient id="paint4_linear" x1="251.48" y1="31.7589" x2="145.73" y2="-44.2337" gradientUnits="userSpaceOnUse">
<stop stop-color="#EE782C" stop-opacity="0"/>
<stop offset="1" stop-color="#EE782C"/>
</linearGradient>
<linearGradient id="paint5_linear" x1="326.528" y1="33.8479" x2="271.791" y2="-5.48663" gradientUnits="userSpaceOnUse">
<stop stop-color="#EE782C" stop-opacity="0"/>
<stop offset="1" stop-color="#EE782C"/>
</linearGradient>
<linearGradient id="paint6_linear" x1="358.683" y1="234.139" x2="462.329" y2="171.742" gradientUnits="userSpaceOnUse">
<stop stop-color="#575581" stop-opacity="0"/>
<stop offset="1" stop-color="#130030"/>
</linearGradient>
<linearGradient id="paint7_linear" x1="182.634" y1="306.553" x2="92.8888" y2="166.055" gradientUnits="userSpaceOnUse">
<stop stop-color="#575581" stop-opacity="0"/>
<stop offset="1" stop-color="#130030"/>
</linearGradient>
<linearGradient id="paint8_linear" x1="247.872" y1="199.618" x2="323.212" y2="435.491" gradientUnits="userSpaceOnUse">
<stop stop-color="#575581" stop-opacity="0"/>
<stop offset="1" stop-color="#130030"/>
</linearGradient>
<linearGradient id="paint9_linear" x1="281.222" y1="293.422" x2="338.054" y2="294.823" gradientUnits="userSpaceOnUse">
<stop stop-color="#575581" stop-opacity="0"/>
<stop offset="1" stop-color="#130030"/>
</linearGradient>
<linearGradient id="paint10_linear" x1="241.458" y1="301.353" x2="312.056" y2="301.353" gradientUnits="userSpaceOnUse">
<stop stop-color="#575581" stop-opacity="0"/>
<stop offset="1" stop-color="#575581"/>
</linearGradient>
<linearGradient id="paint11_linear" x1="217.179" y1="350.097" x2="360.585" y2="358.505" gradientUnits="userSpaceOnUse">
<stop stop-color="#575581" stop-opacity="0"/>
<stop offset="1" stop-color="#130030"/>
</linearGradient>
<linearGradient id="paint12_linear" x1="240.476" y1="356.289" x2="491.839" y2="439.134" gradientUnits="userSpaceOnUse">
<stop stop-color="#F2F2F2" stop-opacity="0"/>
<stop offset="1" stop-color="#F2F2F2"/>
</linearGradient>
<linearGradient id="paint13_linear" x1="171.625" y1="263.236" x2="88.6813" y2="244.377" gradientUnits="userSpaceOnUse">
<stop stop-color="#575581" stop-opacity="0"/>
<stop offset="1" stop-color="#130030"/>
</linearGradient>
<linearGradient id="paint14_linear" x1="308.357" y1="164.494" x2="275.938" y2="256.676" gradientUnits="userSpaceOnUse">
<stop stop-color="#F2F2F2" stop-opacity="0"/>
<stop offset="1" stop-color="#F2F2F2"/>
</linearGradient>
<linearGradient id="paint15_linear" x1="361.773" y1="130.032" x2="469.242" y2="116.73" gradientUnits="userSpaceOnUse">
<stop stop-color="#F2F2F2" stop-opacity="0"/>
<stop offset="1" stop-color="#F2F2F2"/>
</linearGradient>
<linearGradient id="paint16_linear" x1="330.641" y1="293.636" x2="297.881" y2="237.744" gradientUnits="userSpaceOnUse">
<stop stop-color="#575E19" stop-opacity="0"/>
<stop offset="1" stop-color="#575E19"/>
</linearGradient>
<linearGradient id="paint17_linear" x1="353.94" y1="223.645" x2="413.844" y2="223.645" gradientUnits="userSpaceOnUse">
<stop stop-color="#EE782C" stop-opacity="0"/>
<stop offset="1" stop-color="#EE782C"/>
</linearGradient>
<linearGradient id="paint18_linear" x1="361.864" y1="232.58" x2="406.231" y2="279.213" gradientUnits="userSpaceOnUse">
<stop stop-color="#575E19" stop-opacity="0"/>
<stop offset="1" stop-color="#575E19"/>
</linearGradient>
<linearGradient id="paint19_linear" x1="308.694" y1="167.798" x2="332.742" y2="167.798" gradientUnits="userSpaceOnUse">
<stop stop-color="#F2F2F2" stop-opacity="0"/>
<stop offset="1" stop-color="#F2F2F2"/>
</linearGradient>
<linearGradient id="paint20_linear" x1="318.929" y1="193.028" x2="364.399" y2="193.028" gradientUnits="userSpaceOnUse">
<stop stop-color="#F2F2F2" stop-opacity="0"/>
<stop offset="1" stop-color="#F2F2F2"/>
</linearGradient>
<linearGradient id="paint21_linear" x1="427.899" y1="222.739" x2="429" y2="222.739" gradientUnits="userSpaceOnUse">
<stop stop-color="#F2F2F2" stop-opacity="0"/>
<stop offset="1" stop-color="#F2F2F2"/>
</linearGradient>
<linearGradient id="paint22_linear" x1="345.254" y1="206.126" x2="372.947" y2="206.126" gradientUnits="userSpaceOnUse">
<stop stop-color="#EE782C" stop-opacity="0"/>
<stop offset="1" stop-color="#EE782C"/>
</linearGradient>
<linearGradient id="paint23_linear" x1="350.316" y1="223.492" x2="383.489" y2="223.492" gradientUnits="userSpaceOnUse">
<stop stop-color="#EE782C" stop-opacity="0"/>
<stop offset="1" stop-color="#EE782C"/>
</linearGradient>
<linearGradient id="paint24_linear" x1="358.51" y1="244.635" x2="388.37" y2="244.635" gradientUnits="userSpaceOnUse">
<stop stop-color="#EE782C" stop-opacity="0"/>
<stop offset="1" stop-color="#EE782C"/>
</linearGradient>
<linearGradient id="paint25_linear" x1="378.972" y1="262.644" x2="392.696" y2="262.644" gradientUnits="userSpaceOnUse">
<stop stop-color="#EE782C" stop-opacity="0"/>
<stop offset="1" stop-color="#EE782C"/>
</linearGradient>
<linearGradient id="paint26_linear" x1="210.208" y1="43.4427" x2="232.187" y2="43.4427" gradientUnits="userSpaceOnUse">
<stop stop-color="#575581" stop-opacity="0"/>
<stop offset="1" stop-color="#575581"/>
</linearGradient>
<linearGradient id="paint27_linear" x1="258.377" y1="2.71463" x2="263.649" y2="54.1071" gradientUnits="userSpaceOnUse">
<stop stop-color="#575581" stop-opacity="0"/>
<stop offset="1" stop-color="#575581"/>
</linearGradient>
<linearGradient id="paint28_linear" x1="269.977" y1="1.54501" x2="275.249" y2="52.9378" gradientUnits="userSpaceOnUse">
<stop stop-color="#575581" stop-opacity="0"/>
<stop offset="1" stop-color="#575581"/>
</linearGradient>
<linearGradient id="paint29_linear" x1="215.17" y1="30.8522" x2="232.762" y2="30.8522" gradientUnits="userSpaceOnUse">
<stop stop-color="#F2F2F2" stop-opacity="0"/>
<stop offset="1" stop-color="#F2F2F2"/>
</linearGradient>
<linearGradient id="paint30_linear" x1="248.551" y1="13.2814" x2="258.909" y2="13.2814" gradientUnits="userSpaceOnUse">
<stop stop-color="#F2F2F2" stop-opacity="0"/>
<stop offset="1" stop-color="#F2F2F2"/>
</linearGradient>
<linearGradient id="paint31_linear" x1="125.229" y1="203.893" x2="157.131" y2="222.863" gradientUnits="userSpaceOnUse">
<stop stop-color="#575581" stop-opacity="0"/>
<stop offset="1" stop-color="#130030"/>
</linearGradient>
<linearGradient id="paint32_linear" x1="144.687" y1="142.417" x2="213.438" y2="142.417" gradientUnits="userSpaceOnUse">
<stop stop-color="#575581" stop-opacity="0"/>
<stop offset="1" stop-color="#130030"/>
</linearGradient>
<linearGradient id="paint33_linear" x1="124.037" y1="233.632" x2="182.184" y2="151.987" gradientUnits="userSpaceOnUse">
<stop stop-color="#575581" stop-opacity="0"/>
<stop offset="1" stop-color="#130030"/>
</linearGradient>
<linearGradient id="paint34_linear" x1="167.397" y1="246.322" x2="129.864" y2="217.77" gradientUnits="userSpaceOnUse">
<stop stop-color="#575581" stop-opacity="0"/>
<stop offset="1" stop-color="#575581"/>
</linearGradient>
<linearGradient id="paint35_linear" x1="216.639" y1="199.139" x2="93.6317" y2="255.922" gradientUnits="userSpaceOnUse">
<stop stop-color="#575581" stop-opacity="0"/>
<stop offset="1" stop-color="#575581"/>
</linearGradient>
<linearGradient id="paint36_linear" x1="198.746" y1="183.409" x2="204.428" y2="138.287" gradientUnits="userSpaceOnUse">
<stop stop-color="#575581" stop-opacity="0"/>
<stop offset="1" stop-color="#575581"/>
</linearGradient>
<linearGradient id="paint37_linear" x1="254.757" y1="156.289" x2="169.861" y2="294.858" gradientUnits="userSpaceOnUse">
<stop stop-color="#575581" stop-opacity="0"/>
<stop offset="1" stop-color="#575581"/>
</linearGradient>
<linearGradient id="paint38_linear" x1="139.318" y1="173.641" x2="242.82" y2="224.134" gradientUnits="userSpaceOnUse">
<stop stop-color="#575581" stop-opacity="0"/>
<stop offset="1" stop-color="#575581"/>
</linearGradient>
<linearGradient id="paint39_linear" x1="115.138" y1="223.204" x2="218.64" y2="273.697" gradientUnits="userSpaceOnUse">
<stop stop-color="#575581" stop-opacity="0"/>
<stop offset="1" stop-color="#575581"/>
</linearGradient>
<linearGradient id="paint40_linear" x1="130.908" y1="216.456" x2="193.532" y2="150.237" gradientUnits="userSpaceOnUse">
<stop stop-color="#575581" stop-opacity="0"/>
<stop offset="1" stop-color="#575581"/>
</linearGradient>
<linearGradient id="paint41_linear" x1="153.923" y1="195.034" x2="169.637" y2="180.112" gradientUnits="userSpaceOnUse">
<stop stop-color="#575581" stop-opacity="0"/>
<stop offset="1" stop-color="#130030"/>
</linearGradient>
<linearGradient id="paint42_linear" x1="191.289" y1="164.627" x2="207.749" y2="233.483" gradientUnits="userSpaceOnUse">
<stop stop-color="#575581" stop-opacity="0"/>
<stop offset="1" stop-color="#575581"/>
</linearGradient>
<linearGradient id="paint43_linear" x1="204.162" y1="232.842" x2="173.825" y2="197.379" gradientUnits="userSpaceOnUse">
<stop stop-color="#575581" stop-opacity="0"/>
<stop offset="1" stop-color="#130030"/>
</linearGradient>
<linearGradient id="paint44_linear" x1="119.377" y1="217.47" x2="129.062" y2="217.47" gradientUnits="userSpaceOnUse">
<stop stop-color="#575581" stop-opacity="0"/>
<stop offset="1" stop-color="#575581"/>
</linearGradient>
<linearGradient id="paint45_linear" x1="199.113" y1="89.6549" x2="191.822" y2="182.89" gradientUnits="userSpaceOnUse">
<stop stop-color="#575581" stop-opacity="0"/>
<stop offset="1" stop-color="#575581"/>
</linearGradient>
<linearGradient id="paint46_linear" x1="156.895" y1="96.9251" x2="222.475" y2="103.928" gradientUnits="userSpaceOnUse">
<stop stop-color="#F2F2F2" stop-opacity="0"/>
<stop offset="1" stop-color="#F2F2F2"/>
</linearGradient>
<linearGradient id="paint47_linear" x1="200.254" y1="128.592" x2="228.519" y2="128.592" gradientUnits="userSpaceOnUse">
<stop stop-color="#F2F2F2" stop-opacity="0"/>
<stop offset="1" stop-color="#F2F2F2"/>
</linearGradient>
<linearGradient id="paint48_linear" x1="406.063" y1="241.2" x2="427.241" y2="207.998" gradientUnits="userSpaceOnUse">
<stop stop-color="#EE782C" stop-opacity="0"/>
<stop offset="1" stop-color="#EE782C"/>
</linearGradient>
<linearGradient id="paint49_linear" x1="422.683" y1="224.998" x2="384.217" y2="295.833" gradientUnits="userSpaceOnUse">
<stop stop-color="#575E19" stop-opacity="0"/>
<stop offset="1" stop-color="#575E19"/>
</linearGradient>
<linearGradient id="paint50_linear" x1="395.753" y1="222.071" x2="442.157" y2="292.688" gradientUnits="userSpaceOnUse">
<stop stop-color="#F2F2F2" stop-opacity="0"/>
<stop offset="1" stop-color="#F2F2F2"/>
</linearGradient>
<linearGradient id="paint51_linear" x1="404.301" y1="216.454" x2="450.705" y2="287.071" gradientUnits="userSpaceOnUse">
<stop stop-color="#F2F2F2" stop-opacity="0"/>
<stop offset="1" stop-color="#F2F2F2"/>
</linearGradient>
<linearGradient id="paint52_linear" x1="273.794" y1="78.8346" x2="312.596" y2="78.8346" gradientUnits="userSpaceOnUse">
<stop stop-color="#575581" stop-opacity="0"/>
<stop offset="1" stop-color="#575581"/>
</linearGradient>
<linearGradient id="paint53_linear" x1="305.417" y1="46.4995" x2="276.931" y2="154.891" gradientUnits="userSpaceOnUse">
<stop stop-color="#575581" stop-opacity="0"/>
<stop offset="1" stop-color="#575581"/>
</linearGradient>
<linearGradient id="paint54_linear" x1="322.449" y1="38.272" x2="280.473" y2="161.466" gradientUnits="userSpaceOnUse">
<stop stop-color="#F2F2F2" stop-opacity="0"/>
<stop offset="1" stop-color="#F2F2F2"/>
</linearGradient>
</defs>
</svg>
