<?xml version="1.0" encoding="iso-8859-1"?>
<!-- Generator: Adobe Illustrator 19.0.0, SVG Export Plug-In . SVG Version: 6.00 Build 0)  -->
<svg version="1.1" id="Layer_1" xmlns="http://www.w3.org/2000/svg" xmlns:xlink="http://www.w3.org/1999/xlink" x="0px" y="0px"
	 viewBox="0 0 512 512" style="enable-background:new 0 0 512 512;" xml:space="preserve">
<circle style="fill:#88C5CC;" cx="256" cy="256" r="256"/>
<path style="fill:#80B9BF;" d="M501.96,326.944c-0.096-0.244-0.188-0.472-0.288-0.712c-0.264-0.692-0.54-1.368-0.824-2.044
	c-0.268-0.692-0.544-1.38-0.832-2.064c-0.264-0.692-0.54-1.364-0.824-2.044c-0.268-0.688-0.544-1.376-0.832-2.064
	c-0.264-0.676-0.532-1.348-0.812-2.02c-0.272-0.696-0.552-1.388-0.84-2.084c-0.26-0.68-0.54-1.36-0.824-2.032
	c-0.264-0.696-0.544-1.38-0.828-2.06c-0.264-0.692-0.548-1.38-0.828-2.068c-0.26-0.688-0.544-1.36-0.828-2.04
	c-0.26-0.692-0.548-1.38-0.828-2.064c-0.26-0.676-0.536-1.348-0.82-2.02c-0.264-0.7-0.548-1.388-0.836-2.084
	c-0.26-0.684-0.544-1.364-0.828-2.04c-0.26-0.692-0.544-1.38-0.828-2.064c-0.26-0.688-0.54-1.368-0.828-2.04
	c-0.256-0.688-0.54-1.376-0.828-2.056c-0.26-0.692-0.54-1.38-0.828-2.064c-0.26-0.68-0.532-1.352-0.82-2.024
	c-0.26-0.696-0.548-1.384-0.836-2.084c-0.256-0.684-0.54-1.36-0.816-2.036c-0.268-0.692-0.552-1.384-0.832-2.072
	c-0.264-0.68-0.548-1.36-0.824-2.032c-0.268-0.696-0.552-1.384-0.832-2.068c-0.264-0.684-0.548-1.36-0.824-2.036
	c-0.26-0.688-0.544-1.36-0.82-2.04c-0.268-0.696-0.552-1.388-0.84-2.084c-0.256-0.684-0.548-1.36-0.824-2.036
	c-0.26-0.696-0.552-1.384-0.832-2.072c-0.256-0.68-0.548-1.36-0.824-2.032c-0.26-0.696-0.544-1.384-0.832-2.068
	c-0.256-0.684-0.54-1.364-0.824-2.036c-0.26-0.696-0.544-1.388-0.832-2.068c-0.256-0.68-0.532-1.352-0.816-2.024
	c-0.26-0.692-0.544-1.38-0.832-2.068c-0.264-0.696-0.548-1.384-0.832-2.072c-0.26-0.68-0.54-1.36-0.816-2.036
	c-0.272-0.692-0.556-1.38-0.836-2.068c-0.264-0.68-0.544-1.36-0.82-2.032c-0.272-0.7-0.556-1.388-0.836-2.072
	c-0.26-0.676-0.536-1.348-0.812-2.02c-0.272-0.7-0.556-1.396-0.844-2.084c-0.26-0.688-0.544-1.36-0.82-2.04
	c-0.264-0.688-0.548-1.372-0.828-2.052c-0.268-0.692-0.548-1.38-0.836-2.068c-0.26-0.68-0.54-1.364-0.82-2.036
	c-0.268-0.696-0.548-1.384-0.836-2.068c-0.26-0.676-0.532-1.348-0.812-2.024c-0.268-0.696-0.548-1.392-0.836-2.08
	c-0.264-0.688-0.54-1.364-0.828-2.04c-0.264-0.692-0.548-1.384-0.828-2.064c-0.264-0.688-0.54-1.36-0.824-2.04
	c-0.268-0.692-0.552-1.38-0.832-2.068c-0.264-0.684-0.54-1.36-0.824-2.036c-0.268-0.688-0.544-1.376-0.828-2.056
	c-0.268-0.688-0.544-1.368-0.828-2.048c-0.268-0.692-0.544-1.376-0.832-2.056c-0.264-0.696-0.548-1.384-0.832-2.064
	c-0.26-0.688-0.544-1.364-0.824-2.044c-0.264-0.688-0.548-1.38-0.832-2.064c-0.26-0.684-0.544-1.364-0.824-2.036
	c-0.264-0.696-0.544-1.384-0.832-2.072c-0.26-0.672-0.532-1.344-0.816-2.016c-0.264-0.696-0.544-1.384-0.832-2.072
	c-0.268-0.696-0.548-1.384-0.832-2.068c-0.264-0.688-0.54-1.36-0.82-2.04c-0.272-0.692-0.552-1.38-0.836-2.068
	c-0.264-0.68-0.54-1.36-0.82-2.04c-0.272-0.688-0.552-1.376-0.836-2.064c-0.264-0.676-0.532-1.348-0.812-2.02
	c-0.268-0.7-0.552-1.388-0.844-2.084c-0.256-0.68-0.54-1.364-0.82-2.036c-0.26-0.688-0.544-1.376-0.828-2.056
	c-0.264-0.692-0.548-1.38-0.836-2.068c-0.256-0.688-0.54-1.36-0.82-2.04c-0.264-0.688-0.548-1.376-0.836-2.064
	c-0.256-0.676-0.532-1.348-0.812-2.024c-0.264-0.696-0.548-1.384-0.836-2.084c-0.26-0.68-0.54-1.36-0.828-2.032
	c-0.26-0.696-0.548-1.388-0.828-2.068c-0.26-0.688-0.54-1.36-0.82-2.04c-0.268-0.688-0.548-1.376-0.828-2.056
	c-0.268-0.688-0.556-1.38-0.832-2.064c-0.264-0.68-0.536-1.352-0.816-2.024c-0.264-0.696-0.556-1.388-0.84-2.084
	c-0.26-0.68-0.544-1.36-0.824-2.036c-0.264-0.696-0.548-1.384-0.832-2.064c-0.26-0.688-0.544-1.368-0.824-2.04
	c-0.264-0.696-0.548-1.384-0.832-2.068c-0.26-0.684-0.54-1.364-0.824-2.036c-0.264-0.696-0.544-1.384-0.832-2.068
	c-0.26-0.68-0.532-1.352-0.816-2.024c-0.264-0.688-0.544-1.38-0.832-2.068c-0.26-0.696-0.548-1.384-0.832-2.072
	c-3.9-10.024-9.852-19.428-17.944-27.532c-31.248-31.244-81.9-31.244-113.132,0L106.12,292.54
	c-23.7,23.704-29.38,58.564-17.12,87.648c0.264,0.688,0.54,1.36,0.824,2.04c0.264,0.688,0.536,1.36,0.82,2.04
	c0.272,0.696,0.548,1.388,0.84,2.084c0.264,0.68,0.54,1.36,0.824,2.032c0.268,0.7,0.544,1.388,0.832,2.068
	c0.264,0.688,0.54,1.36,0.824,2.04c0.268,0.696,0.544,1.384,0.832,2.064c0.264,0.688,0.54,1.368,0.824,2.04
	c0.268,0.696,0.544,1.384,0.832,2.068c0.264,0.68,0.532,1.352,0.816,2.024c0.268,0.696,0.548,1.384,0.836,2.084
	c0.264,0.68,0.54,1.36,0.824,2.032c0.268,0.692,0.544,1.376,0.828,2.056c0.268,0.696,0.548,1.384,0.832,2.072
	c0.264,0.68,0.54,1.36,0.824,2.032c0.268,0.696,0.548,1.384,0.832,2.068c0.264,0.68,0.532,1.352,0.816,2.024
	c0.272,0.7,0.548,1.388,0.84,2.084c0.264,0.68,0.54,1.36,0.824,2.036c0.268,0.692,0.544,1.38,0.832,2.068
	c0.264,0.68,0.54,1.36,0.824,2.04c0.264,0.688,0.54,1.368,0.828,2.052c0.268,0.692,0.544,1.384,0.832,2.064
	c0.264,0.68,0.532,1.352,0.816,2.028c0.268,0.696,0.548,1.384,0.836,2.08c0.264,0.684,0.54,1.36,0.824,2.04
	c0.268,0.688,0.548,1.376,0.832,2.064c0.264,0.688,0.54,1.36,0.824,2.04c0.268,0.692,0.548,1.38,0.832,2.068
	c0.264,0.68,0.54,1.36,0.824,2.032c0.264,0.692,0.536,1.364,0.82,2.044c0.272,0.696,0.548,1.388,0.84,2.08
	c0.264,0.688,0.54,1.36,0.824,2.04c0.268,0.688,0.544,1.384,0.832,2.064c0.264,0.688,0.54,1.36,0.824,2.04
	c0.268,0.692,0.544,1.38,0.832,2.068c0.264,0.68,0.54,1.364,0.824,2.036c0.264,0.688,0.54,1.368,0.824,2.048
	c0.268,0.692,0.544,1.376,0.828,2.056c0.268,0.688,0.544,1.376,0.828,2.056c0.268,0.696,0.548,1.384,0.832,2.064
	c0.264,0.688,0.54,1.364,0.824,2.04c0.268,0.692,0.548,1.38,0.832,2.072c0.264,0.68,0.54,1.36,0.824,2.032
	c0.268,0.696,0.548,1.384,0.832,2.068c0.264,0.676,0.532,1.348,0.816,2.02c0.272,0.696,0.548,1.392,0.84,2.084
	c0.148,0.384,0.308,0.752,0.46,1.132C165.928,499.54,209.496,512,256,512C372.756,512,471.188,433.804,501.96,326.944z"/>
<path style="fill:#F5F5F5;" d="M292.764,106.092L106.092,292.764c-31.244,31.248-31.244,81.9,0,113.14s81.896,31.244,113.136,0
	l186.676-186.68c31.244-31.248,31.244-81.9,0-113.132C374.66,74.852,324.012,74.852,292.764,106.092z"/>
<path style="fill:#E6E6E6;" d="M219.232,405.908l186.672-186.672c31.248-31.248,31.248-81.9,0-113.14L106.088,405.908
	C137.336,437.148,187.988,437.148,219.232,405.908z"/>
<path style="fill:#CC584C;" d="M292.764,106.092L196.6,202.256L309.736,315.4l96.172-96.172c31.248-31.248,31.248-81.9,0-113.132
	C374.66,74.852,324.012,74.852,292.764,106.092z"/>
<path style="fill:#BF5347;" d="M309.744,315.4l96.164-96.164c31.252-31.248,31.252-81.9,0-113.14l-152.736,152.74L309.744,315.4z"/>
<g>
</g>
<g>
</g>
<g>
</g>
<g>
</g>
<g>
</g>
<g>
</g>
<g>
</g>
<g>
</g>
<g>
</g>
<g>
</g>
<g>
</g>
<g>
</g>
<g>
</g>
<g>
</g>
<g>
</g>
</svg>
