<?xml version="1.0" encoding="utf-8"?>
<!-- Generator: Adobe Illustrator 16.0.0, SVG Export Plug-In . SVG Version: 6.00 Build 0)  -->
<!DOCTYPE svg PUBLIC "-//W3C//DTD SVG 1.1//EN" "http://www.w3.org/Graphics/SVG/1.1/DTD/svg11.dtd">
<svg version="1.1" xmlns="http://www.w3.org/2000/svg" xmlns:xlink="http://www.w3.org/1999/xlink" x="0px" y="0px" width="1400px"
	 height="980px" viewBox="0 0 1400 980" enable-background="new 0 0 1400 980" xml:space="preserve">
<g id="BACKGROUND">
	<rect x="-14" y="-7" fill="#A3D4E5" width="1424" height="994"/>
</g>
<g id="OBJECT">
	<linearGradient id="SVGID_1_" gradientUnits="userSpaceOnUse" x1="634.3369" y1="42.3379" x2="634.3633" y2="42.4052">
		<stop  offset="0" style="stop-color:#EE782C;stop-opacity:0"/>
		<stop  offset="1" style="stop-color:#EE782C"/>
	</linearGradient>
	<path fill="url(#SVGID_1_)" d="M634.35,42.38c-0.03-0.02-0.03-0.04-0.02-0.05C634.35,42.31,634.36,42.33,634.35,42.38z"/>
	<g>
		<g>
			<defs>
				<circle id="SVGID_2_" cx="692.043" cy="487.043" r="417.043"/>
			</defs>
			<clipPath id="SVGID_3_">
				<use xlink:href="#SVGID_2_"  overflow="visible"/>
			</clipPath>
			<g clip-path="url(#SVGID_3_)">
				<rect x="238" y="73" fill="#190334" width="922" height="864"/>
				<linearGradient id="SVGID_4_" gradientUnits="userSpaceOnUse" x1="416.6943" y1="535.8535" x2="346.6943" y2="299.8535">
					<stop  offset="0" style="stop-color:#EE782C;stop-opacity:0"/>
					<stop  offset="1" style="stop-color:#EE782C"/>
				</linearGradient>
				<polygon opacity="0.8" fill="url(#SVGID_4_)" points="413,574 362.787,574 340.996,530 322,530 322,210 413,210 				"/>
				<linearGradient id="SVGID_5_" gradientUnits="userSpaceOnUse" x1="455.8032" y1="477.6572" x2="673.8029" y2="329.6575">
					<stop  offset="0" style="stop-color:#F2F2F2;stop-opacity:0"/>
					<stop  offset="1" style="stop-color:#F2F2F2"/>
				</linearGradient>
				<polygon opacity="0.3" fill="url(#SVGID_5_)" points="681,612 443.162,612 404.608,568 371,568 371,248 532,248 				"/>
				<g>
					<path opacity="0.4" fill="#39335D" d="M358,522.212c0,0.987-0.801,1.788-1.789,1.788h-39.423c-0.988,0-1.789-0.801-1.789-1.788
						v-15.424c0-0.987,0.801-1.788,1.789-1.788h39.423c0.988,0,1.789,0.801,1.789,1.788V522.212z"/>
					<path fill="#34285E" d="M382,498.211c0,0.988-0.801,1.789-1.789,1.789h-39.423c-0.988,0-1.789-0.801-1.789-1.789v-15.422
						c0-0.988,0.801-1.789,1.789-1.789h39.423c0.988,0,1.789,0.801,1.789,1.789V498.211z"/>
					<path opacity="0.7" fill="#39335D" d="M408,522.212c0,0.987-0.801,1.788-1.789,1.788h-39.423c-0.988,0-1.789-0.801-1.789-1.788
						v-15.424c0-0.987,0.801-1.788,1.789-1.788h39.423c0.988,0,1.789,0.801,1.789,1.788V522.212z"/>
				</g>
				<g>
					<path fill="#34285E" d="M495,551.212c0,0.987-0.801,1.788-1.789,1.788h-39.423c-0.988,0-1.789-0.801-1.789-1.788v-15.424
						c0-0.987,0.801-1.788,1.789-1.788h39.423c0.988,0,1.789,0.801,1.789,1.788V551.212z"/>
					<path opacity="0.7" fill="#39335D" d="M519,527.211c0,0.988-0.801,1.789-1.789,1.789h-39.423c-0.988,0-1.789-0.801-1.789-1.789
						v-15.422c0-0.988,0.801-1.789,1.789-1.789h39.423c0.988,0,1.789,0.801,1.789,1.789V527.211z"/>
					<path opacity="0.4" fill="#39335D" d="M545,551.212c0,0.987-0.801,1.788-1.789,1.788h-39.423c-0.988,0-1.789-0.801-1.789-1.788
						v-15.424c0-0.987,0.801-1.788,1.789-1.788h39.423c0.988,0,1.789,0.801,1.789,1.788V551.212z"/>
				</g>
				<g>
					<path opacity="0.4" fill="#39335D" d="M596,478.212c0,0.987-0.801,1.788-1.789,1.788h-39.423c-0.988,0-1.789-0.801-1.789-1.788
						v-15.424c0-0.987,0.801-1.788,1.789-1.788h39.423c0.988,0,1.789,0.801,1.789,1.788V478.212z"/>
					<path opacity="0.7" fill="#39335D" d="M646,478.212c0,0.987-0.801,1.788-1.789,1.788h-39.423c-0.988,0-1.789-0.801-1.789-1.788
						v-15.424c0-0.987,0.801-1.788,1.789-1.788h39.423c0.988,0,1.789,0.801,1.789,1.788V478.212z"/>
				</g>
				<rect x="923" y="53" fill="#39335D" width="231" height="590"/>
				<linearGradient id="SVGID_6_" gradientUnits="userSpaceOnUse" x1="972.3516" y1="195.3477" x2="1050.3516" y2="375.3477">
					<stop  offset="0" style="stop-color:#575581;stop-opacity:0"/>
					<stop  offset="1" style="stop-color:#130030"/>
				</linearGradient>
				<rect x="923" y="53" fill="url(#SVGID_6_)" width="231" height="590"/>
				<linearGradient id="SVGID_7_" gradientUnits="userSpaceOnUse" x1="1025.3213" y1="271.4092" x2="909.8271" y2="550.3951">
					<stop  offset="0" style="stop-color:#F2F2F2;stop-opacity:0"/>
					<stop  offset="1" style="stop-color:#F2F2F2"/>
				</linearGradient>
				<polygon fill="url(#SVGID_7_)" points="1062.775,646.507 923,643 923,53 956.359,49.114 				"/>
				<linearGradient id="SVGID_8_" gradientUnits="userSpaceOnUse" x1="1001.0176" y1="169.6255" x2="997.0176" y2="489.6255">
					<stop  offset="0" style="stop-color:#EE782C;stop-opacity:0"/>
					<stop  offset="1" style="stop-color:#EE782C"/>
				</linearGradient>
				<polygon fill="url(#SVGID_8_)" points="1034,289 968,248 968,53 1034,53 				"/>
				<linearGradient id="SVGID_9_" gradientUnits="userSpaceOnUse" x1="1036.9795" y1="299.0684" x2="874.9802" y2="109.0692">
					<stop  offset="0" style="stop-color:#F2F2F2;stop-opacity:0"/>
					<stop  offset="1" style="stop-color:#F2F2F2"/>
				</linearGradient>
				<polygon fill="url(#SVGID_9_)" points="1055,420 989,379 989,184 1055,184 				"/>
				<path fill="#39486C" d="M310.146,636.584c0,0,70.496-34.498,109.494-37.498s118.494-65.996,209.99-68.996
					s298.485,59.997,298.485,59.997S616.13,704.081,593.631,707.081S310.146,636.584,310.146,636.584z"/>
				<linearGradient id="SVGID_10_" gradientUnits="userSpaceOnUse" x1="603.4629" y1="834.6953" x2="323.4631" y2="931.6953">
					<stop  offset="0" style="stop-color:#F2F2F2;stop-opacity:0"/>
					<stop  offset="1" style="stop-color:#F2F2F2"/>
				</linearGradient>
				<path opacity="0.5" fill="url(#SVGID_10_)" d="M259,634v330h895V605c0,0-185.887-26.911-280.383-16.412
					c-94.495,10.499-184.49,61.495-254.987,59.996S334.348,608.916,259,634z"/>
				<path fill="#34285E" d="M259,647v330h895V618c0,0-185.887-26.911-280.383-16.412C779.122,612.087,693.299,661.334,623,666.82
					C531,674,342,608.191,259,647z"/>
				<linearGradient id="SVGID_11_" gradientUnits="userSpaceOnUse" x1="705.1465" y1="813.71" x2="1017.1465" y2="419.7099">
					<stop  offset="0" style="stop-color:#F2F2F2;stop-opacity:0"/>
					<stop  offset="1" style="stop-color:#F2F2F2"/>
				</linearGradient>
				<path fill="url(#SVGID_11_)" d="M259,647v330h895V618c0,0-185.887-26.911-280.383-16.412
					C779.122,612.087,693.299,661.334,623,666.82C531,674,342,608.191,259,647z"/>
				<linearGradient id="SVGID_12_" gradientUnits="userSpaceOnUse" x1="563.3105" y1="915.4365" x2="857.2954" y2="831.4404">
					<stop  offset="0" style="stop-color:#575581;stop-opacity:0"/>
					<stop  offset="1" style="stop-color:#130030"/>
				</linearGradient>
				<path fill="url(#SVGID_12_)" d="M254,711v330h895V682c0,0-185.887-26.911-280.383-16.412
					c-94.495,10.499-184.49,61.495-254.987,59.996S329.348,685.916,254,711z"/>
				<polygon opacity="0.7" fill="#190334" points="875.978,695.17 737.01,728.033 650.87,777.248 568,804 568.45,817 
					419.122,810.833 440.34,860.072 587.2,904.087 706.5,851.667 750.99,867.572 882.617,787.765 				"/>
			</g>
			<g clip-path="url(#SVGID_3_)">
				<rect x="238" y="73" fill="#6373A4" width="294" height="378"/>
				<rect x="580" y="64" fill="#6373A4" width="181" height="387"/>
				<polygon fill="#516493" points="270,302 248,302 248,451 520.22,451 521,391 478,391 478,345 452,345 452,381 444,373.14 
					444,336 424,336 424,353 408,353 408,272 384,272 384,371 359,371 359,328 328.67,298 309,298 309,341 298,329.5 298,303 
					289,303 289,341 270,341 				"/>
				<polyline fill="#516493" points="668,232 662,232 662,243 654,243 654,287 631,287 631,302 621,302 621,257 603,257 603,280 
					580,280 580,451 760,451 760,336 741,336 741,245 705,245 705,307 685,307 685,242 675,242 675,233 671,233 				"/>
				<linearGradient id="SVGID_13_" gradientUnits="userSpaceOnUse" x1="395.5" y1="486.5913" x2="395.5" y2="183.1576">
					<stop  offset="0" style="stop-color:#575581;stop-opacity:0"/>
					<stop  offset="1" style="stop-color:#130030"/>
				</linearGradient>
				<polygon opacity="0.7" fill="url(#SVGID_13_)" points="510,335 532,335 532,451 259.78,451 259,404 302,404 302,368 328,368 
					328,396.286 336,390.143 336,361 356,361 356,374 372,374 372,311 396,311 396,388 421,388 421,354.86 451.33,331 471,331 
					471,365.021 482,356.033 482,335 491,335 491,365 510,365 				"/>
				<linearGradient id="SVGID_14_" gradientUnits="userSpaceOnUse" x1="670.0005" y1="486.5913" x2="670.0005" y2="183.1576">
					<stop  offset="0" style="stop-color:#575581;stop-opacity:0"/>
					<stop  offset="1" style="stop-color:#130030"/>
				</linearGradient>
				<polygon opacity="0.7" fill="url(#SVGID_14_)" points="760,317 760,451 580,451 580,361 599,361 599,290 635,290 635,338 
					655,338 655,288 665,288 665,281 669,281 669,226 672,226 672,280 678,280 678,288 686,288 686,323 709,323 709,335 719,335 
					719,299 737,299 737,317 				"/>
				<rect x="789" y="53" fill="#39335D" width="106" height="398"/>
				<g>
					<g>
						<rect x="789" y="80" fill="#6373A4" width="106" height="13"/>
						<polygon fill="#190334" points="789,89 889.102,89 895,80 789,80 						"/>
					</g>
					<g>
						<rect x="789" y="92" fill="#6373A4" width="106" height="13"/>
						<polygon fill="#190334" points="789,101 889.102,101 895,92 789,92 						"/>
					</g>
					<g>
						<rect x="789" y="104" fill="#6373A4" width="106" height="13"/>
						<polygon fill="#190334" points="789,113 889.102,113 895,104 789,104 						"/>
					</g>
					<g>
						<rect x="789" y="116" fill="#6373A4" width="106" height="13"/>
						<polygon fill="#190334" points="789,125 889.102,125 895,116 789,116 						"/>
					</g>
					<g>
						<rect x="789" y="128" fill="#6373A4" width="106" height="13"/>
						<polygon fill="#190334" points="789,137 889.102,137 895,128 789,128 						"/>
					</g>
					<g>
						<rect x="789" y="140" fill="#6373A4" width="106" height="13"/>
						<polygon fill="#190334" points="789,149 889.102,149 895,140 789,140 						"/>
					</g>
					<g>
						<rect x="789" y="152" fill="#6373A4" width="106" height="13"/>
						<polygon fill="#190334" points="789,161 889.102,161 895,152 789,152 						"/>
					</g>
					<g>
						<rect x="789" y="164" fill="#6373A4" width="106" height="13"/>
						<polygon fill="#190334" points="789,173 889.102,173 895,164 789,164 						"/>
					</g>
					<g>
						<rect x="789" y="176" fill="#6373A4" width="106" height="13"/>
						<polygon fill="#190334" points="789,185 889.102,185 895,176 789,176 						"/>
					</g>
					<g>
						<rect x="789" y="188" fill="#6373A4" width="106" height="13"/>
						<polygon fill="#190334" points="789,197 889.102,197 895,188 789,188 						"/>
					</g>
					<g>
						<rect x="789" y="200" fill="#6373A4" width="106" height="13"/>
						<polygon fill="#190334" points="789,209 889.102,209 895,200 789,200 						"/>
					</g>
					<g>
						<rect x="789" y="212" fill="#6373A4" width="106" height="13"/>
						<polygon fill="#190334" points="789,221 889.102,221 895,212 789,212 						"/>
					</g>
					<g>
						<rect x="789" y="224" fill="#6373A4" width="106" height="13"/>
						<polygon fill="#190334" points="789,233 889.102,233 895,224 789,224 						"/>
					</g>
					<g>
						<rect x="789" y="236" fill="#6373A4" width="106" height="13"/>
						<polygon fill="#190334" points="789,245 889.102,245 895,236 789,236 						"/>
					</g>
					<g>
						<rect x="789" y="248" fill="#6373A4" width="106" height="13"/>
						<polygon fill="#190334" points="789,257 889.102,257 895,248 789,248 						"/>
					</g>
					<g>
						<rect x="789" y="260" fill="#6373A4" width="106" height="13"/>
						<polygon fill="#190334" points="789,269 889.102,269 895,260 789,260 						"/>
					</g>
					<g>
						<rect x="789" y="272" fill="#6373A4" width="106" height="13"/>
						<polygon fill="#190334" points="789,281 889.102,281 895,272 789,272 						"/>
					</g>
					<g>
						<rect x="789" y="284" fill="#6373A4" width="106" height="13"/>
						<polygon fill="#190334" points="789,293 889.102,293 895,284 789,284 						"/>
					</g>
					<g>
						<rect x="789" y="296" fill="#6373A4" width="106" height="13"/>
						<polygon fill="#190334" points="789,305 889.102,305 895,296 789,296 						"/>
					</g>
					<g>
						<rect x="789" y="308" fill="#6373A4" width="106" height="13"/>
						<polygon fill="#190334" points="789,317 889.102,317 895,308 789,308 						"/>
					</g>
					<g>
						<rect x="789" y="320" fill="#6373A4" width="106" height="13"/>
						<polygon fill="#190334" points="789,329 889.102,329 895,320 789,320 						"/>
					</g>
					<g>
						<rect x="789" y="332" fill="#6373A4" width="106" height="13"/>
						<polygon fill="#190334" points="789,341 889.102,341 895,332 789,332 						"/>
					</g>
					<g>
						<rect x="789" y="344" fill="#6373A4" width="106" height="13"/>
						<polygon fill="#190334" points="789,353 889.102,353 895,344 789,344 						"/>
					</g>
					<g>
						<rect x="789" y="356" fill="#6373A4" width="106" height="13"/>
						<polygon fill="#190334" points="789,365 889.102,365 895,356 789,356 						"/>
					</g>
					<g>
						<rect x="789" y="368" fill="#6373A4" width="106" height="13"/>
						<polygon fill="#190334" points="789,377 889.102,377 895,368 789,368 						"/>
					</g>
					<g>
						<rect x="789" y="380" fill="#6373A4" width="106" height="13"/>
						<polygon fill="#190334" points="789,389 889.102,389 895,380 789,380 						"/>
					</g>
					<g>
						<rect x="789" y="392" fill="#6373A4" width="106" height="13"/>
						<polygon fill="#190334" points="789,401 889.102,401 895,392 789,392 						"/>
					</g>
					<g>
						<rect x="789" y="404" fill="#6373A4" width="106" height="13"/>
						<polygon fill="#190334" points="789,413 889.102,413 895,404 789,404 						"/>
					</g>
					<g>
						<rect x="789" y="416" fill="#6373A4" width="106" height="13"/>
						<polygon fill="#190334" points="789,425 889.102,425 895,416 789,416 						"/>
					</g>
					<g>
						<rect x="789" y="428" fill="#6373A4" width="106" height="13"/>
						<polygon fill="#190334" points="789,437 889.102,437 895,428 789,428 						"/>
					</g>
					<g>
						<rect x="789" y="440" fill="#6373A4" width="106" height="13"/>
						<polygon fill="#190334" points="789,449 889.102,449 895,440 789,440 						"/>
					</g>
				</g>
				<g>
					<path fill="none" stroke="#342E4F" stroke-width="2" stroke-miterlimit="10" d="M400,401.593c0,0,52.5,32.407,76,49.407"/>
					<path fill="none" stroke="#342E4F" stroke-width="2" stroke-miterlimit="10" d="M486.19,451.436
						c0,0-23.006-33.482-39.639-47.436"/>
					<path fill="none" stroke="#342E4F" stroke-width="2" stroke-miterlimit="10" d="M479.5,396.5c0,0,5.756,37.655,15.256,54.655"
						/>
					<path fill="#C1CFCA" d="M447.4,407.8c-0.92,0.82-1.95,1.34-3.07,1.53c-12,2-28.66-31.33-34.66-42.66
						c-6-11.34-18-24.67-22-52.67s0-56.5,0-56.5c0.33,0.08,0.64,0.21,0.95,0.39c5.35,3.02,8.07,19.58,14.38,33.44
						c6.67,14.67,28.67,24.67,41.33,50C455.81,364.3,456.34,399.85,447.4,407.8z"/>
					<path fill="#C1CFCA" d="M483.01,404.73c-5.79,4.76-14.77,3.5-19.34-6.06c-7.34-15.34,1.33-39.34,4-49.34
						c2.66-10,3.33-28,6.66-28c0,0,0.08,0.41,0.23,1.13c0.83,3.9,3.74,17,7.11,24.87c4,9.34,5.33,24.67,6.66,42.67
						C488.83,396.78,486.5,401.85,483.01,404.73z"/>
					<path fill="#C1CFCA" d="M438.33,426.67c0,0-0.14,0.23-0.47,0.6c-1.24,1.45-5.19,5.14-14.19,6.73c-11.34,2-53.34-18-60.67-24.58
						s-16.67-5.42-23.33-16.75c-5.95-10.11-1.29-15.44-0.21-16.48c0.13-0.13,0.21-0.19,0.21-0.19s11.33,2,16.66,4.67
						c5.34,2.66,27.34,3.33,44,10.66C417,398.67,438.33,426.67,438.33,426.67z"/>
					<linearGradient id="SVGID_15_" gradientUnits="userSpaceOnUse" x1="336.7041" y1="405.165" x2="437.8599" y2="405.165">
						<stop  offset="0" style="stop-color:#575581;stop-opacity:0"/>
						<stop  offset="1" style="stop-color:#130030"/>
					</linearGradient>
					<path opacity="0.6" fill="url(#SVGID_15_)" d="M437.86,427.27c-1.24,1.45-5.19,5.14-14.19,6.73c-11.34,2-53.34-18-60.67-24.58
						s-16.67-5.42-23.33-16.75c-5.95-10.11-1.29-15.44-0.21-16.48c3.67,2.66,28.45,20.42,47.54,27.81
						C405.02,410.98,431.4,424.03,437.86,427.27z"/>
					<linearGradient id="SVGID_16_" gradientUnits="userSpaceOnUse" x1="385.8921" y1="333.458" x2="447.3999" y2="333.458">
						<stop  offset="0" style="stop-color:#575581;stop-opacity:0"/>
						<stop  offset="1" style="stop-color:#130030"/>
					</linearGradient>
					<path opacity="0.7" fill="url(#SVGID_16_)" d="M447.4,407.8c-0.92,0.82-1.95,1.34-3.07,1.53c-12,2-28.66-31.33-34.66-42.66
						c-6-11.34-18-24.67-22-52.67s0-56.5,0-56.5c0.33,0.08,0.64,0.21,0.95,0.39c1.95,11.34,6.47,34.2,13.38,49.11
						C410.78,325.94,440.89,375.18,447.4,407.8z"/>
					<linearGradient id="SVGID_17_" gradientUnits="userSpaceOnUse" x1="478.3101" y1="311.4326" x2="472.8101" y2="385.4322">
						<stop  offset="0" style="stop-color:#575581;stop-opacity:0"/>
						<stop  offset="1" style="stop-color:#130030"/>
					</linearGradient>
					<path opacity="0.7" fill="url(#SVGID_17_)" d="M483.01,404.73c-5.79,4.76-14.77,3.5-19.34-6.06c-7.34-15.34,1.33-39.34,4-49.34
						c2.66-10,3.33-28,6.66-28c0,0,0.08,0.41,0.23,1.13c0,13.12,0.37,42.44,3.44,51.82C481.14,383.86,486.43,394.54,483.01,404.73z"
						/>
					<path fill="none" stroke="#EAE7C5" stroke-width="2" stroke-miterlimit="10" d="M374.5,407.426c0,0,40.72,20.614,63.36,19.844"
						/>
					<path fill="none" stroke="#EAE7C5" stroke-width="2" stroke-miterlimit="10" d="M400,324.5c0,0,28.66,74.16,44.33,84.83"/>
					<path fill="none" stroke="#EAE7C5" stroke-width="2" stroke-miterlimit="10" d="M472.453,353c0,0-1.769,40.236,2.139,54.368"/>
				</g>
				<rect x="532" y="93" fill="#F2EED0" width="13" height="358"/>
				<rect x="753" y="70" fill="#F2EED0" width="13" height="381"/>
				<linearGradient id="SVGID_18_" gradientUnits="userSpaceOnUse" x1="538.5" y1="233.105" x2="538.5" y2="492.6091">
					<stop  offset="0" style="stop-color:#575581;stop-opacity:0"/>
					<stop  offset="1" style="stop-color:#130030"/>
				</linearGradient>
				<rect x="532" y="93" opacity="0.7" fill="url(#SVGID_18_)" width="13" height="358"/>
				<linearGradient id="SVGID_19_" gradientUnits="userSpaceOnUse" x1="759.5" y1="233.105" x2="759.5" y2="492.6091">
					<stop  offset="0" style="stop-color:#575581;stop-opacity:0"/>
					<stop  offset="1" style="stop-color:#130030"/>
				</linearGradient>
				<rect x="753" y="70" opacity="0.7" fill="url(#SVGID_19_)" width="13" height="381"/>
			</g>
			<linearGradient id="SVGID_20_" gradientUnits="userSpaceOnUse" x1="803.0996" y1="171.9053" x2="981.9186" y2="627.423">
				<stop  offset="0" style="stop-color:#EE782C;stop-opacity:0"/>
				<stop  offset="1" style="stop-color:#EE782C"/>
			</linearGradient>
			<rect x="789" y="86" clip-path="url(#SVGID_3_)" fill="url(#SVGID_20_)" width="106" height="370"/>
			<g clip-path="url(#SVGID_3_)">
				<linearGradient id="SVGID_21_" gradientUnits="userSpaceOnUse" x1="664.5747" y1="261.2271" x2="999.5747" y2="641.2271">
					<stop  offset="0" style="stop-color:#F2F2F2;stop-opacity:0"/>
					<stop  offset="1" style="stop-color:#F2F2F2"/>
				</linearGradient>
				<rect x="580" y="69" fill="url(#SVGID_21_)" width="152" height="365"/>
				<linearGradient id="SVGID_22_" gradientUnits="userSpaceOnUse" x1="631.8672" y1="167.4927" x2="735.7821" y2="285.3663">
					<stop  offset="0" style="stop-color:#F2F2F2;stop-opacity:0"/>
					<stop  offset="1" style="stop-color:#F2F2F2"/>
				</linearGradient>
				<polygon fill="url(#SVGID_22_)" points="700.72,69 580,285.25 580,193.89 649.72,69 				"/>
				<linearGradient id="SVGID_23_" gradientUnits="userSpaceOnUse" x1="656.1694" y1="233.918" x2="796.6586" y2="393.2787">
					<stop  offset="0" style="stop-color:#F2F2F2;stop-opacity:0"/>
					<stop  offset="1" style="stop-color:#F2F2F2"/>
				</linearGradient>
				<polygon fill="url(#SVGID_23_)" points="732,69 732,131.14 580,398.45 580,308.76 716.33,69 				"/>
				<linearGradient id="SVGID_24_" gradientUnits="userSpaceOnUse" x1="403.5674" y1="271.2432" x2="635.5674" y2="667.243">
					<stop  offset="0" style="stop-color:#F2F2F2;stop-opacity:0"/>
					<stop  offset="1" style="stop-color:#F2F2F2"/>
				</linearGradient>
				<rect x="271" y="69" fill="url(#SVGID_24_)" width="242" height="365"/>
				<linearGradient id="SVGID_25_" gradientUnits="userSpaceOnUse" x1="343.7925" y1="268.1611" x2="458.8745" y2="398.7019">
					<stop  offset="0" style="stop-color:#F2F2F2;stop-opacity:0"/>
					<stop  offset="1" style="stop-color:#F2F2F2"/>
				</linearGradient>
				<polygon fill="url(#SVGID_25_)" points="426,149 287,398 271,398 271,335.3 375,149 				"/>
				<linearGradient id="SVGID_26_" gradientUnits="userSpaceOnUse" x1="401.311" y1="274.0825" x2="542.3132" y2="434.0252">
					<stop  offset="0" style="stop-color:#F2F2F2;stop-opacity:0"/>
					<stop  offset="1" style="stop-color:#F2F2F2"/>
				</linearGradient>
				<polygon fill="url(#SVGID_26_)" points="513,103 513,113.55 330.78,434 279.78,434 468,103 				"/>
			</g>
			<g clip-path="url(#SVGID_3_)">
				<path fill="#ED7625" d="M1000,348c0,0-39-14.332-59-26.666S856,287,844,318s-4,66,24,73s70,26,82,9s19-25.999,34-24
					S1000,348,1000,348z"/>
				<linearGradient id="SVGID_27_" gradientUnits="userSpaceOnUse" x1="922.6445" y1="368.2505" x2="937.5837" y2="404.1046">
					<stop  offset="0" style="stop-color:#575581;stop-opacity:0"/>
					<stop  offset="1" style="stop-color:#130030"/>
				</linearGradient>
				<path fill="url(#SVGID_27_)" d="M996,352.357c0,0-37.238-12.099-57.238-24.433S856,287,844,318s-4,66,24,73s70,26,82,9
					s19-25.999,34-24S996,352.357,996,352.357z"/>
				<path fill="#ED7625" d="M811.332,328.914c0,0-82.832-5.581-100.166,9.752C693.833,354,692.751,384.174,725.25,409.42
					c32.5,25.246,69.75,0,69.75,0L811.332,328.914z"/>
				<linearGradient id="SVGID_28_" gradientUnits="userSpaceOnUse" x1="701.9561" y1="378.6904" x2="810.1562" y2="378.6904">
					<stop  offset="0" style="stop-color:#575581;stop-opacity:0"/>
					<stop  offset="1" style="stop-color:#130030"/>
				</linearGradient>
				<path fill="url(#SVGID_28_)" d="M810.156,339c0,0-76.748-8.333-94.081,7c-17.333,15.333-23.324,38.174,9.175,63.42
					c32.5,25.246,69.75,0,69.75,0L810.156,339z"/>
				<path fill="#190334" d="M967.57,334.8c-0.24,6.53-14.9,3.87-20.24,8.53C942,348,933.33,346,930,348s3.33-5.75,0-14.54
					s-17.3-16.89-22-4.55c0,0,8,11.09,6.67,15.09c-1.34,4-15.34-8.67-17.67,0s-13.67,24.67-28.33,26.67c-14.67,2-70-10-73.67-22.67
					s6.33-14,9.67-26.67c2.391-9.07,6.49-28.77,14.02-41.65c2.98-5.1,6.49-9.12,10.641-11.01c14.67-6.67,28,0,28,0s4-9,20.67-11.17
					c15.9-2.07,36.65,14.82,49.52,34.32c0.621,0.94,1.23,1.9,1.811,2.85C942,315.33,948,320,956,321.33
					C964,322.67,967.811,328.26,967.57,334.8z"/>
				<linearGradient id="SVGID_29_" gradientUnits="userSpaceOnUse" x1="882.8906" y1="330.4453" x2="841.8906" y2="412.4455">
					<stop  offset="0" style="stop-color:#EE782C;stop-opacity:0"/>
					<stop  offset="1" style="stop-color:#EE782C"/>
				</linearGradient>
				<path fill="url(#SVGID_29_)" d="M907.999,328.914c0,0,7.999,11.085,6.667,15.085c-1.334,4-15.332-8.667-17.666,0
					s-13.668,24.667-28.334,26.667c-14.667,2-69.998-10-73.666-22.667s20.666-9.333,24-22s-4.335-50.667,10.332-57.333
					c14.668-6.667,28,0,28,0s4-9,20.667-11.167s38.667,16.5,51.333,37.167c12.667,20.667,18.667,25.335,26.667,26.667
					s11.812,6.927,11.572,13.463s-14.905,3.87-20.239,8.536c-5.333,4.667-14,2.667-17.333,4.667s3.333-5.747,0-14.54
					S912.701,316.574,907.999,328.914z"/>
				<path fill="#B0B100" d="M963,376c0,0,20.385-4.669,24.332-18.001s3.947-13.333,3.947-13.333L978,339.292
					c0,0,8.56,0.962,13.279-5.832c4.719-6.794,21.5,0,21.5,0s7.219,3.873,7.219,9.873s6,9.775,16.666,9.888
					c10.668,0.112,27.09,0.779,36.879,6.779s38.064,57.596,47.064,111.593s2.782,150.218-27.107,206.352
					s-73.619,97.199-73.619,97.199L897,660.582l-43.379-61.497l34.498-110.994L963,376z"/>
				<linearGradient id="SVGID_30_" gradientUnits="userSpaceOnUse" x1="994.043" y1="525.125" x2="975.043" y2="707.1252">
					<stop  offset="0" style="stop-color:#575581;stop-opacity:0"/>
					<stop  offset="1" style="stop-color:#130030"/>
				</linearGradient>
				<path fill="url(#SVGID_30_)" d="M963,376c0,0,20.385-4.669,24.332-18.001s3.947-13.333,3.947-13.333L978,339.292
					c0,0,8.56,0.962,13.279-5.832c4.719-6.794,21.5,0,21.5,0s7.219,3.873,7.219,9.873s6,9.775,16.666,9.888
					c10.668,0.112,27.09,0.779,36.879,6.779s38.064,57.596,47.064,111.593s2.782,150.218-27.107,206.352
					s-73.619,97.199-73.619,97.199L897,660.582l-43.379-61.497l34.498-110.994L963,376z"/>
				<linearGradient id="SVGID_31_" gradientUnits="userSpaceOnUse" x1="953.75" y1="414.2607" x2="1010.7491" y2="752.2555">
					<stop  offset="0" style="stop-color:#575581;stop-opacity:0"/>
					<stop  offset="1" style="stop-color:#130030"/>
				</linearGradient>
				<path fill="url(#SVGID_31_)" d="M1074,421.43c9,54-7.12,128.01-37.01,184.15c-29.891,56.13-17.11,169.56-17.11,169.56
					L935.15,696.15L897,660.58l-43.38-61.5l34.5-110.99l22.33-33.42L963,376c0,0,20.38-4.67,24.33-18
					c3.949-13.33,3.949-13.33,3.949-13.33L978,339.29c0,0,8.561,0.96,13.279-5.83c3.021-4.34,10.961-3.13,16.301-1.69
					c3.01,0.81,5.199,1.69,5.199,1.69s7.221,3.87,7.221,9.87s6,9.78,16.66,9.89c10.67,0.11,27.09,0.78,36.88,6.78
					S1065,367.43,1074,421.43z"/>
				<path fill="#ED7625" d="M907.334,374.282c0,0-50.801-14.558-68.734-19.753c-17.932-5.195-58.934-18.138-77.1,0
					s-26.328,39.904-17.499,52.898S819.866,430.667,838.6,438c18.734,7.333,54.734,20,54.734,20l16.667-7L907.334,374.282z"/>
				<linearGradient id="SVGID_32_" gradientUnits="userSpaceOnUse" x1="807.3223" y1="381.3511" x2="872.3208" y2="453.3494">
					<stop  offset="0" style="stop-color:#575581;stop-opacity:0"/>
					<stop  offset="1" style="stop-color:#130030"/>
				</linearGradient>
				<path fill="url(#SVGID_32_)" d="M903,391c0,0-49.067-25.807-67-31.002s-56.334-23.606-74.5-5.468s-26.328,39.904-17.499,52.898
					S819.866,430.667,838.6,438c18.734,7.333,54.734,20,54.734,20l16.667-7L903,391z"/>
				<path fill="#ED7625" d="M448.734,741.295c0,0-17.974,27.819-34.768,38.681c-16.794,10.86-51.988,12.422-62.519,19.709
					c-10.531,7.287-7.948,15.485-7.948,15.485s31.778,2.211,58.712,4.084c26.935,1.874,53.903,3.269,59.326-2.629
					c5.422-5.898,5.149-23.961,9.063-33.211c3.915-9.251,13.993-24.444,13.993-24.444L448.734,741.295z"/>
				<linearGradient id="SVGID_33_" gradientUnits="userSpaceOnUse" x1="408.3184" y1="776.9609" x2="433.8174" y2="821.959">
					<stop  offset="0" style="stop-color:#575581;stop-opacity:0"/>
					<stop  offset="1" style="stop-color:#130030"/>
				</linearGradient>
				<path fill="url(#SVGID_33_)" d="M448.734,741.295c0,0-17.974,27.819-34.768,38.681c-16.794,10.86-51.988,12.422-62.519,19.709
					c-10.531,7.287-7.948,15.485-7.948,15.485s31.778,2.211,58.712,4.084c26.935,1.874,53.903,3.269,59.326-2.629
					c5.422-5.898,5.149-23.961,9.063-33.211c3.915-9.251,13.993-24.444,13.993-24.444L448.734,741.295z"/>
				<path fill="#B0B100" d="M877.334,407.427c0,0-6,30.573,0,50.573s10.667,18,10.667,18s19.333-1.889,37.333,0.056
					s53.998,7.278,74.666,5.278s37.334-20,37.334-42.667s-1.108-39.333-24.555-50.667c-23.445-11.333-52.112-8.103-65.445-13.718
					s-71.016-9.959-72.666-9.902S879.396,391.957,877.334,407.427z"/>
				<linearGradient id="SVGID_34_" gradientUnits="userSpaceOnUse" x1="934.998" y1="391.4297" x2="1026.9958" y2="584.425">
					<stop  offset="0" style="stop-color:#575581;stop-opacity:0"/>
					<stop  offset="1" style="stop-color:#130030"/>
				</linearGradient>
				<path fill="url(#SVGID_34_)" d="M1037.33,438.67c0,22.66-16.66,40.66-37.33,42.66s-56.67-3.33-74.67-5.27
					C907.33,474.11,888,476,888,476s-4.67,2-10.67-18s0-50.57,0-50.57c1.07-8.01-0.12-19.24-1.29-28.22
					c-0.14-1.06-0.28-2.1-0.41-3.09c-0.92-6.82-1.659-11.71-0.96-11.74c1.65-0.06,59.33,4.29,72.66,9.9
					c0.3,0.13,0.609,0.25,0.93,0.37c8.43,3.15,22.24,3.28,36.961,5.5c9.199,1.39,18.75,3.6,27.559,7.85
					C1036.23,399.33,1037.33,416,1037.33,438.67z"/>
				<path fill="#6BA6C6" d="M844,775.144c0,0-84-88.144-111-127.144s-63-75-63-75L472,760c0,0-43-21-45-37s18-24,25-38
					s46-66.844,52-78.422s33.786-53.786,33.786-53.786S589,489,599,473s41-52.242,51-66.121s17-32.878,24-30.878
					s15-0.815,51.5,25.592S845,747.287,844,775.144z"/>
				<linearGradient id="SVGID_35_" gradientUnits="userSpaceOnUse" x1="542.5708" y1="334.792" x2="638.5708" y2="757.792">
					<stop  offset="0" style="stop-color:#575581;stop-opacity:0"/>
					<stop  offset="1" style="stop-color:#130030"/>
				</linearGradient>
				<path opacity="0.5" fill="url(#SVGID_35_)" d="M844,775.144c0,0-84-88.144-111-127.144s-63-75-63-75L472,760c0,0-43-21-45-37
					s18-24,25-38s46-66.844,52-78.422s33.786-53.786,33.786-53.786S589,489,599,473s41-52.242,51-66.121s17-32.878,24-30.878
					s15-0.815,51.5,25.592S845,747.287,844,775.144z"/>
				<linearGradient id="SVGID_36_" gradientUnits="userSpaceOnUse" x1="426.8906" y1="581.0527" x2="844.0088" y2="581.0527">
					<stop  offset="0" style="stop-color:#575581;stop-opacity:0"/>
					<stop  offset="1" style="stop-color:#130030"/>
				</linearGradient>
				<path fill="url(#SVGID_36_)" d="M844,775.14c0,0-79.99-100.67-106.99-139.67S670,573,670,573l-57.81,54.6L472,760
					c0,0-43-21-45-37s24-17,31-31c2.89-5.78,10.21-19.37,18.24-34.16c11.41-21.02,24.24-44.46,27.76-51.26
					c6-11.58,33.79-53.79,33.79-53.79S593,494.21,603,478.21s46.5-39.33,56.5-53.21s13.5-36,20.5-34s9-15.81,45.5,10.59
					C762,428,845,747.29,844,775.14z"/>
				<linearGradient id="SVGID_37_" gradientUnits="userSpaceOnUse" x1="426.8906" y1="693.7998" x2="612.1899" y2="693.7998">
					<stop  offset="0" style="stop-color:#575581;stop-opacity:0"/>
					<stop  offset="1" style="stop-color:#130030"/>
				</linearGradient>
				<path fill="url(#SVGID_37_)" d="M612.19,627.6L472,760c0,0-43-21-45-37s24-17,31-31c2.89-5.78,10.21-19.37,18.24-34.16
					c2.9,11.62,11.18,20.43,32.76,8.98C535.04,653,577.01,638.06,612.19,627.6z"/>
				<linearGradient id="SVGID_38_" gradientUnits="userSpaceOnUse" x1="947.3809" y1="289.7998" x2="757.3809" y2="247.7998">
					<stop  offset="0" style="stop-color:#F2F2F2;stop-opacity:0"/>
					<stop  offset="1" style="stop-color:#F2F2F2"/>
				</linearGradient>
				<path opacity="0.5" fill="url(#SVGID_38_)" d="M927.52,291.82c-8.51,8.61-32.74-18.63-40.52-11.82c-8,7-21,11-34,0
					c-11.641-9.85-30.48-2.07-34.311-0.32c2.98-5.1,6.49-9.12,10.641-11.01c14.67-6.67,28,0,28,0s4-9,20.67-11.17
					C893.9,255.43,914.65,272.32,927.52,291.82z"/>
				<linearGradient id="SVGID_39_" gradientUnits="userSpaceOnUse" x1="930.2998" y1="375.2627" x2="991.9617" y2="504.6185">
					<stop  offset="0" style="stop-color:#575581;stop-opacity:0"/>
					<stop  offset="1" style="stop-color:#130030"/>
				</linearGradient>
				<path fill="url(#SVGID_39_)" d="M999,414c-18,0-29-30-42.641-22.77C942.721,398.47,985,440,968.439,439
					C951.87,438,932,408,908.5,386c-11.71-10.96-23.54-10.26-32.46-6.79c-1.09-8.38-2.17-14.8-1.37-14.83
					c1.65-0.06,59.33,4.29,72.66,9.9c8.33,3.51,22.62,3.57,37.891,5.87C987.109,392.86,1012.99,414,999,414z"/>
				<linearGradient id="SVGID_40_" gradientUnits="userSpaceOnUse" x1="952.5176" y1="362.5571" x2="880.5176" y2="375.5571">
					<stop  offset="0" style="stop-color:#F2F2F2;stop-opacity:0"/>
					<stop  offset="1" style="stop-color:#F2F2F2"/>
				</linearGradient>
				<path opacity="0.5" fill="url(#SVGID_40_)" d="M948.26,374.65c-4.17,1.77-9.3,3.1-14.76,2.59c-13.5-1.26-26-0.74-42.46-0.07
					c-6.71,0.27-11.771-0.29-15.41-1.05c-0.92-6.82-1.659-11.71-0.96-11.74c1.65-0.06,59.33,4.29,72.66,9.9
					C947.63,374.41,947.939,374.53,948.26,374.65z"/>
				<linearGradient id="SVGID_41_" gradientUnits="userSpaceOnUse" x1="1007.5449" y1="369.1211" x2="975.5449" y2="307.1211">
					<stop  offset="0" style="stop-color:#F2F2F2;stop-opacity:0"/>
					<stop  offset="1" style="stop-color:#F2F2F2"/>
				</linearGradient>
				<path fill="url(#SVGID_41_)" d="M1009,354.53c0,11.84-17.561,19.51-18.109,19.74c0.119-0.22,4.189-7.43,9.109-17.27
					c5-10-2.5-15.5-8.721-23.54c3.021-4.34,10.961-3.13,16.301-1.69C1006.91,337.04,1009,345.22,1009,354.53z"/>
				<linearGradient id="SVGID_42_" gradientUnits="userSpaceOnUse" x1="893.5293" y1="499.3926" x2="924.7502" y2="684.527">
					<stop  offset="0" style="stop-color:#575581;stop-opacity:0"/>
					<stop  offset="1" style="stop-color:#130030"/>
				</linearGradient>
				<path fill="url(#SVGID_42_)" d="M935.15,696.15L897,660.58l-43.38-61.5l34.5-110.99l22.33-33.42c10.44,8.17,32.7,28.21,37.81,54
					c6.74,34,9.23,77.15,19.32,96.91C976.359,622.76,945.1,679.5,935.15,696.15z"/>
			</g>
			<radialGradient id="SVGID_43_" cx="667.043" cy="486.0435" r="443.0432" gradientUnits="userSpaceOnUse">
				<stop  offset="0.749" style="stop-color:#575581;stop-opacity:0"/>
				<stop  offset="0.7966" style="stop-color:#534F7C;stop-opacity:0.1895"/>
				<stop  offset="0.8574" style="stop-color:#46406D;stop-opacity:0.4316"/>
				<stop  offset="0.9253" style="stop-color:#312554;stop-opacity:0.7024"/>
				<stop  offset="0.998" style="stop-color:#140131;stop-opacity:0.992"/>
				<stop  offset="1" style="stop-color:#130030"/>
			</radialGradient>
			<circle opacity="0.7" clip-path="url(#SVGID_3_)" fill="url(#SVGID_43_)" cx="667.043" cy="486.043" r="443.043"/>
			<linearGradient id="SVGID_44_" gradientUnits="userSpaceOnUse" x1="582.4551" y1="203.7822" x2="692.4546" y2="487.7809">
				<stop  offset="0" style="stop-color:#EE782C;stop-opacity:0"/>
				<stop  offset="1" style="stop-color:#EE782C"/>
			</linearGradient>
			<polygon clip-path="url(#SVGID_3_)" fill="url(#SVGID_44_)" points="580,298 563,265 563,86 580,86 			"/>
		</g>
		<circle fill="none" cx="692.043" cy="487.043" r="417.043"/>
		<g>
			<path fill="#ED7625" d="M509,774.965c0,0-2.94,5.268-6.07,11.479c-2.34,4.66-4.79,9.942-6.19,14.013
				c-0.1,0.29-0.2,0.622-0.29,0.923c-2.89,9.699-1.6,26.801-6.45,32.87c-5,6.26-32,6.751-59,6.751s-58.85,0-58.85,0s-3.15-8,6.85-16
				s45-12,61-24c7.1-5.33,14.21-14.01,19.91-22.01c0.88-1.24,1.73-2.46,2.54-3.65c0.63-0.92,1.23-1.82,1.81-2.7
				c4.72-7.17,7.74-12.814,7.74-12.814L499.74,771h0.01L509,774.965z"/>
			<linearGradient id="SVGID_45_" gradientUnits="userSpaceOnUse" x1="444.8911" y1="809.085" x2="539.8916" y2="766.0848">
				<stop  offset="0" style="stop-color:#575581;stop-opacity:0"/>
				<stop  offset="1" style="stop-color:#130030"/>
			</linearGradient>
			<path fill="url(#SVGID_45_)" d="M509,774.965c0,0-2.94,5.268-6.07,11.479c-2.34,4.66-8.863,0.487-10.263,4.558
				c-0.1,0.29-4.577,9.11-4.667,9.411c-2.89,9.699-7.36,23.519-12.21,29.588c-5,6.26-17.79,11-44.79,11s-58.85,0-58.85,0
				s-3.15-8,6.85-16s45-12,61-24c7.1-5.33,14.21-14.01,19.91-22.01c0.88-1.24,1.73-2.46,2.54-3.65c0.63-0.92,1.23-1.82,1.81-2.7
				c4.72-7.17,7.74-12.814,7.74-12.814L499.74,771h0.01L509,774.965z"/>
			<path fill="#6BA6C6" d="M1022.02,770c-26.83,23.06-51.68,34-75.49,37.42c-13.229,1.9-26.129,1.48-38.879-0.47
				c-14.041-2.141-27.881-6.15-41.75-10.95c-49.11-17.01-59.9-122-66.32-144c-3.98-13.68-21.79-62.14-34.689-96.85
				C757.029,534.02,751,517.99,751,517.99S724,575,706,597S586,717,572,738s-28,48-34.21,52c-3.92,2.52-20.29-0.12-34.86-3.47
				c-8.56-1.96-16.49-4.16-20.93-5.71c-3.6-1.261-7.73-3-11.76-4.99c-2.05-1.01-4.07-2.09-5.98-3.19
				C457.4,768.66,452,764.29,452,761c0-6,30-49,44.74-65.83C511.47,678.34,585,576,623,525c33.52-44.99,86.91-133.93,132.27-163.64
				c6.98-4.57,24.431,3.02,38.931,12.92c14.54,9.93,30.55,26.64,46.95,47.15C895.87,489.88,954.92,600.68,978,643
				C1008,698,1022.02,770,1022.02,770z"/>
			<path fill="#6BA6C6" d="M1022.02,770c-23.16,19.91-44.85,30.78-65.66,35.58c-3.299,0.76-6.569,1.37-9.83,1.84
				c-13.229,1.9-26.129,1.48-38.879-0.47c-14.041-2.141-27.881-6.15-41.75-10.95c-49.11-17.01-59.9-122-66.32-144
				c-3.98-13.68-21.79-62.14-34.689-96.85C757.029,534.02,751,517.99,751,517.99S724,575,706,597S586,717,572,738s-28,48-34.21,52
				c-3.92,2.52-20.29-0.12-34.86-3.47c-8.56-1.96-16.49-4.16-20.93-5.71c-1.95-0.681-4.05-1.5-6.21-2.431
				c-1.83-0.79-3.7-1.649-5.55-2.56c-0.11-0.061-0.23-0.11-0.34-0.17c-1.93-0.96-3.84-1.98-5.64-3.021
				C457.4,768.66,452,764.29,452,761c0-6,30-49,44.74-65.83C511.47,678.34,585,576,623,525c32.47-43.58,83.59-128.41,127.99-160.68
				c0.01-0.01,0.01-0.01,0.01-0.01c1.43-1.04,2.859-2.02,4.27-2.95c6.98-4.57,24.431,3.02,38.931,12.92
				c14.54,9.93,30.55,26.64,46.95,47.15C895.87,489.88,954.92,600.68,978,643C1008,698,1022.02,770,1022.02,770z"/>
			<linearGradient id="SVGID_46_" gradientUnits="userSpaceOnUse" x1="469.8999" y1="627.9883" x2="751" y2="627.9883">
				<stop  offset="0" style="stop-color:#575581;stop-opacity:0"/>
				<stop  offset="1" style="stop-color:#130030"/>
			</linearGradient>
			<path opacity="0.3" fill="url(#SVGID_46_)" d="M751,517.99c0,0-27,57.01-45,79.01S586,717,572,738s-28,48-34.21,52
				c-3.92,2.52-20.29-0.12-34.86-3.47c-8.56-1.96-16.49-4.16-20.93-5.71c-3.6-1.261-7.73-2.83-11.76-4.82c-0.11-0.061-0.23,0-0.34,0
				h0.34c9.8,0,20.12-2,29.5-5h0.01c6.77-2,13.04-3.98,18.25-6.17c19-8,10-31.92,18-42.92s72-39.95,81-59.95s-59,1.021-59-13.979
				s88-29.99,114-67.08c26-37.08,44-114.91,61-115.91S751,517.99,751,517.99z"/>
			<linearGradient id="SVGID_47_" gradientUnits="userSpaceOnUse" x1="764.8906" y1="614.4248" x2="1022.0195" y2="614.4248">
				<stop  offset="0" style="stop-color:#575581;stop-opacity:0"/>
				<stop  offset="1" style="stop-color:#130030"/>
			</linearGradient>
			<path fill="url(#SVGID_47_)" d="M1022.02,770c-26.83,23.06-51.68,34-75.49,37.42c-10.5-1.729-18.659-2.97-22.949-2.2
				c-3.58,0.641-9.12,1.221-15.93,1.73c-14.041-2.141-27.881-6.15-41.75-10.95c-49.11-17.01-59.9-122-66.32-144
				c-3.98-13.68-21.79-62.14-34.689-96.85c9.129,3.689,22.779,11.229,33.109,25.76c17,23.92,38,3.09,60-33.91
				c13.779-23.18-2.65-83.63-16.85-125.57C895.87,489.88,954.92,600.68,978,643C1008,698,1022.02,770,1022.02,770z"/>
			<linearGradient id="SVGID_48_" gradientUnits="userSpaceOnUse" x1="475.79" y1="619.9043" x2="956.3594" y2="619.9043">
				<stop  offset="0" style="stop-color:#575581;stop-opacity:0"/>
				<stop  offset="1" style="stop-color:#130030"/>
			</linearGradient>
			<path opacity="0.3" fill="url(#SVGID_48_)" d="M956.359,805.58c-3.299,0.76-6.569,1.37-9.83,1.84
				c-13.229,1.9-26.129,1.48-38.879-0.47c-14.041-2.141-27.881-6.15-41.75-10.95c-49.11-17.01-59.9-122-66.32-144
				c-3.98-13.68-21.79-62.14-34.689-96.85C757.029,534.02,751,517.99,751,517.99S724,575,706,597S586,717,572,738s-28,48-34.21,52
				c-3.92,2.52-20.29-0.12-34.86-3.47c-8.56-1.96-16.49-4.16-20.93-5.71c-1.95-0.681-4.05-1.5-6.21-2.431
				c13.6-16.31,46.75-57.1,56.21-78.39c12-27,77.29-60.32,85-72.97C624.71,614.37,705,455,742,438s38-2.907,59,49.043
				c21,51.961,90,193.377,107.5,219.667C924.35,730.53,950.32,790.72,956.359,805.58z"/>
			<g>
				<g>
					<path fill="none" stroke="#342E4F" stroke-width="2" stroke-miterlimit="10" d="M455.57,752.876c0,0,0.63,0.308,1.803,0.854"/>
					<path fill="none" stroke="#342E4F" stroke-width="2" stroke-miterlimit="10" stroke-dasharray="4.0066,4.0066" d="
						M461.016,755.391c14.021,6.26,52.388,22.029,82.752,21.855"/>
					<path fill="none" stroke="#342E4F" stroke-width="2" stroke-miterlimit="10" d="M545.783,777.211
						c0.669-0.02,1.335-0.048,1.996-0.085"/>
				</g>
			</g>
			<linearGradient id="SVGID_49_" gradientUnits="userSpaceOnUse" x1="496.7402" y1="529.7451" x2="750.9902" y2="529.7451">
				<stop  offset="0" style="stop-color:#F2F2F2;stop-opacity:0"/>
				<stop  offset="1" style="stop-color:#F2F2F2"/>
			</linearGradient>
			<path opacity="0.5" fill="url(#SVGID_49_)" d="M750.99,364.32c-0.32,0.6-12.79,23.81-22.66,33.68
				C718.33,408,633,518.67,619,542.67s-99.85,147.67-122.26,152.5C511.47,678.34,585,576,623,525
				C655.47,481.42,706.59,396.59,750.99,364.32z"/>
		</g>
		<g>
			<path opacity="0.7" fill="#190334" d="M876,635.467c0,0,24-40.643,65-54.555l35,38.992L876,635.467z"/>
			<path fill="#A3D4E5" d="M710.5,849c0.87,3.47-16.17,2.93-30.69,1.85C669.24,850.07,660,849,660,849l-47-4l-55-5l102-70
				c0,0,21.31,4.63,38.08,7.59c7.859,1.391,14.73,2.41,17.92,2.41c10,0,45,11,45,11S709,843,710.5,849z"/>
			<path fill="#39335D" d="M1024.705,627.028c0,0,26.561,1.771,38.07,19.479c11.51,17.707,2.656,83.224,6.198,101.815
				c3.541,18.593,19.478,80.567,14.165,100.046c-5.312,19.478-41.611,36.3-86.765,28.331
				c-45.153-7.968-23.904-116.307-20.363-118.801C979.553,755.405,1024.705,627.028,1024.705,627.028z"/>
			<linearGradient id="SVGID_50_" gradientUnits="userSpaceOnUse" x1="1122.6289" y1="879.8242" x2="986.629" y2="711.8242">
				<stop  offset="0" style="stop-color:#575581;stop-opacity:0"/>
				<stop  offset="1" style="stop-color:#130030"/>
			</linearGradient>
			<path fill="url(#SVGID_50_)" d="M1060,701c0,0-8.734-72.201,2.775-54.493c11.51,17.707,2.656,83.224,6.198,101.815
				c3.541,18.593,19.478,80.567,14.165,100.046c-5.312,19.478-41.611,36.3-86.765,28.331
				c-45.153-7.968,50.085-114.38,53.626-116.874C1053.541,757.332,1060,701,1060,701z"/>
			<path fill="#EFF0CD" d="M706.5,766l-36,29L645,817h-36.5L568,804l12-8c0,0,25-12,35-20c5.78-4.62,13.95-11.34,19.81-16.17
				c4.28-3.54,7.33-6.07,7.33-6.07L706.5,766z"/>
			<path fill="#6171A2" d="M996.374,876.699c15.052-7.968,40.727-15.937,39.841-72.6c-0.885-56.662-6.197-92.962-3.541-115.096
				s11.51-46.039-7.969-61.976c-19.478-15.937-99.16-36.3-135.459-5.312c-36.3,30.987-49.58,65.654-53.121,107.197
				c-3.542,41.542-9.739,94.664-20.363,115.027c-10.625,20.363-10.625,38.07,40.727,38.955
				C907.838,883.782,996.374,876.699,996.374,876.699z"/>
			<linearGradient id="SVGID_51_" gradientUnits="userSpaceOnUse" x1="990.7969" y1="667.4199" x2="1037.7969" y2="913.4199">
				<stop  offset="0" style="stop-color:#F2F2F2;stop-opacity:0"/>
				<stop  offset="1" style="stop-color:#F2F2F2"/>
			</linearGradient>
			<path opacity="0.5" fill="url(#SVGID_51_)" d="M1022.02,651.952c0,0-31.02,28.597-32.02,92.322s0,97.865,0,97.865
				s8.575-6.474,15.787-14.807c7.213-8.333,11.908-32.683,10.561-67.508S1010.898,675.515,1022.02,651.952z"/>
			<linearGradient id="SVGID_52_" gradientUnits="userSpaceOnUse" x1="925.2402" y1="680.3965" x2="909.2404" y2="907.7279">
				<stop  offset="0" style="stop-color:#575581;stop-opacity:0"/>
				<stop  offset="1" style="stop-color:#130030"/>
			</linearGradient>
			<path fill="url(#SVGID_52_)" d="M1007,676.67c-2.66,22.13-10.891,67.08-10,123.74c0.88,56.67,14.43,68.32-0.63,76.29
				c0,0-88.53,7.08-139.88,6.2c-51.35-0.891-51.35-18.601-40.73-38.96c4.45-8.521,8.12-22.79,11.15-39.54
				c4.199-23.271,7.15-51.33,9.21-75.49c3.55-41.54,16.83-76.21,53.13-107.19c20.01-17.09,53.221-18.56,82.25-13.77
				c23.62,3.89,44.471,11.93,53.21,19.08C1044.18,642.96,1009.65,654.53,1007,676.67z"/>
			<linearGradient id="SVGID_53_" gradientUnits="userSpaceOnUse" x1="902.5635" y1="658.4727" x2="890.815" y2="825.3986">
				<stop  offset="0" style="stop-color:#575581;stop-opacity:0"/>
				<stop  offset="1" style="stop-color:#130030"/>
			</linearGradient>
			<path fill="url(#SVGID_53_)" d="M971.5,607.95c-0.109,0.56-0.221,1.12-0.34,1.689c-8.07,39.96-27.29,119.32-60.439,167.95
				c-20.361,29.87-53.33,33.09-83.811,26.811c4.199-23.271,7.15-51.33,9.21-75.49c1.55-18.141,4.95-34.97,11.319-50.75
				c8.221-20.37,21.36-38.99,41.811-56.44C909.26,604.63,942.471,603.16,971.5,607.95z"/>
			<linearGradient id="SVGID_54_" gradientUnits="userSpaceOnUse" x1="888.5156" y1="667.6514" x2="1070.0063" y2="609.1543">
				<stop  offset="0" style="stop-color:#EE782C;stop-opacity:0"/>
				<stop  offset="1" style="stop-color:#EE782C"/>
			</linearGradient>
			<path opacity="0.8" fill="url(#SVGID_54_)" d="M971.5,607.95c-0.109,0.56-0.221,1.12-0.34,1.689
				C956.23,620.86,927.48,645.2,915.1,674.3C898,714.5,875.98,722,875.98,722H853c0,0,3.16-23.96,9.08-35.23
				c3.609-6.88-6.34-8.439-14.641-8.609c8.221-20.37,21.36-38.99,41.811-56.44C909.26,604.63,942.471,603.16,971.5,607.95z"/>
			<path fill="#6171A2" d="M966.641,787.76c-2.961,13.83-8.82,27.79-11.431,42.9c-3.989,23.02-11.09,39.81-46.489,46.04
				c-5.98,1.05-12.4,2-19.021,2.81c-32.511,3.98-69.851,4.54-84.56-2.81c-17.711-8.851-28.33-29.811-16.82-56.07
				c10.14-23.149,19.15-43.1,21.33-58.42c0.3-2.06,0.47-4.03,0.51-5.92c0.29-15.94,4.72-26.42,21.54-27.37
				c16.819-0.96,77.51,3.61,91.87,0c14.369-3.62,18.8,5.021,18.8,5.021c10.62,4.64,23.021,10.84,25.67,32.09
				C968.95,773.33,968.189,780.53,966.641,787.76z"/>
			<path fill="#39335D" d="M966.641,787.76c-5.99-3.979-13.261-9.52-20.73-15.939c-3.311-2.84-7.08-4.71-11.35-5.851
				c-16.301-4.37-39.971,1.87-73.65,5.37c-14.74,1.54-28.301-0.76-39.83-4.6c-4.08-1.351-7.9-2.891-11.43-4.53
				c0.3-2.06,0.47-4.03,0.51-5.92c0.29-15.94,4.72-26.42,21.54-27.37c13.329-0.76,54.239,1.95,77.771,1.311
				c6.149-0.171,11.119-0.57,14.1-1.311c14.369-3.62,18.8,5.021,18.8,5.021c10.62,4.64,23.021,10.84,25.67,32.09
				C968.95,773.33,968.189,780.53,966.641,787.76z"/>
			<path fill="#D9E3C2" d="M1016.33,621.73c-0.29,13.869-4.91,14.71-8.53,13.189c-2.38-1-4.34-3.02-4.34-3.02
				s3.54-31.431-7.53-35.42c-11.07-3.98-34.08-7.961-39.4-4.87c-5.309,3.1-12.389,11.56-12.389,13.97s-15.94,3.74-15.94,3.74
				s10.63-27.44,21.25-28.33c6.649-0.561,19.729,2.02,31.079,4.01c6.771,1.2,12.931,2.19,16.73,2.19
				C1007.439,587.19,1016.811,598.73,1016.33,621.73z"/>
			<path fill="#D9E3C2" d="M941,674.84v31.87c0,0-19.77-5.41-32.17-6.41c-3.061-0.25-5.67-0.229-7.42,0.21
				c-0.48,0.12-0.99,0.23-1.51,0.311c-3.721,0.67-8.4,0.67-12.631,0.42c-3.299-0.181-6.319-0.51-8.399-0.771
				c-1.78-0.22-2.87-0.399-2.87-0.399V668.2c0,0,9.41-1.09,19.93-1.33c4.98-0.11,10.2-0.04,14.791,0.43
				c2.069,0.22,4.01,0.51,5.739,0.9c0.55,0.13,1.101,0.25,1.649,0.38c4.521,1.05,8.69,2.13,12.19,3.09
				C936.79,673.46,941,674.84,941,674.84z"/>
			<polygon opacity="0.4" fill="#190334" points="645,817 702,778.267 693.205,776.71 			"/>
			<linearGradient id="SVGID_55_" gradientUnits="userSpaceOnUse" x1="676.3652" y1="725.7461" x2="662.3651" y2="816.7474">
				<stop  offset="0" style="stop-color:#575581;stop-opacity:0"/>
				<stop  offset="1" style="stop-color:#130030"/>
			</linearGradient>
			<path opacity="0.3" fill="url(#SVGID_55_)" d="M706.5,766l-36,29L645,817h-19c14.67-7,24.67-25.33,23.67-38.33
				s-14.86-18.84-14.86-18.84c4.28-3.54,7.33-6.07,7.33-6.07L706.5,766z"/>
			<linearGradient id="SVGID_56_" gradientUnits="userSpaceOnUse" x1="729.6055" y1="742.9961" x2="713.2703" y2="849.1749">
				<stop  offset="0" style="stop-color:#575581;stop-opacity:0"/>
				<stop  offset="1" style="stop-color:#130030"/>
			</linearGradient>
			<path opacity="0.3" fill="url(#SVGID_56_)" d="M710.5,849c0.87,3.47-16.17,2.93-30.69,1.85c7.83-8.93,20.57-25.199,24.19-40.02
				c5.33-21.83-19.43-27.16-19.43-27.16l13.51-6.08c7.859,1.391,14.73,2.41,17.92,2.41c10,0,45,11,45,11S709,843,710.5,849z"/>
			
				<line fill="none" stroke="#342E4F" stroke-width="2" stroke-miterlimit="10" x1="615.333" y1="823.333" x2="698.333" y2="831.333"/>
			<line fill="none" stroke="#342E4F" stroke-width="2" stroke-miterlimit="10" x1="656.833" y1="819.666" x2="702" y2="823.333"/>
			
				<line fill="none" stroke="#342E4F" stroke-width="2" stroke-miterlimit="10" x1="666.25" y1="810.834" x2="707.666" y2="819.666"/>
			<line fill="none" stroke="#342E4F" stroke-width="2" stroke-miterlimit="10" x1="675.333" y1="800.412" x2="712" y2="812.666"/>
			
				<line fill="none" stroke="#342E4F" stroke-width="2" stroke-miterlimit="10" x1="686.958" y1="793.666" x2="716.075" y2="805.216"/>
			
				<line fill="none" stroke="#342E4F" stroke-width="2" stroke-miterlimit="10" x1="698.333" y1="787.765" x2="728.334" y2="796.855"/>
			<polygon fill="#6BA6C6" points="598.333,796.855 610.45,802.333 626,791.001 612.167,786.666 			"/>
			<linearGradient id="SVGID_57_" gradientUnits="userSpaceOnUse" x1="635.3335" y1="784.5938" x2="673.5" y2="784.5938">
				<stop  offset="0" style="stop-color:#575581;stop-opacity:0"/>
				<stop  offset="1" style="stop-color:#130030"/>
			</linearGradient>
			<polygon fill="url(#SVGID_57_)" points="635.333,794.5 648,796.855 673.5,777.59 659.5,772.333 			"/>
			<g>
				<g>
					<path fill="#ED7625" d="M602.385,836.103c2.431-1.979,3.908-4.841,6.321-6.849c1.177-0.979-0.51-2.646-1.676-1.677
						c-2.414,2.008-3.891,4.871-6.322,6.849C599.522,835.392,601.21,837.059,602.385,836.103L602.385,836.103z"/>
				</g>
				<g>
					<path fill="#ED7625" d="M593.593,835.617c2.411,0.725,4.966,0.592,7.375,1.316c1.468,0.441,2.09-1.847,0.63-2.286
						c-2.411-0.726-4.966-0.592-7.375-1.316C592.756,832.89,592.133,835.178,593.593,835.617L593.593,835.617z"/>
				</g>
				<g>
					<path fill="#ED7625" d="M597.808,832.192c1.762,0.523,3.445,1.284,5.268,1.58c1.495,0.243,2.136-2.041,0.63-2.286
						c-1.823-0.296-3.506-1.056-5.268-1.58C596.969,829.47,596.346,831.758,597.808,832.192L597.808,832.192z"/>
				</g>
				<g>
					<path fill="#ED7625" d="M608.204,823.178c-4.86-2.609-10.306-1.1-13.68,3.147c-2.922,3.679-3.232,9.218,0.759,12.27
						c4.578,3.501,11.137,3.853,15.171-0.616c4.117-4.562,2.341-11.052-1.748-14.879c-1.114-1.043-2.794,0.63-1.676,1.676
						c3.113,2.915,4.523,6.961,2.246,10.834c-2.524,4.292-7.948,3.799-11.709,1.707c-3.873-2.154-3.435-6.711-1.009-9.766
						c2.557-3.219,6.812-4.278,10.449-2.326C608.354,825.947,609.551,823.901,608.204,823.178L608.204,823.178z"/>
				</g>
			</g>
			<linearGradient id="SVGID_58_" gradientUnits="userSpaceOnUse" x1="971.459" y1="870.1963" x2="895.8348" y2="776.7781">
				<stop  offset="0" style="stop-color:#575581;stop-opacity:0"/>
				<stop  offset="1" style="stop-color:#130030"/>
			</linearGradient>
			<path fill="url(#SVGID_58_)" d="M966.641,787.76c-2.961,13.83-8.82,27.79-11.431,42.9c-3.989,23.02-11.09,39.81-46.489,46.04
				c-5.98,1.05-12.4,2-19.021,2.81c34.78-25.25,45.04-90.76,43.34-98.84c-0.729-3.479,0.09-8.71,1.521-14.7
				c2.41-10.1,6.529-22.37,7.81-32.029c10.62,4.64,23.021,10.84,25.67,32.09C968.95,773.33,968.189,780.53,966.641,787.76z"/>
			<g opacity="0.3">
				<linearGradient id="SVGID_59_" gradientUnits="userSpaceOnUse" x1="903.6338" y1="694.8027" x2="887.4646" y2="674.829">
					<stop  offset="0" style="stop-color:#575581;stop-opacity:0"/>
					<stop  offset="1" style="stop-color:#130030"/>
				</linearGradient>
				<path fill="url(#SVGID_59_)" d="M910.721,667.3c-7.471,8.87-16.66,25.37-23.451,33.94c-3.299-0.181-6.319-0.51-8.399-0.771
					c2.2-7.88,10.56-21.1,14.59-27.14c1.5-2.24,2.22-4.43,2.47-6.46C900.91,666.76,906.13,666.83,910.721,667.3z"/>
				<linearGradient id="SVGID_60_" gradientUnits="userSpaceOnUse" x1="922.4385" y1="695.3105" x2="908.1309" y2="677.6365">
					<stop  offset="0" style="stop-color:#575581;stop-opacity:0"/>
					<stop  offset="1" style="stop-color:#130030"/>
				</linearGradient>
				<path fill="url(#SVGID_60_)" d="M908.83,700.3c6.141-8.88,13.689-21.6,21.47-28.63c-3.5-0.96-7.67-2.04-12.19-3.09
					c-4.08,8.58-13.649,22.87-18.209,32.24L908.83,700.3z"/>
			</g>
			<linearGradient id="SVGID_61_" gradientUnits="userSpaceOnUse" x1="998.75" y1="599.3115" x2="996.0251" y2="638.028">
				<stop  offset="0" style="stop-color:#575581;stop-opacity:0"/>
				<stop  offset="1" style="stop-color:#130030"/>
			</linearGradient>
			<path fill="url(#SVGID_61_)" d="M1016.33,621.73c-0.29,13.869-4.91,14.71-8.53,13.189c3.729-15.79-2.18-36.32-6.13-42.25
				c-1.52-2.28-10.54-5.08-21.141-7.67c6.771,1.2,12.931,2.19,16.73,2.19C1007.439,587.19,1016.811,598.73,1016.33,621.73z"/>
			<linearGradient id="SVGID_62_" gradientUnits="userSpaceOnUse" x1="857.127" y1="802.5693" x2="853.012" y2="861.0363">
				<stop  offset="0" style="stop-color:#575581;stop-opacity:0"/>
				<stop  offset="1" style="stop-color:#130030"/>
			</linearGradient>
			<path fill="url(#SVGID_62_)" d="M818.998,785.38c0,0-3.68,14.954-8.84,25.454s-16.494,34.499,2.173,37.833
				s64.738,14.002,77.369,3.001s16.302-32.372,18.8-43.02s2.221-21.982,2.221-21.982S846.998,796.093,818.998,785.38z"/>
			<linearGradient id="SVGID_63_" gradientUnits="userSpaceOnUse" x1="862.3506" y1="786.8623" x2="861.197" y2="803.2524">
				<stop  offset="0" style="stop-color:#575581;stop-opacity:0"/>
				<stop  offset="1" style="stop-color:#130030"/>
			</linearGradient>
			<path fill="url(#SVGID_63_)" d="M818.998,785.38l-3.341,11.476c0,0,14.843,1.969,30.343,3.557s25.5,2.412,36,0s24.5,0,24.5,0
				l2-15.818c0,0-22.5,3.436-35,3.171S818.998,785.38,818.998,785.38z"/>
			<path fill="#D9E3C2" d="M896.975,799.441l-2.18,21.51c0,0-1.295,0.049-5.095-1.285s3.755-20.324,3.755-20.324"/>
			<path fill="none" stroke="#D9E3C2" stroke-width="2" stroke-miterlimit="10" stroke-dasharray="4" d="M1023.498,626.52
				c0,0,10.209,13.647,7.075,33.647s-5.248,81.002-3.176,93.126s0.03,19.707,0.03,19.707H1035"/>
			<linearGradient id="SVGID_64_" gradientUnits="userSpaceOnUse" x1="840.9375" y1="742.5703" x2="969.6715" y2="701.0775">
				<stop  offset="0" style="stop-color:#EE782C;stop-opacity:0"/>
				<stop  offset="1" style="stop-color:#EE782C"/>
			</linearGradient>
			<path fill="url(#SVGID_64_)" d="M909.471,730.23c0,0-48.591,18.319-62.031,14.039C834,740,822.17,760.48,821.08,766.74
				c-4.08-1.351-7.9-2.891-11.43-4.53c0.3-2.06,0.47-4.03,0.51-5.92c0.29-15.94,4.72-26.42,21.54-27.37
				C845.029,728.16,885.939,730.87,909.471,730.23z"/>
		</g>
		<g>
			<linearGradient id="SVGID_65_" gradientUnits="userSpaceOnUse" x1="648.4502" y1="105.0361" x2="636.4502" y2="144.0361">
				<stop  offset="0" style="stop-color:#575581;stop-opacity:0"/>
				<stop  offset="1" style="stop-color:#130030"/>
			</linearGradient>
			<polygon fill="url(#SVGID_65_)" points="637,98 637,128 655,128 			"/>
			<path fill="#E0E4CE" d="M685.33,132.33l-11.66,0.23L651.33,133c-10-9.33-14-35.33-14-35.33l11.13-0.21L673,97
				C672.67,109,685.33,132.33,685.33,132.33z"/>
			<polygon fill="#858A00" points="655.33,179 650.42,179.22 644.78,179.47 640,179.69 633,180 633,150 647.11,152.23 652,153 			
				"/>
			<polygon fill="#AF4F55" points="708.01,199 670,200 669.66,196 666.67,160.33 696,160.84 705.33,161 			"/>
			<polygon fill="#AF4F55" points="644.29,169.5 644.78,179.47 640,179.69 640,169 			"/>
			<polygon fill="#AF4F55" points="655.33,179 650.42,179.22 647.11,152.23 652,153 			"/>
			<linearGradient id="SVGID_66_" gradientUnits="userSpaceOnUse" x1="644.165" y1="140" x2="644.165" y2="250">
				<stop  offset="0" style="stop-color:#575581;stop-opacity:0"/>
				<stop  offset="1" style="stop-color:#130030"/>
			</linearGradient>
			<polygon fill="url(#SVGID_66_)" points="655.33,179 650.42,179.22 644.78,179.47 640,179.69 633,180 633,150 647.11,152.23 
				652,153 			"/>
			<linearGradient id="SVGID_67_" gradientUnits="userSpaceOnUse" x1="666.5044" y1="131.5801" x2="624.5036" y2="90.2458">
				<stop  offset="0" style="stop-color:#575581;stop-opacity:0"/>
				<stop  offset="1" style="stop-color:#130030"/>
			</linearGradient>
			<path fill="url(#SVGID_67_)" d="M673.67,132.56L651.33,133c-10-9.33-14-35.33-14-35.33l11.13-0.21
				C650.32,106.53,656.28,125.93,673.67,132.56z"/>
			<linearGradient id="SVGID_68_" gradientUnits="userSpaceOnUse" x1="683.2393" y1="171.1709" x2="715.7385" y2="239.6692">
				<stop  offset="0" style="stop-color:#575581;stop-opacity:0"/>
				<stop  offset="1" style="stop-color:#130030"/>
			</linearGradient>
			<polygon fill="url(#SVGID_68_)" points="708.01,199 670,200 669.66,196 693.75,196 694,192 681,192 681,187 696,187 696,160.84 
				705.33,161 			"/>
			<g>
				<path fill="#B0C8BE" d="M690.25,166.25c-6.977-0.515-14.185,2.861-15.072,10.493c-0.901,7.754,4.623,13.813,11.923,15.453
					c6.808,1.529,13.966-2.088,14.729-9.415c0.624-5.998-3.83-16.032-10.83-16.032c-2,0-2,3,0,3c5,0,8.078,8.169,7.908,12.277
					c-0.284,6.915-7.356,8.38-12.875,6.782c-5.037-1.458-8.173-6.229-7.908-11.341c0.331-6.381,6.712-8.619,12.141-8.219
					C692.197,169.393,692.167,166.392,690.25,166.25L690.25,166.25z"/>
			</g>
			<g>
				<path fill="#B0C8BE" d="M681,176c0,0,0,0,0,1c0,2,3,2,3,0c0-1,0-1,0-1C684,174,681,174,681,176C681,176,681,174,681,176z"/>
			</g>
			<g>
				<path fill="#B0C8BE" d="M691.993,176.545c0.349,0.19,0.521,0.363,0.711,0.711c0.391,0.717,1.363,0.942,2.052,0.539
					c0.721-0.422,0.93-1.334,0.539-2.052c-0.406-0.745-1.043-1.383-1.789-1.789c-0.718-0.391-1.63-0.182-2.052,0.539
					C691.051,175.182,691.276,176.154,691.993,176.545L691.993,176.545z"/>
			</g>
			<g>
				<path fill="#B0C8BE" d="M686.061,185.811c2.164-2.01,5.524-2.672,8.183-1.265c1.708,0.904,3.224-1.686,1.514-2.591
					c-3.879-2.053-8.638-1.218-11.817,1.735C682.519,185.008,684.646,187.125,686.061,185.811L686.061,185.811z"/>
			</g>
			<polygon fill="none" stroke="#342E4F" stroke-width="2" stroke-miterlimit="10" points="647.28,108 649,113 670,113 
				666.67,105.591 			"/>
			<linearGradient id="SVGID_69_" gradientUnits="userSpaceOnUse" x1="651.3848" y1="123" x2="674" y2="123">
				<stop  offset="0" style="stop-color:#F2F2F2;stop-opacity:0"/>
				<stop  offset="1" style="stop-color:#F2F2F2"/>
			</linearGradient>
			<polygon opacity="0.5" fill="url(#SVGID_69_)" points="651.385,119 655.33,128 674,128 670,118 			"/>
			<linearGradient id="SVGID_70_" gradientUnits="userSpaceOnUse" x1="701.2139" y1="139.3379" x2="702.5469" y2="172.0051">
				<stop  offset="0" style="stop-color:#F2F2F2;stop-opacity:0"/>
				<stop  offset="1" style="stop-color:#F2F2F2"/>
			</linearGradient>
			<polygon opacity="0.7" fill="url(#SVGID_70_)" points="696.675,154.333 713.334,174 711,171 711.334,174.5 708.01,173.76 
				710.334,177.994 691.256,157.667 695.49,158 			"/>
		</g>
		<g>
			<circle fill="#EF703F" cx="264.971" cy="444.029" r="69.746"/>
			<linearGradient id="SVGID_71_" gradientUnits="userSpaceOnUse" x1="195.2246" y1="444.0293" x2="334.7168" y2="444.0293">
				<stop  offset="0" style="stop-color:#575581;stop-opacity:0"/>
				<stop  offset="1" style="stop-color:#575581"/>
			</linearGradient>
			<path fill="url(#SVGID_71_)" d="M334.717,444.029c0,32.833-22.689,60.359-53.231,67.77c-4.631,1.129-9.429,1.798-14.372,1.943
				c-0.712,0.022-1.43,0.033-2.143,0.033c-38.521,0-69.746-31.225-69.746-69.746s31.225-69.746,69.746-69.746
				c18.29,0,34.928,7.041,47.371,18.548c10.446,9.675,17.933,22.52,20.925,36.993C334.215,434.41,334.717,439.163,334.717,444.029z"
				/>
			<linearGradient id="SVGID_72_" gradientUnits="userSpaceOnUse" x1="308.9092" y1="323.6182" x2="199.5471" y2="725.3565">
				<stop  offset="0" style="stop-color:#575581;stop-opacity:0"/>
				<stop  offset="1" style="stop-color:#575581"/>
			</linearGradient>
			<path fill="url(#SVGID_72_)" d="M334.717,444.029c0,32.833-19.06,60.359-44.713,67.77c-3.89,1.129-7.92,1.798-12.074,1.943
				c-0.6,0.022-1.2,0.033-1.801,0.033c-32.355,0-58.586-31.225-58.586-69.746s26.23-69.746,58.586-69.746
				c15.363,0,29.339,7.041,39.793,18.548c8.772,9.675,15.062,22.52,17.576,36.993C334.295,434.41,334.717,439.163,334.717,444.029z"
				/>
			<linearGradient id="SVGID_73_" gradientUnits="userSpaceOnUse" x1="370.1377" y1="292.9834" x2="209.445" y2="748.2796">
				<stop  offset="0" style="stop-color:#F2F2F2;stop-opacity:0"/>
				<stop  offset="1" style="stop-color:#F2F2F2"/>
			</linearGradient>
			<path opacity="0.2" fill="url(#SVGID_73_)" d="M334.717,444.029c0,32.833-22.689,60.359-53.231,67.77
				c-0.947-4.585-1.451-9.339-1.451-14.205c0-32.831,22.678-60.36,53.231-67.77C334.215,434.41,334.717,439.163,334.717,444.029z"/>
		</g>
	</g>
</g>
</svg>
